<?xml version="1.0" encoding="UTF-8"?>
<svg id="Layer_2" data-name="Layer 2" xmlns="http://www.w3.org/2000/svg" viewBox="0 0 194.35 121.51">
  <defs>
    <style>
      .cls-1 {
        fill: #f5714a;
      }
    </style>
  </defs>
  <g id="Layer_2-2" data-name="Layer 2">
    <g id="_마스크_그룹_8" data-name="마스크 그룹 8">
      <g id="_그룹_335" data-name="그룹 335">
        <path id="_패스_90" data-name="패스 90" class="cls-1" d="M120.28,95.51c-1.48-2.61-3.73-2.99-6.21-1.94,.25-.91,.39-1.84,.43-2.78-.14-.89-.39-1.77-.73-2.61,2.17,1.26,4.38,1.01,5.84-.72,1.56-1.82,1.35-4.56-.47-6.12-1.36-1.17-3.3-1.38-4.88-.53-1.13,.59-1.94,1.67-2.19,2.92-.24,1.25,.02,2.55,.73,3.61-1.77,1.31-4.27,.93-5.58-.84-1.04-1.41-1.04-3.34,0-4.74,2.55,1.26,4.73,.91,6.11-.89,1.47-1.9,1.11-4.64-.79-6.1-1.42-1.09-3.36-1.2-4.89-.29-1.06,.62-1.8,1.66-2.03,2.86-.23,1.26,.06,2.56,.8,3.6-1.6-1.18-3.74-1.3-5.46-.32,.94-2.77,.59-4.57-1.12-5.94-1.46-1.19-3.51-1.32-5.11-.32-2.35,1.55-2.7,3.71-1.57,6.3-1.69-1.01-3.82-.93-5.43,.21,1.28-2.53,.92-4.73-.89-6.11-1.91-1.46-4.64-1.11-6.1,.8-1.09,1.42-1.2,3.36-.28,4.89,.62,1.06,1.66,1.8,2.86,2.03,1.26,.23,2.56-.06,3.6-.8-1.12,1.54-1.29,3.58-.44,5.28-1.75-.88-3.84-.67-5.38,.54,1.47-2.43,1.2-4.73-.57-6.19-1.84-1.52-4.57-1.27-6.1,.57-1.24,1.5-1.33,3.65-.21,5.24,1.39,1.98,3.59,2.33,6.35,.95-1.26,1.62-1.38,3.86-.31,5.61-2.79-.99-4.61-.65-5.96,1.02-1.54,1.91-1.24,4.71,.68,6.26,.56,.45,1.22,.76,1.93,.9,1.25,.2,2.53-.07,3.59-.75-1.17,1.91-1.3,3.72-.08,5.42,1.59,2.2,3.76,2.47,6.26,1.37-.15,.36-.25,.58-.33,.8-.91,2.36,.27,5.02,2.63,5.93,.51,.2,1.04,.3,1.59,.31,1.12-.06,2.21-.42,3.14-1.06l.44-.45c.78-1.06,1.13-2.38,.99-3.69-.07-.39-.17-.78-.28-1.28,1.42,.63,3.05,.6,4.45-.07-.69,1.68-.45,3.6,.63,5.06l.45,.44c.16,.08,.33,.16,.49,.25,2.09,1.43,4.94,.89,6.36-1.19,.9-1.32,1.05-3.02,.39-4.47-.06-.15-.1-.32-.17-.53,2.55,.93,4.31,.71,5.7-.79,1.69-1.82,1.71-3.84,.46-6,2.44,1.17,4.37,.98,5.85-.52,1.37-1.34,1.69-3.42,.79-5.12Zm-34.56,4.04c-1.51-.48-3.17-.2-4.44,.75,1.14-1.59,1.21-3.72,.17-5.38,1.27,.8,2.83,1.01,4.27,.57v4.05Zm4.51-10.26c.61,.01,1.21-.02,1.81-.09-.05,1.08-.1,2.17-.15,3.21l-3.07,.2c-.06-1.16-.14-2.43-.21-3.66,.53,.16,1.07,.27,1.61,.34h0Zm-2.12,17.17c.72-1.24,.89-2.73,.45-4.09l3.51,.16c.08,1.1,.16,2.32,.25,3.53-1.39-.49-2.93-.34-4.21,.4h0Zm10.39-7.44h-2.89v-2.86h2.89v2.86Zm.41-12.98h-3.75c.35-1.37,.12-2.82-.63-4.02,1.52,.9,3.42,.91,4.94,.02-.68,1.22-.88,2.65-.57,4.01h0Zm6.77,3.02c-.52,1.12-.59,2.41-.17,3.58l-3.3-.22c-.04-.99-.09-2.1-.14-3.08l3.61-.28Zm-3.89,17.02c.09-1.21,.17-2.43,.25-3.54l3.51-.16c-.45,1.36-.28,2.84,.46,4.07-1.29-.73-2.83-.86-4.23-.37h0Zm6.59-6.52v-4.05c1.37,.43,2.85,.27,4.1-.44,1.51,.84,2.05,2.74,1.21,4.25s-2.74,2.05-4.25,1.21c-.42-.24-.79-.57-1.06-.97h0Z"/>
        <path id="_패스_91" data-name="패스 91" class="cls-1" d="M99.94,113.44l.45,.44c1.31,2.04,1.36,3.96,.14,5.56-1.47,1.93-4.23,2.3-6.15,.82-1.77-1.35-2.25-3.81-1.11-5.72,.14-.23,.29-.45,.44-.67l.44-.45c2.17-1.41,3.69-1.41,5.8,.01Z"/>
        <path id="_패스_92" data-name="패스 92" class="cls-1" d="M120.61,110.33c.01,2.37-1.9,4.3-4.27,4.32s-4.3-1.9-4.32-4.27,1.9-4.3,4.27-4.32h0c2.36,.01,4.28,1.91,4.31,4.27Z"/>
        <path id="_패스_93" data-name="패스 93" class="cls-1" d="M77.75,106.07c2.36,0,4.28,1.91,4.29,4.27,0,2.36-1.91,4.28-4.27,4.29-2.35,0-4.27-1.89-4.29-4.25,0-2.37,1.9-4.29,4.27-4.31Z"/>
        <path id="_패스_94" data-name="패스 94" class="cls-1" d="M114.15,116.8c-.01,2.35-1.92,4.25-4.28,4.24-2.35-.01-4.25-1.92-4.24-4.28s1.92-4.25,4.28-4.24c.01,0,.03,0,.04,0,2.34,.03,4.21,1.94,4.2,4.28Z"/>
        <path id="_패스_95" data-name="패스 95" class="cls-1" d="M88.45,116.78c0,2.35-1.91,4.26-4.26,4.26-2.35,0-4.26-1.91-4.26-4.26,0-2.35,1.91-4.26,4.26-4.26,.01,0,.03,0,.04,0,2.34,.02,4.22,1.92,4.22,4.26Z"/>
        <path id="_패스_96" data-name="패스 96" class="cls-1" d="M86.4,71.72c.04-2.33,1.96-4.19,4.29-4.15,2.33,.04,4.19,1.96,4.15,4.29-.04,2.33-1.96,4.19-4.29,4.15-2.31-.02-4.17-1.91-4.15-4.21,0-.03,0-.05,0-.08Z"/>
        <path id="_패스_97" data-name="패스 97" class="cls-1" d="M107.7,71.78c.01,2.34-1.88,4.25-4.21,4.26-2.34,.01-4.25-1.88-4.26-4.21-.01-2.34,1.88-4.25,4.21-4.26,0,0,.01,0,.02,0,2.32-.02,4.22,1.85,4.24,4.18,0,.01,0,.03,0,.04Z"/>
        <path id="_패스_98" data-name="패스 98" class="cls-1" d="M126.93,91.05c.01,2.31-1.85,4.2-4.16,4.21-2.31,.01-4.2-1.85-4.21-4.16s1.85-4.2,4.16-4.21c0,0,.01,0,.02,0,2.3-.01,4.18,1.84,4.19,4.14,0,0,0,.01,0,.02Z"/>
        <path id="_패스_99" data-name="패스 99" class="cls-1" d="M71.27,95.26c-2.31-.04-4.16-1.95-4.12-4.26,.04-2.31,1.95-4.16,4.26-4.12,2.31,.04,4.16,1.95,4.12,4.26,0,0,0,.01,0,.02-.04,2.3-1.94,4.14-4.24,4.1,0,0-.01,0-.02,0Z"/>
        <path id="_패스_100" data-name="패스 100" class="cls-1" d="M75.51,103.94c0,2.31-1.88,4.17-4.19,4.16s-4.17-1.88-4.16-4.19c0-2.3,1.87-4.16,4.17-4.16,2.31,0,4.18,1.88,4.18,4.19h0Z"/>
        <path id="_패스_101" data-name="패스 101" class="cls-1" d="M122.73,99.75c2.31,0,4.18,1.86,4.18,4.16,0,2.31-1.86,4.18-4.16,4.18-2.3,0-4.17-1.85-4.18-4.14-.01-2.31,1.85-4.19,4.16-4.21h0Z"/>
        <path class="cls-1" d="M107.25,121.51c-.64-1.44-2.08-2.45-3.76-2.46-1.69,0-3.13,1.02-3.79,2.46h7.55Z"/>
        <path class="cls-1" d="M94.39,121.51c-.64-1.43-2.07-2.44-3.74-2.46-1.7-.02-3.17,1-3.82,2.46h7.56Z"/>
        <path id="_패스_104" data-name="패스 104" class="cls-1" d="M97,61.34c2.22-.02,4.04,1.76,4.07,3.99,.02,2.22-1.76,4.04-3.99,4.07-2.22,.02-4.04-1.76-4.07-3.99-.04-2.21,1.72-4.03,3.93-4.07,.02,0,.04,0,.05,0Z"/>
        <path id="_패스_105" data-name="패스 105" class="cls-1" d="M116.28,75.82c-2.22-.02-4-1.84-3.98-4.05,.02-2.22,1.84-4,4.05-3.98,2.21,.02,3.99,1.82,3.98,4.04,0,2.22-1.81,4.01-4.02,4-.01,0-.02,0-.03,0Z"/>
        <path id="_패스_106" data-name="패스 106" class="cls-1" d="M81.78,71.84c-.02,2.22-1.84,4-4.06,3.98-2.22-.02-4-1.84-3.98-4.06,.02-2.21,1.83-3.99,4.04-3.98,2.22,0,4.01,1.81,4,4.02,0,.01,0,.02,0,.04Z"/>
        <path id="_패스_107" data-name="패스 107" class="cls-1" d="M126.76,78.19c.02,2.22-1.77,4.02-3.98,4.04-2.22,.02-4.02-1.77-4.04-3.98-.02-2.22,1.77-4.02,3.98-4.04,.01,0,.03,0,.04,0,2.2,.01,3.98,1.79,4,3.98Z"/>
        <path id="_패스_108" data-name="패스 108" class="cls-1" d="M75.35,78.24c-.01,2.22-1.82,4-4.03,3.99-2.22-.01-4-1.82-3.99-4.03,.01-2.22,1.82-4,4.03-3.99,.01,0,.03,0,.04,0,2.2,.04,3.96,1.83,3.95,4.03Z"/>
        <path id="_패스_109" data-name="패스 109" class="cls-1" d="M68.89,97.57c-.04,2.2-1.85,3.95-4.05,3.92s-3.95-1.85-3.92-4.05c.04-2.19,1.84-3.94,4.03-3.92,2.2,.05,3.95,1.85,3.94,4.05Z"/>
        <path id="_패스_110" data-name="패스 110" class="cls-1" d="M133.15,97.49c0,2.2-1.77,3.99-3.97,4s-3.99-1.77-4-3.97c0-2.19,1.76-3.98,3.95-4,2.2,0,3.99,1.77,4.02,3.97Z"/>
        <path id="_패스_111" data-name="패스 111" class="cls-1" d="M122.78,120.73c-2.18,.02-3.97-1.73-3.99-3.91-.02-2.18,1.73-3.97,3.91-3.99,2.18-.02,3.97,1.73,3.99,3.91,0,0,0,.01,0,.02,0,2.17-1.74,3.93-3.91,3.97Z"/>
        <path id="_패스_112" data-name="패스 112" class="cls-1" d="M75.26,116.77c0,2.17-1.75,3.93-3.92,3.93-2.17,0-3.93-1.75-3.93-3.92,0-2.17,1.75-3.93,3.92-3.93,2.16-.01,3.92,1.72,3.93,3.88,0,.01,0,.02,0,.04Z"/>
        <path class="cls-1" d="M119.85,121.51c-.63-1.31-1.96-2.23-3.51-2.23-1.57,0-2.92,.91-3.55,2.23h7.06Z"/>
        <path id="_패스_114" data-name="패스 114" class="cls-1" d="M113.82,65.4c-.02,2.17-1.79,3.91-3.96,3.89-2.17-.02-3.91-1.79-3.89-3.96,.02-2.17,1.79-3.91,3.96-3.89h0c2.16,0,3.9,1.77,3.89,3.93,0,.01,0,.02,0,.03Z"/>
        <path id="_패스_115" data-name="패스 115" class="cls-1" d="M88.11,65.36c0,2.17-1.74,3.93-3.91,3.94-2.17,0-3.93-1.74-3.94-3.91,0-2.17,1.74-3.93,3.91-3.94h0c2.16-.02,3.92,1.72,3.93,3.88,0,.01,0,.02,0,.03Z"/>
        <path class="cls-1" d="M81.29,121.51c-.63-1.32-1.97-2.23-3.53-2.22-1.54,0-2.86,.91-3.49,2.22h7.02Z"/>
        <path id="_패스_118" data-name="패스 118" class="cls-1" d="M129.15,80.76c2.15-.01,3.9,1.72,3.91,3.87,.01,2.15-1.72,3.9-3.87,3.91-2.15,.01-3.9-1.72-3.91-3.87,0-.01,0-.03,0-.04-.01-2.13,1.7-3.86,3.83-3.87,.01,0,.03,0,.04,0Z"/>
        <path id="_패스_119" data-name="패스 119" class="cls-1" d="M68.79,84.63c0,2.14-1.72,3.89-3.86,3.89-2.14,0-3.89-1.72-3.89-3.86,0-2.14,1.72-3.89,3.86-3.89h.02c2.12-.02,3.86,1.69,3.87,3.81,0,.02,0,.04,0,.05Z"/>
        <path id="_패스_120" data-name="패스 120" class="cls-1" d="M129.16,106.5c2.13,0,3.86,1.72,3.86,3.85,0,2.13-1.72,3.86-3.85,3.86-2.13,0-3.86-1.72-3.86-3.85,0-.01,0-.03,0-.04,.03-2.11,1.74-3.81,3.84-3.82Z"/>
        <path id="_패스_121" data-name="패스 121" class="cls-1" d="M64.9,106.5c2.13,0,3.86,1.72,3.86,3.85,0,2.13-1.72,3.86-3.85,3.86-2.13,0-3.86-1.72-3.86-3.85,0-.01,0-.03,0-.04,.03-2.11,1.74-3.81,3.84-3.82Z"/>
        <path id="_패스_124" data-name="패스 124" class="cls-1" d="M107.21,59.06c-.06,2.07-1.79,3.69-3.85,3.63-2.07-.06-3.69-1.79-3.63-3.85,.06-2.07,1.79-3.69,3.85-3.63,.01,0,.03,0,.04,0,2.05,.06,3.66,1.78,3.59,3.82,0,0,0,.02,0,.03Z"/>
        <path id="_패스_125" data-name="패스 125" class="cls-1" d="M90.72,55.2c2.07,.06,3.7,1.78,3.64,3.84-.06,2.07-1.78,3.7-3.84,3.64-2.07-.06-3.7-1.78-3.64-3.84,0-.01,0-.03,0-.04,.06-2.05,1.77-3.66,3.82-3.6,0,0,.02,0,.03,0Z"/>
        <path id="_패스_126" data-name="패스 126" class="cls-1" d="M135.55,94.78c-2.05-.03-3.69-1.71-3.66-3.75,.03-2.05,1.71-3.69,3.75-3.66,2.04,.03,3.67,1.69,3.66,3.73,0,2.04-1.66,3.68-3.69,3.68-.02,0-.04,0-.06,0Z"/>
        <path id="_패스_127" data-name="패스 127" class="cls-1" d="M62.19,91.12c-.03,2.05-1.71,3.68-3.76,3.66-2.05-.03-3.68-1.71-3.66-3.76,.03-2.04,1.7-3.67,3.74-3.66,2.03,0,3.68,1.66,3.68,3.69,0,.02,0,.04,0,.06Z"/>
        <path id="_패스_128" data-name="패스 128" class="cls-1" d="M139.29,103.95c-.01,2.04-1.68,3.69-3.72,3.68s-3.69-1.68-3.68-3.72,1.68-3.69,3.72-3.68c.01,0,.03,0,.04,0,2.03,.03,3.65,1.69,3.64,3.72Z"/>
        <path id="_패스_129" data-name="패스 129" class="cls-1" d="M58.41,107.62c-2.04-.04-3.66-1.73-3.62-3.76,.04-2.04,1.73-3.66,3.76-3.62s3.66,1.73,3.62,3.76c0,0,0,.01,0,.02-.05,2.03-1.73,3.64-3.76,3.6Z"/>
        <path id="_패스_130" data-name="패스 130" class="cls-1" d="M68.58,71.79c0,2.03-1.63,3.68-3.66,3.68-2.03,0-3.68-1.63-3.68-3.66,0-2.02,1.62-3.66,3.64-3.68,2.03,0,3.67,1.64,3.7,3.66Z"/>
        <path id="_패스_131" data-name="패스 131" class="cls-1" d="M129.19,75.47c-2.03,.01-3.68-1.62-3.69-3.65-.01-2.03,1.62-3.68,3.65-3.69,2.02-.01,3.67,1.61,3.69,3.63,0,2.03-1.62,3.68-3.65,3.71Z"/>
        <path id="_패스_132" data-name="패스 132" class="cls-1" d="M126.43,65.34c.02,2.03-1.61,3.7-3.65,3.72-2.03,.02-3.7-1.61-3.72-3.65s1.61-3.7,3.65-3.72h0c2.03,0,3.68,1.62,3.71,3.65Z"/>
        <path id="_패스_133" data-name="패스 133" class="cls-1" d="M71.32,69.04c-2.03,0-3.66-1.66-3.66-3.69,0-2.03,1.66-3.66,3.69-3.66,2.02,0,3.65,1.65,3.66,3.67-.02,2.03-1.66,3.66-3.69,3.68Z"/>
        <path id="_패스_136" data-name="패스 136" class="cls-1" d="M116.34,62.54c-1.98,.01-3.6-1.59-3.61-3.57s1.59-3.6,3.57-3.61c1.98-.01,3.6,1.59,3.61,3.57,0,.01,0,.03,0,.04,0,1.97-1.59,3.57-3.56,3.57h-.01Z"/>
        <path class="cls-1" d="M132.3,121.51c-.61-1.12-1.79-1.89-3.15-1.88-1.35,0-2.51,.77-3.11,1.88h6.26Z"/>
        <path id="_패스_138" data-name="패스 138" class="cls-1" d="M77.79,55.37c1.97,.01,3.56,1.63,3.55,3.6-.01,1.97-1.63,3.56-3.6,3.55-1.97-.01-3.56-1.63-3.55-3.6,0,0,0-.01,0-.02,0-1.95,1.59-3.53,3.54-3.53,.02,0,.04,0,.06,0Z"/>
        <path class="cls-1" d="M68.03,121.51c-.61-1.13-1.8-1.89-3.17-1.87-1.33,.02-2.47,.78-3.06,1.87h6.23Z"/>
        <path id="_패스_142" data-name="패스 142" class="cls-1" d="M135.63,74.66c1.97,.02,3.54,1.63,3.52,3.59-.02,1.97-1.63,3.54-3.59,3.52-1.96-.02-3.54-1.63-3.52-3.59,0-1.95,1.57-3.52,3.52-3.53,.03,0,.05,0,.08,0Z"/>
        <path id="_패스_143" data-name="패스 143" class="cls-1" d="M58.46,74.67c1.96-.01,3.56,1.56,3.57,3.52s-1.56,3.56-3.52,3.57c-1.95,.01-3.55-1.55-3.57-3.51-.04-1.94,1.5-3.55,3.45-3.59,.03,0,.05,0,.08,0Z"/>
        <path id="_패스_144" data-name="패스 144" class="cls-1" d="M100.57,52.56c-.02,1.95-1.62,3.52-3.57,3.5-1.95-.02-3.52-1.62-3.5-3.57,.02-1.95,1.62-3.52,3.57-3.5,0,0,.01,0,.02,0,1.94,.04,3.49,1.63,3.47,3.57Z"/>
        <path id="_패스_145" data-name="패스 145" class="cls-1" d="M62.01,116.77c0,1.95-1.57,3.53-3.51,3.53-1.95,0-3.53-1.57-3.53-3.51,0-1.95,1.57-3.53,3.51-3.53,1.94,0,3.51,1.57,3.53,3.51Z"/>
        <path id="_패스_146" data-name="패스 146" class="cls-1" d="M135.57,113.25c1.95-.02,3.54,1.55,3.55,3.49,.02,1.95-1.55,3.54-3.49,3.55s-3.54-1.55-3.55-3.49c0-1.94,1.55-3.52,3.49-3.55Z"/>
        <path id="_패스_149" data-name="패스 149" class="cls-1" d="M142.03,94.02c1.92,0,3.48,1.56,3.47,3.48,0,1.92-1.56,3.48-3.48,3.48-1.92,0-3.48-1.56-3.47-3.48,.02-1.92,1.57-3.46,3.48-3.48Z"/>
        <path id="_패스_150" data-name="패스 150" class="cls-1" d="M109.91,49.06c1.91,0,3.45,1.56,3.44,3.47,0,1.91-1.56,3.45-3.47,3.44-1.9,0-3.44-1.55-3.44-3.45,0-1.91,1.54-3.46,3.45-3.46h.02Z"/>
        <path id="_패스_151" data-name="패스 151" class="cls-1" d="M84.19,49.06c1.91,0,3.46,1.55,3.46,3.45,0,1.91-1.55,3.46-3.45,3.46-1.9,0-3.45-1.53-3.46-3.43-.01-1.91,1.53-3.47,3.44-3.48,0,0,.01,0,.02,0Z"/>
        <path id="_패스_152" data-name="패스 152" class="cls-1" d="M52.04,94.04c1.91-.01,3.47,1.53,3.48,3.44,.01,1.91-1.53,3.47-3.44,3.48-1.9,.01-3.45-1.51-3.48-3.41-.02-1.91,1.51-3.48,3.42-3.5h.02Z"/>
        <path id="_패스_153" data-name="패스 153" class="cls-1" d="M55.46,84.61c.02,1.88-1.48,3.42-3.36,3.44-1.88,.02-3.42-1.48-3.44-3.36-.02-1.87,1.47-3.41,3.34-3.44,1.86-.05,3.4,1.41,3.45,3.27,0,.03,0,.06,0,.09Z"/>
        <path id="_패스_154" data-name="패스 154" class="cls-1" d="M145.42,84.64c0,1.88-1.51,3.41-3.39,3.41-1.88,0-3.41-1.51-3.41-3.39,0-1.87,1.5-3.4,3.37-3.41,1.86-.03,3.39,1.44,3.43,3.3,0,.03,0,.06,0,.09Z"/>
        <path id="_패스_155" data-name="패스 155" class="cls-1" d="M145.4,110.37c-.01,1.87-1.54,3.37-3.4,3.35-1.87-.01-3.37-1.54-3.35-3.4,.01-1.87,1.54-3.37,3.4-3.35,0,0,.01,0,.02,0,1.86,.02,3.35,1.54,3.34,3.4Z"/>
        <path id="_패스_157" data-name="패스 157" class="cls-1" d="M55.43,110.39c-.02,1.86-1.55,3.35-3.41,3.33-1.86-.02-3.35-1.55-3.33-3.41,.02-1.86,1.55-3.35,3.41-3.33,1.86,.03,3.34,1.55,3.33,3.41Z"/>
        <path id="_패스_160" data-name="패스 160" class="cls-1" d="M129.29,55.64c1.83,.07,3.25,1.6,3.19,3.42-.07,1.83-1.6,3.25-3.42,3.19-1.82-.07-3.24-1.58-3.19-3.4,.06-1.83,1.6-3.26,3.43-3.21Z"/>
        <path id="_패스_161" data-name="패스 161" class="cls-1" d="M64.92,55.66c1.81,0,3.28,1.48,3.27,3.29,0,1.81-1.48,3.28-3.29,3.27-1.81,0-3.28-1.48-3.27-3.29,0-.01,0-.03,0-.04,.02-1.8,1.49-3.24,3.29-3.23Z"/>
        <path id="_패스_162" data-name="패스 162" class="cls-1" d="M138.88,65.38c0,1.81-1.48,3.27-3.29,3.27-1.81,0-3.27-1.48-3.27-3.29,0-1.81,1.48-3.27,3.29-3.27,.01,0,.03,0,.04,0,1.8,.02,3.24,1.49,3.23,3.29Z"/>
        <path id="_패스_163" data-name="패스 163" class="cls-1" d="M58.45,68.65c-1.81-.02-3.26-1.51-3.24-3.32,.02-1.81,1.51-3.26,3.32-3.24,1.81,.02,3.26,1.51,3.24,3.32,0,.01,0,.03,0,.04-.04,1.8-1.52,3.23-3.32,3.2Z"/>
        <path id="_패스_164" data-name="패스 164" class="cls-1" d="M90.65,42.86c1.78,.02,3.21,1.48,3.19,3.27s-1.48,3.21-3.27,3.19c-1.78-.02-3.21-1.48-3.19-3.27,0-.01,0-.03,0-.04,.03-1.77,1.48-3.18,3.25-3.15,0,0,.01,0,.02,0Z"/>
        <path id="_패스_165" data-name="패스 165" class="cls-1" d="M125.97,52.52c0,1.78-1.44,3.23-3.23,3.23s-3.23-1.44-3.23-3.23,1.44-3.23,3.23-3.23c.01,0,.03,0,.04,0,1.77,0,3.2,1.44,3.19,3.21,0,0,0,.01,0,.02Z"/>
        <path id="_패스_166" data-name="패스 166" class="cls-1" d="M106.7,46.07c.02,1.78-1.42,3.24-3.2,3.26-1.78,.02-3.24-1.42-3.26-3.2s1.42-3.24,3.2-3.26c.01,0,.03,0,.04,0,1.77,0,3.21,1.42,3.21,3.18v.02Z"/>
        <path id="_패스_167" data-name="패스 167" class="cls-1" d="M71.33,55.74c-1.78,0-3.21-1.45-3.21-3.23,0-1.78,1.45-3.21,3.23-3.21,1.78,0,3.21,1.45,3.21,3.23,0,0,0,.01,0,.02,0,1.77-1.44,3.19-3.21,3.19,0,0-.01,0-.02,0Z"/>
        <path id="_패스_168" data-name="패스 168" class="cls-1" d="M145.23,71.77c.01,1.77-1.41,3.22-3.18,3.24-1.77,.01-3.22-1.41-3.24-3.18-.01-1.77,1.41-3.22,3.18-3.24,1.77-.01,3.22,1.41,3.24,3.18Z"/>
        <path id="_패스_170" data-name="패스 170" class="cls-1" d="M55.27,71.79c0,1.77-1.43,3.21-3.21,3.22-1.77,0-3.21-1.43-3.21-3.21,0-1.77,1.43-3.21,3.21-3.22,1.77,0,3.21,1.44,3.22,3.21Z"/>
        <path id="_패스_172" data-name="패스 172" class="cls-1" d="M151.65,91.07c0,1.77-1.43,3.2-3.2,3.2-1.77,0-3.2-1.43-3.2-3.2,0-1.76,1.42-3.19,3.18-3.2,1.77,0,3.21,1.43,3.22,3.2Z"/>
        <path id="_패스_175" data-name="패스 175" class="cls-1" d="M151.64,103.91c.01,1.76-1.41,3.2-3.17,3.21s-3.2-1.41-3.21-3.17c-.01-1.76,1.41-3.2,3.17-3.21,0,0,.01,0,.02,0,1.74,.02,3.15,1.43,3.19,3.17Z"/>
        <path id="_패스_176" data-name="패스 176" class="cls-1" d="M48.82,91.04c.02,1.76-1.39,3.2-3.15,3.22-1.76,.02-3.2-1.39-3.22-3.15-.02-1.76,1.39-3.2,3.15-3.22,0,0,.02,0,.02,0,1.74,.02,3.16,1.41,3.2,3.16Z"/>
        <path id="_패스_177" data-name="패스 177" class="cls-1" d="M45.67,107.1c-1.75,.02-3.19-1.38-3.21-3.14-.02-1.75,1.38-3.19,3.14-3.21,1.75-.02,3.19,1.38,3.21,3.13,0,1.74-1.39,3.17-3.14,3.21Z"/>
        <path class="cls-1" d="M144.67,121.51c-.56-.87-1.52-1.45-2.63-1.46-1.12,0-2.11,.58-2.67,1.46h5.3Z"/>
        <path class="cls-1" d="M54.71,121.51c-.56-.88-1.54-1.46-2.66-1.46-1.11,0-2.09,.59-2.65,1.46h5.3Z"/>
        <path id="_패스_184" data-name="패스 184" class="cls-1" d="M119.41,46.1c0,1.71-1.39,3.1-3.1,3.1-1.71,0-3.1-1.39-3.1-3.1s1.39-3.1,3.1-3.1h0c1.69-.02,3.07,1.34,3.09,3.03,0,.02,0,.05,0,.07Z"/>
        <path id="_패스_185" data-name="패스 185" class="cls-1" d="M80.86,46.07c.01,1.71-1.36,3.11-3.07,3.13-1.71,.01-3.11-1.36-3.13-3.07-.01-1.71,1.36-3.11,3.07-3.13,0,0,0,0,0,0,1.69-.03,3.09,1.31,3.12,3,0,.03,0,.05,0,.08Z"/>
        <path id="_패스_186" data-name="패스 186" class="cls-1" d="M148.52,75.17c1.69,.04,3.03,1.44,2.99,3.12s-1.44,3.03-3.12,2.99c-1.69-.04-3.03-1.44-2.99-3.12h0c.04-1.69,1.43-3.02,3.12-2.99,0,0,0,0,0,0Z"/>
        <path id="_패스_187" data-name="패스 187" class="cls-1" d="M45.66,75.17c1.69,.02,3.04,1.4,3.03,3.08-.02,1.69-1.4,3.04-3.08,3.03-1.69-.02-3.04-1.4-3.03-3.08,.01-1.68,1.38-3.04,3.07-3.03h.02Z"/>
        <path id="_패스_188" data-name="패스 188" class="cls-1" d="M148.41,119.81c-1.68-.02-3.02-1.4-3-3.07,.02-1.68,1.4-3.02,3.07-3,1.68,.02,3.02,1.4,3,3.07,0,.01,0,.03,0,.04-.06,1.65-1.42,2.96-3.07,2.96Z"/>
        <path id="_패스_189" data-name="패스 189" class="cls-1" d="M48.66,116.78c0,1.67-1.36,3.02-3.03,3.02-1.67,0-3.02-1.36-3.02-3.03,0-1.67,1.36-3.02,3.03-3.02,1.66,.03,3,1.37,3.02,3.03Z"/>
        <path id="_패스_192" data-name="패스 192" class="cls-1" d="M96.92,42.64c-1.64-.07-2.92-1.45-2.85-3.09,.07-1.64,1.45-2.92,3.09-2.85,1.64,.07,2.92,1.45,2.85,3.09,0,0,0,.01,0,.02-.07,1.63-1.45,2.9-3.09,2.83Z"/>
        <path id="_패스_193" data-name="패스 193" class="cls-1" d="M112.8,39.67c0,1.61-1.3,2.91-2.91,2.91-1.61,0-2.91-1.3-2.91-2.91,0-1.61,1.3-2.91,2.91-2.91,0,0,.01,0,.02,0,1.59,0,2.88,1.27,2.89,2.86,0,.02,0,.03,0,.05Z"/>
        <path id="_패스_194" data-name="패스 194" class="cls-1" d="M58.47,49.62c1.6-.01,2.91,1.28,2.92,2.88,.01,1.6-1.28,2.91-2.88,2.92-1.6,.01-2.91-1.28-2.92-2.88h0c-.02-1.59,1.25-2.9,2.85-2.92,.01,0,.02,0,.03,0Z"/>
        <path id="_패스_195" data-name="패스 195" class="cls-1" d="M84.21,36.77c1.6,.01,2.89,1.32,2.88,2.92-.01,1.6-1.32,2.89-2.92,2.88s-2.89-1.32-2.88-2.92h0c0-1.6,1.3-2.88,2.89-2.88,.01,0,.02,0,.03,0Z"/>
        <path id="_패스_196" data-name="패스 196" class="cls-1" d="M157.77,97.48c.01,1.6-1.28,2.91-2.88,2.92s-2.91-1.28-2.92-2.88c-.01-1.6,1.28-2.91,2.88-2.92h0c1.59-.02,2.9,1.25,2.92,2.85,0,.01,0,.02,0,.03Z"/>
        <path id="_패스_197" data-name="패스 197" class="cls-1" d="M42.11,97.52c-.01,1.6-1.32,2.89-2.92,2.88-1.6-.01-2.89-1.32-2.88-2.92s1.32-2.89,2.92-2.88h0c1.59,0,2.88,1.3,2.87,2.89,0,.01,0,.02,0,.03Z"/>
        <path id="_패스_198" data-name="패스 198" class="cls-1" d="M138.49,52.53c-.01,1.6-1.32,2.89-2.92,2.88-1.6-.01-2.89-1.32-2.88-2.92,.01-1.6,1.32-2.89,2.92-2.88h0c1.59,0,2.88,1.29,2.88,2.88,0,.01,0,.02,0,.03Z"/>
        <path id="_패스_199" data-name="패스 199" class="cls-1" d="M54.95,58.96c-.01,1.6-1.31,2.88-2.91,2.87-1.6-.01-2.88-1.31-2.87-2.91,.01-1.59,1.3-2.87,2.89-2.87,1.6,0,2.9,1.31,2.89,2.91Z"/>
        <path id="_패스_200" data-name="패스 200" class="cls-1" d="M142.01,61.83c-1.6,0-2.89-1.3-2.88-2.9,0-1.6,1.3-2.89,2.9-2.88,1.59,0,2.87,1.29,2.88,2.88,0,1.6-1.3,2.9-2.9,2.9h0Z"/>
        <path id="_패스_201" data-name="패스 201" class="cls-1" d="M157.75,84.77c-.07,1.59-1.41,2.82-3,2.76-1.59-.07-2.82-1.41-2.76-3,.07-1.59,1.41-2.82,3-2.76,0,0,.01,0,.02,0,1.57,.09,2.78,1.42,2.74,2.99Z"/>
        <path id="_패스_202" data-name="패스 202" class="cls-1" d="M129.2,43.23c1.58,.01,2.85,1.31,2.84,2.89-.01,1.58-1.31,2.85-2.89,2.84-1.58-.01-2.85-1.31-2.84-2.89h0c.04-1.57,1.32-2.83,2.89-2.84Z"/>
        <path id="_패스_203" data-name="패스 203" class="cls-1" d="M42.07,84.62c.02,1.58-1.25,2.88-2.83,2.89s-2.88-1.25-2.89-2.83c-.02-1.58,1.25-2.88,2.83-2.89h0c1.57,0,2.85,1.26,2.89,2.83Z"/>
        <path id="_패스_205" data-name="패스 205" class="cls-1" d="M148.45,68.21c-1.57,0-2.85-1.27-2.85-2.84,0-1.57,1.27-2.85,2.84-2.85,1.57,0,2.85,1.27,2.85,2.84,0,.01,0,.03,0,.04-.04,1.55-1.29,2.79-2.84,2.81Z"/>
        <path id="_패스_206" data-name="패스 206" class="cls-1" d="M62.07,46.03c.03-1.57,1.33-2.82,2.9-2.79,1.57,.03,2.82,1.33,2.79,2.9s-1.33,2.82-2.9,2.79c-.02,0-.03,0-.05,0-1.54-.07-2.75-1.35-2.74-2.9Z"/>
        <path id="_패스_207" data-name="패스 207" class="cls-1" d="M39.17,107.51c1.57-.02,2.86,1.24,2.88,2.81s-1.24,2.86-2.81,2.88c-1.57,.02-2.86-1.24-2.88-2.81,0-.01,0-.03,0-.04,.02-1.55,1.26-2.8,2.81-2.84Z"/>
        <path id="_패스_208" data-name="패스 208" class="cls-1" d="M157.71,110.42c-.03,1.57-1.34,2.82-2.91,2.78-1.57-.03-2.82-1.34-2.78-2.91,.03-1.57,1.34-2.82,2.91-2.78,.01,0,.03,0,.04,0,1.55,.08,2.75,1.36,2.74,2.91Z"/>
        <path id="_패스_209" data-name="패스 209" class="cls-1" d="M48.45,65.33c.02,1.55-1.22,2.83-2.78,2.85s-2.83-1.22-2.85-2.78c-.02-1.55,1.22-2.83,2.78-2.85,0,0,.01,0,.02,0,1.54,0,2.81,1.23,2.83,2.78Z"/>
        <path id="_패스_218" data-name="패스 218" class="cls-1" d="M125.47,39.69c-.01,1.51-1.24,2.72-2.75,2.71-1.51-.01-2.72-1.24-2.71-2.75,.01-1.51,1.24-2.72,2.75-2.71,.01,0,.03,0,.04,0,1.49,.04,2.67,1.26,2.67,2.75Z"/>
        <path id="_패스_220" data-name="패스 220" class="cls-1" d="M71.4,36.94c1.51,.04,2.7,1.29,2.66,2.79-.04,1.51-1.29,2.7-2.79,2.66-1.51-.04-2.7-1.29-2.66-2.79,0-.01,0-.03,0-.04,.07-1.48,1.31-2.65,2.79-2.62Z"/>
        <path id="_패스_222" data-name="패스 222" class="cls-1" d="M157.59,71.78c0,1.5-1.2,2.72-2.7,2.73-1.5,0-2.72-1.2-2.73-2.7,0-1.5,1.2-2.72,2.7-2.73,1.49,.01,2.7,1.21,2.73,2.7Z"/>
        <path id="_패스_223" data-name="패스 223" class="cls-1" d="M39.2,69.1c1.49,0,2.7,1.2,2.71,2.69s-1.2,2.7-2.69,2.71c-1.49,0-2.7-1.19-2.71-2.68,0-1.49,1.2-2.7,2.69-2.72Z"/>
        <path id="_패스_224" data-name="패스 224" class="cls-1" d="M106.14,33.21c.02,1.48-1.17,2.69-2.64,2.7-1.48,.02-2.69-1.17-2.7-2.64-.02-1.48,1.17-2.69,2.64-2.7,0,0,.01,0,.02,0,1.46,0,2.65,1.18,2.68,2.64Z"/>
        <path id="_패스_225" data-name="패스 225" class="cls-1" d="M90.64,35.91c-1.48,.01-2.68-1.17-2.69-2.65-.01-1.48,1.17-2.68,2.65-2.69,1.48-.01,2.68,1.17,2.69,2.65,0,0,0,.01,0,.02-.01,1.46-1.19,2.65-2.65,2.67Z"/>
        <path class="cls-1" d="M156.89,121.51c-.46-.55-1.14-.92-1.91-.95-.84-.03-1.6,.35-2.11,.95h4.02Z"/>
        <path class="cls-1" d="M41.18,121.51c-.49-.57-1.2-.93-2.01-.92-.78,.01-1.47,.37-1.94,.92h3.95Z"/>
        <path id="_패스_229" data-name="패스 229" class="cls-1" d="M161.28,88.48c1.43-.01,2.6,1.14,2.61,2.57,.01,1.43-1.14,2.6-2.57,2.61-1.43,.01-2.6-1.14-2.61-2.57-.03-1.41,1.09-2.58,2.51-2.61,.02,0,.04,0,.07,0Z"/>
        <path id="_패스_230" data-name="패스 230" class="cls-1" d="M35.38,91.11c-.02,1.43-1.2,2.57-2.63,2.55-1.43-.02-2.57-1.2-2.55-2.63,.02-1.43,1.2-2.57,2.63-2.55,1.41,0,2.56,1.15,2.55,2.57,0,.02,0,.04,0,.07Z"/>
        <path id="_패스_231" data-name="패스 231" class="cls-1" d="M161.28,101.33c1.43-.01,2.6,1.14,2.61,2.57,.01,1.43-1.14,2.6-2.57,2.61-1.43,.01-2.6-1.14-2.61-2.57h0c-.03-1.41,1.09-2.58,2.51-2.61,.02,0,.04,0,.07,0Z"/>
        <path id="_패스_232" data-name="패스 232" class="cls-1" d="M35.36,103.93c0,1.42-1.16,2.58-2.58,2.57-1.42,0-2.58-1.16-2.57-2.58,0-1.42,1.15-2.57,2.56-2.57,1.41-.02,2.58,1.11,2.59,2.53,0,.02,0,.04,0,.05Z"/>
        <path id="_패스_234" data-name="패스 234" class="cls-1" d="M77.77,35.8c-1.41,0-2.56-1.14-2.56-2.55s1.14-2.56,2.55-2.56,2.56,1.14,2.56,2.55h0c-.01,1.4-1.15,2.54-2.55,2.56Z"/>
        <path id="_패스_237" data-name="패스 237" class="cls-1" d="M118.87,33.24c0,1.41-1.14,2.56-2.55,2.56s-2.56-1.14-2.56-2.55c0-1.41,1.14-2.56,2.55-2.56,1.4,.01,2.54,1.15,2.56,2.55Z"/>
        <path id="_패스_238" data-name="패스 238" class="cls-1" d="M32.77,80.73c-1.39,0-2.51-1.14-2.5-2.53s1.14-2.51,2.53-2.5c1.39,0,2.51,1.14,2.5,2.53,0,0,0,.01,0,.02-.03,1.37-1.15,2.47-2.53,2.48Z"/>
        <path id="_패스_239" data-name="패스 239" class="cls-1" d="M161.31,75.71c1.39,0,2.51,1.14,2.5,2.53,0,1.39-1.14,2.51-2.53,2.5s-2.51-1.14-2.5-2.53c0,0,0-.01,0-.02,.04-1.37,1.15-2.47,2.53-2.48Z"/>
        <path id="_패스_240" data-name="패스 240" class="cls-1" d="M144.5,46.12c-.01,1.37-1.13,2.47-2.5,2.45-1.37-.01-2.47-1.13-2.45-2.5,.01-1.36,1.12-2.45,2.48-2.45,1.36,0,2.46,1.09,2.47,2.45,0,.02,0,.03,0,.05Z"/>
        <path id="_패스_241" data-name="패스 241" class="cls-1" d="M52.07,43.62c1.37,0,2.47,1.12,2.46,2.49,0,1.37-1.12,2.47-2.49,2.46-1.36,0-2.46-1.11-2.46-2.47-.01-1.36,1.08-2.47,2.43-2.48,.02,0,.04,0,.05,0Z"/>
        <path id="_패스_242" data-name="패스 242" class="cls-1" d="M148.47,54.97c-1.35,.01-2.46-1.07-2.47-2.42-.01-1.35,1.07-2.46,2.42-2.47,1.35-.01,2.46,1.07,2.47,2.42,0,0,0,.01,0,.02,.02,1.33-1.04,2.43-2.37,2.45-.02,0-.03,0-.05,0Z"/>
        <path id="_패스_243" data-name="패스 243" class="cls-1" d="M161.32,119.23c-1.35,.01-2.46-1.07-2.47-2.43-.01-1.35,1.07-2.46,2.43-2.47,1.35-.01,2.46,1.07,2.47,2.43,0,0,0,.01,0,.02,.02,1.33-1.04,2.43-2.38,2.45-.02,0-.03,0-.05,0Z"/>
        <path id="_패스_244" data-name="패스 244" class="cls-1" d="M32.78,119.23c-1.35,0-2.45-1.1-2.45-2.45,0-1.35,1.1-2.45,2.45-2.45,1.35,0,2.45,1.1,2.45,2.45,0,0,0,.01,0,.02,0,1.33-1.06,2.42-2.4,2.43-.02,0-.04,0-.06,0Z"/>
        <path id="_패스_245" data-name="패스 245" class="cls-1" d="M45.63,50.07c1.35,0,2.45,1.09,2.46,2.44s-1.09,2.45-2.44,2.46c-1.35,0-2.45-1.09-2.46-2.44v-.02c-.01-1.33,1.06-2.42,2.39-2.44,.02,0,.03,0,.05,0Z"/>
        <path id="_패스_246" data-name="패스 246" class="cls-1" d="M138.01,39.63c.02,1.33-1.04,2.43-2.38,2.46-1.33,.02-2.43-1.04-2.46-2.38-.02-1.33,1.04-2.43,2.38-2.46,.01,0,.03,0,.04,0,1.32,0,2.4,1.05,2.42,2.38Z"/>
        <path id="_패스_247" data-name="패스 247" class="cls-1" d="M58.45,42.08c-1.33-.02-2.4-1.12-2.38-2.46,.02-1.33,1.12-2.4,2.46-2.38,1.33,.02,2.4,1.12,2.38,2.46,0,.01,0,.03,0,.04-.04,1.32-1.13,2.37-2.45,2.34Z"/>
        <path id="_패스_249" data-name="패스 249" class="cls-1" d="M39.19,61.35c-1.33-.01-2.39-1.1-2.37-2.42,.01-1.33,1.1-2.39,2.42-2.37,1.32,.01,2.38,1.09,2.37,2.42-.02,1.32-1.1,2.39-2.43,2.38Z"/>
        <path id="_패스_250" data-name="패스 250" class="cls-1" d="M154.89,56.54c1.33,.01,2.39,1.1,2.38,2.42s-1.1,2.39-2.42,2.38c-1.32-.01-2.39-1.09-2.38-2.41,.02-1.32,1.1-2.39,2.42-2.39Z"/>
        <path id="_패스_253" data-name="패스 253" class="cls-1" d="M97.07,29.21c-1.32,.02-2.4-1.04-2.42-2.36-.02-1.32,1.04-2.4,2.36-2.42,1.31-.02,2.39,1.02,2.42,2.33,0,1.32-1.04,2.4-2.36,2.44Z"/>
        <path id="_패스_257" data-name="패스 257" class="cls-1" d="M84.19,24.52c1.27,0,2.3,1.03,2.3,2.3,0,1.27-1.03,2.3-2.3,2.3-1.27,0-2.3-1.03-2.3-2.3,0,0,0-.02,0-.03,0-1.25,1-2.27,2.26-2.27,.01,0,.03,0,.04,0Z"/>
        <path id="_패스_258" data-name="패스 258" class="cls-1" d="M109.87,24.52c1.27-.01,2.31,1.01,2.32,2.28,.01,1.27-1.01,2.31-2.28,2.32-1.27,.01-2.31-1.01-2.32-2.28,0,0,0-.01,0-.02-.02-1.25,.98-2.28,2.23-2.3,.02,0,.03,0,.05,0Z"/>
        <path id="_패스_259" data-name="패스 259" class="cls-1" d="M64.92,30.94c1.27,0,2.3,1.04,2.29,2.31,0,1.27-1.04,2.3-2.31,2.29s-2.3-1.04-2.29-2.31c0,0,0-.01,0-.02,0-1.25,1.01-2.27,2.26-2.27,.02,0,.03,0,.05,0Z"/>
        <path id="_패스_260" data-name="패스 260" class="cls-1" d="M170.02,97.48c.01,1.27-1.01,2.31-2.28,2.32-1.27,0-2.31-1.01-2.32-2.28-.01-1.27,1.01-2.31,2.28-2.32,0,0,.01,0,.02,0,1.25-.02,2.28,.98,2.3,2.23,0,.02,0,.03,0,.05Z"/>
        <path id="_패스_263" data-name="패스 263" class="cls-1" d="M131.47,33.25c0,1.27-1.04,2.3-2.31,2.29-1.27,0-2.3-1.04-2.29-2.31s1.04-2.3,2.31-2.29c0,0,.01,0,.02,0,1.25,0,2.27,1.01,2.27,2.26,0,.02,0,.03,0,.05Z"/>
        <path id="_패스_265" data-name="패스 265" class="cls-1" d="M163.57,65.38c0,1.26-1.03,2.27-2.28,2.27-1.26,0-2.27-1.03-2.27-2.28,0-1.26,1.03-2.27,2.28-2.27h0c1.24-.02,2.25,.98,2.27,2.21,0,.02,0,.05,0,.07Z"/>
        <path id="_패스_266" data-name="패스 266" class="cls-1" d="M28.63,97.52c-.01,1.26-1.04,2.27-2.29,2.26-1.26-.01-2.27-1.04-2.26-2.29,.01-1.26,1.04-2.27,2.29-2.26,1.24,0,2.25,.99,2.26,2.22,0,.02,0,.05,0,.07Z"/>
        <path id="_패스_268" data-name="패스 268" class="cls-1" d="M32.79,67.63c-1.25,0-2.26-1-2.27-2.25,0-1.25,1-2.26,2.25-2.27,1.25,0,2.26,1,2.27,2.25,0,.01,0,.03,0,.04,0,1.24-1.02,2.23-2.25,2.23Z"/>
        <path id="_패스_269" data-name="패스 269" class="cls-1" d="M167.84,82.39c1.25,.07,2.2,1.13,2.14,2.38-.07,1.25-1.13,2.2-2.38,2.14-1.25-.07-2.2-1.13-2.14-2.38,0-.01,0-.02,0-.04,.08-1.23,1.14-2.17,2.38-2.1Z"/>
        <path id="_패스_270" data-name="패스 270" class="cls-1" d="M28.6,84.67c-.01,1.24-1.03,2.24-2.27,2.22-1.24-.01-2.24-1.03-2.22-2.27,.01-1.24,1.03-2.24,2.27-2.22,1.24,.02,2.23,1.03,2.22,2.27Z"/>
        <path id="_패스_271" data-name="패스 271" class="cls-1" d="M169.97,110.37c-.01,1.24-1.03,2.24-2.27,2.23-1.24-.01-2.24-1.03-2.23-2.27,.01-1.24,1.03-2.24,2.27-2.23,1.24,.02,2.23,1.03,2.23,2.27Z"/>
        <path id="_패스_273" data-name="패스 273" class="cls-1" d="M26.33,112.58c-1.23-.01-2.22-1.03-2.21-2.26s1.03-2.22,2.26-2.21c1.23,.01,2.21,1.01,2.21,2.24-.02,1.23-1.03,2.22-2.26,2.22Z"/>
        <path id="_패스_280" data-name="패스 280" class="cls-1" d="M122.73,28.95c-1.18,0-2.13-.97-2.12-2.15,0-1.18,.97-2.13,2.15-2.12,1.18,0,2.13,.97,2.12,2.15,0,0,0,.01,0,.02,0,1.16-.95,2.1-2.11,2.1-.01,0-.03,0-.04,0Z"/>
        <path id="_패스_281" data-name="패스 281" class="cls-1" d="M71.33,24.68c1.18,0,2.14,.94,2.15,2.12,0,1.18-.94,2.14-2.12,2.15-1.18,0-2.14-.94-2.15-2.12v-.02c-.01-1.16,.92-2.12,2.08-2.13,.01,0,.03,0,.04,0Z"/>
        <path id="_패스_282" data-name="패스 282" class="cls-1" d="M169.82,71.76c.02,1.16-.9,2.12-2.06,2.14-1.16,.02-2.12-.9-2.14-2.06-.02-1.16,.9-2.12,2.06-2.14,0,0,.02,0,.03,0,1.15-.01,2.09,.91,2.11,2.05,0,0,0,0,0,0Z"/>
        <path id="_패스_283" data-name="패스 283" class="cls-1" d="M28.45,71.78c.01,1.16-.92,2.11-2.08,2.12-1.16,.01-2.11-.92-2.12-2.08-.01-1.16,.92-2.11,2.08-2.12,0,0,.02,0,.03,0,1.15,0,2.09,.92,2.09,2.06h0Z"/>
        <path id="_패스_286" data-name="패스 286" class="cls-1" d="M103.5,18.35c1.12,.02,2.02,.94,2.01,2.06s-.94,2.02-2.06,2.01c-1.12-.02-2.01-.93-2.01-2.04,.02-1.12,.94-2.02,2.06-2.03Z"/>
        <path id="_패스_287" data-name="패스 287" class="cls-1" d="M148.46,37.63c1.12,0,2.03,.92,2.03,2.04,0,1.12-.92,2.03-2.04,2.03-1.12,0-2.02-.91-2.03-2.02,.01-1.12,.92-2.03,2.04-2.05Z"/>
        <path id="_패스_288" data-name="패스 288" class="cls-1" d="M90.61,18.35c1.12,0,2.04,.91,2.04,2.03,0,1.12-.91,2.04-2.03,2.04-1.12,0-2.03-.89-2.04-2.01,0-1.12,.91-2.04,2.03-2.06Z"/>
        <path id="_패스_289" data-name="패스 289" class="cls-1" d="M41.2,46.12c-.01,1.1-.92,1.98-2.02,1.97-1.1-.01-1.98-.92-1.97-2.02,.01-1.1,.92-1.98,2.02-1.97,0,0,.01,0,.02,0,1.09,.01,1.96,.91,1.95,2,0,0,0,.01,0,.02Z"/>
        <path id="_패스_290" data-name="패스 290" class="cls-1" d="M156.87,46.08c0,1.1-.88,2-1.98,2-1.1,0-2-.88-2-1.98,0-1.1,.88-2,1.98-2,0,0,.01,0,.02,0,1.09,0,1.98,.88,1.98,1.97v.02Z"/>
        <path id="_패스_291" data-name="패스 291" class="cls-1" d="M47.63,39.66c0,1.1-.88,2-1.98,2-1.1,0-2-.88-2-1.98s.88-2,1.98-2c0,0,.01,0,.02,0,1.09,0,1.98,.88,1.98,1.97v.02Z"/>
        <path id="_패스_293" data-name="패스 293" class="cls-1" d="M142.02,35.18c-1.07,0-1.94-.87-1.94-1.94,0-1.07,.87-1.94,1.94-1.94,1.07,0,1.94,.87,1.94,1.94,0,0,0,.01,0,.02,0,1.06-.86,1.92-1.92,1.92,0,0-.02,0-.03,0Z"/>
        <path id="_패스_294" data-name="패스 294" class="cls-1" d="M54,33.24c0,1.07-.86,1.94-1.93,1.95-1.07,0-1.94-.86-1.95-1.93s.86-1.94,1.93-1.95c0,0,.01,0,.02,0,1.06,0,1.92,.85,1.93,1.91,0,0,0,.02,0,.03Z"/>
        <path id="_패스_295" data-name="패스 295" class="cls-1" d="M163.24,52.51c0,1.07-.86,1.94-1.93,1.95s-1.94-.86-1.95-1.93c0-1.07,.86-1.94,1.93-1.95,0,0,.01,0,.02,0,1.06,0,1.92,.85,1.93,1.9v.02Z"/>
        <path id="_패스_296" data-name="패스 296" class="cls-1" d="M21.87,103.93c0,1.07-.88,1.94-1.95,1.93-1.07,0-1.94-.88-1.93-1.95,0-1.07,.88-1.94,1.95-1.93,0,0,.01,0,.02,0,1.06,0,1.91,.86,1.91,1.92,0,0,0,.02,0,.03Z"/>
        <path id="_패스_297" data-name="패스 297" class="cls-1" d="M174.16,93.01c-1.07,0-1.94-.86-1.95-1.93,0-1.07,.86-1.94,1.93-1.95,1.07,0,1.94,.86,1.95,1.93,0,0,0,.01,0,.02,0,1.06-.85,1.92-1.91,1.93,0,0-.02,0-.03,0Z"/>
        <path id="_패스_298" data-name="패스 298" class="cls-1" d="M19.92,89.13c1.07,0,1.94,.86,1.94,1.94,0,1.07-.86,1.94-1.94,1.94s-1.94-.86-1.94-1.94c0,0,0-.01,0-.02,0-1.06,.85-1.92,1.91-1.93,0,0,.02,0,.03,0Z"/>
        <path id="_패스_299" data-name="패스 299" class="cls-1" d="M174.12,101.99c1.07-.01,1.95,.84,1.97,1.91,.02,1.07-.84,1.95-1.91,1.97-1.07,.01-1.95-.84-1.97-1.91,0,0,0-.01,0-.02-.02-1.06,.83-1.93,1.89-1.95,0,0,.02,0,.03,0Z"/>
        <path id="_패스_301" data-name="패스 301" class="cls-1" d="M34.71,52.58c-.04,1.06-.93,1.9-1.99,1.86s-1.9-.93-1.86-1.99c.04-1.06,.91-1.89,1.97-1.86,1.07,.03,1.91,.92,1.88,1.99Z"/>
        <path id="_패스_302" data-name="패스 302" class="cls-1" d="M116.3,18.46c1.06,0,1.93,.85,1.94,1.91s-.85,1.93-1.91,1.94c-1.06,0-1.92-.84-1.94-1.89-.01-1.07,.84-1.94,1.91-1.96Z"/>
        <path id="_패스_303" data-name="패스 303" class="cls-1" d="M79.69,20.36c.02,1.06-.83,1.94-1.89,1.96-1.06,.02-1.94-.83-1.96-1.89-.02-1.05,.82-1.93,1.87-1.96,1.07-.02,1.95,.83,1.98,1.89Z"/>
        <path id="_패스_308" data-name="패스 308" class="cls-1" d="M174.15,80.1c-1.04,0-1.88-.84-1.88-1.88s.84-1.88,1.88-1.88c1.03,0,1.86,.83,1.88,1.86,0,1.04-.84,1.88-1.88,1.9Z"/>
        <path id="_패스_311" data-name="패스 311" class="cls-1" d="M58.47,28.65c-1.01,0-1.82-.84-1.81-1.85s.84-1.82,1.85-1.81c1.01,0,1.82,.84,1.81,1.85,0,1-.8,1.81-1.8,1.82-.01,0-.03,0-.04,0Z"/>
        <path id="_패스_312" data-name="패스 312" class="cls-1" d="M137.43,26.79c.02,1.01-.79,1.84-1.8,1.86-1.01,.02-1.84-.79-1.86-1.8-.02-1.01,.79-1.84,1.8-1.86h0c1-.03,1.83,.76,1.86,1.76,0,.01,0,.03,0,.04Z"/>
        <path id="_패스_313" data-name="패스 313" class="cls-1" d="M19.95,80.05c-1.01,0-1.84-.8-1.85-1.81s.8-1.84,1.81-1.85c1.01,0,1.84,.8,1.85,1.81h0c.02,1-.77,1.83-1.77,1.85-.01,0-.03,0-.04,0Z"/>
        <path id="_패스_318" data-name="패스 318" class="cls-1" d="M21.73,116.78c0,.99-.81,1.8-1.8,1.8-.99,0-1.8-.81-1.8-1.8,0-.99,.81-1.8,1.8-1.8,.01,0,.03,0,.04,0,.98,0,1.76,.8,1.76,1.78,0,0,0,.02,0,.02Z"/>
        <path id="_패스_319" data-name="패스 319" class="cls-1" d="M167.73,60.74c-.99,0-1.8-.8-1.81-1.79,0-.99,.8-1.8,1.79-1.81,.99,0,1.8,.8,1.81,1.79,0,.01,0,.03,0,.04,0,.97-.79,1.76-1.76,1.77,0,0-.02,0-.03,0Z"/>
        <path id="_패스_320" data-name="패스 320" class="cls-1" d="M28.15,58.94c0,.99-.8,1.8-1.79,1.81-.99,0-1.8-.8-1.81-1.79,0-.99,.8-1.8,1.79-1.81,.01,0,.03,0,.04,0,.97,0,1.76,.79,1.77,1.76,0,0,0,.02,0,.03Z"/>
        <path id="_패스_321" data-name="패스 321" class="cls-1" d="M175.95,116.77c0,.99-.81,1.8-1.8,1.8s-1.8-.81-1.8-1.8c0-.99,.81-1.8,1.8-1.8,.01,0,.03,0,.04,0,.97,0,1.76,.79,1.76,1.77,0,.01,0,.02,0,.03Z"/>
        <path id="_패스_326" data-name="패스 326" class="cls-1" d="M129.2,18.69c.94,.02,1.69,.79,1.67,1.73-.02,.94-.79,1.69-1.73,1.67-.94-.02-1.69-.79-1.67-1.73,0,0,0-.02,0-.02,.04-.93,.8-1.65,1.73-1.65Z"/>
        <path id="_패스_329" data-name="패스 329" class="cls-1" d="M98.74,13.99c-.01,.94-.78,1.69-1.72,1.68-.94-.01-1.69-.78-1.68-1.72,.01-.94,.78-1.69,1.72-1.68,0,0,.02,0,.02,0,.93,.04,1.66,.8,1.65,1.72Z"/>
        <path id="_패스_330" data-name="패스 330" class="cls-1" d="M21.55,65.34c.01,.9-.7,1.63-1.59,1.65s-1.63-.7-1.65-1.59c-.01-.89,.7-1.63,1.59-1.65,.88-.03,1.62,.66,1.65,1.54,0,.02,0,.04,0,.06Z"/>
        <path id="_패스_331" data-name="패스 331" class="cls-1" d="M64.95,18.74c.91,.02,1.63,.78,1.61,1.69s-.78,1.63-1.69,1.61c-.91-.02-1.63-.78-1.61-1.69,0-.01,0-.03,0-.04,.03-.89,.77-1.6,1.66-1.57,0,0,.01,0,.02,0Z"/>
        <path id="_패스_332" data-name="패스 332" class="cls-1" d="M84.2,12.35c.9,0,1.62,.73,1.61,1.63,0,.9-.73,1.62-1.63,1.61-.9,0-1.62-.73-1.61-1.63h0c-.01-.88,.69-1.6,1.57-1.62,.02,0,.04,0,.06,0Z"/>
        <path id="_패스_333" data-name="패스 333" class="cls-1" d="M111.51,13.94c.01,.9-.7,1.63-1.6,1.64-.9,.01-1.63-.7-1.64-1.6-.01-.89,.7-1.63,1.59-1.64,.88-.03,1.62,.66,1.65,1.54,0,.02,0,.04,0,.06Z"/>
        <path id="_패스_334" data-name="패스 334" class="cls-1" d="M175.77,65.34c.01,.9-.7,1.63-1.6,1.64-.9,.01-1.63-.7-1.64-1.6-.01-.89,.7-1.63,1.59-1.64,.88-.03,1.62,.66,1.65,1.54,0,.02,0,.04,0,.06Z"/>
        <path id="_패스_335" data-name="패스 335" class="cls-1" d="M180.58,99.1c-.88,0-1.6-.72-1.6-1.6,0-.88,.72-1.6,1.6-1.6,.88,0,1.6,.72,1.6,1.6,0,0,0,.02,0,.03-.02,.87-.73,1.56-1.6,1.57Z"/>
        <path id="_패스_336" data-name="패스 336" class="cls-1" d="M13.53,95.9c.88,.02,1.59,.75,1.57,1.63-.02,.88-.75,1.59-1.63,1.57-.88-.02-1.59-.75-1.57-1.63,0-.01,0-.02,0-.03,.04-.87,.76-1.54,1.63-1.54Z"/>
        <path id="_패스_339" data-name="패스 339" class="cls-1" d="M179,84.59c.03-.87,.77-1.55,1.64-1.52s1.55,.77,1.52,1.64c-.03,.86-.76,1.54-1.62,1.52-.87-.05-1.55-.77-1.54-1.64Z"/>
        <path id="_패스_340" data-name="패스 340" class="cls-1" d="M180.6,111.89c-.85,.01-1.55-.66-1.56-1.51s.66-1.55,1.51-1.56c.85-.01,1.55,.66,1.56,1.51,0,0,0,.01,0,.02,0,.84-.67,1.52-1.51,1.54Z"/>
        <path id="_패스_341" data-name="패스 341" class="cls-1" d="M15.04,84.65c0,.85-.7,1.54-1.55,1.53-.85,0-1.54-.7-1.53-1.55s.7-1.54,1.55-1.53c0,0,.01,0,.02,0,.84,.02,1.51,.71,1.51,1.55Z"/>
        <path id="_패스_342" data-name="패스 342" class="cls-1" d="M13.47,111.84c-.82-.02-1.47-.7-1.45-1.52s.7-1.47,1.52-1.45c.82,.02,1.47,.7,1.45,1.52,0,.01,0,.03,0,.04-.02,.8-.7,1.44-1.5,1.41,0,0-.01,0-.02,0Z"/>
        <path id="_패스_346" data-name="패스 346" class="cls-1" d="M154.86,31.76c.82,0,1.49,.65,1.5,1.47,0,.82-.65,1.49-1.47,1.5-.82,0-1.49-.65-1.5-1.47,0-.01,0-.03,0-.04,0-.8,.64-1.46,1.45-1.46,0,0,.02,0,.02,0Z"/>
        <path id="_패스_347" data-name="패스 347" class="cls-1" d="M162.75,39.63c.02,.8-.61,1.47-1.42,1.5s-1.47-.61-1.5-1.42c-.02-.8,.6-1.46,1.4-1.49,.8-.04,1.47,.57,1.52,1.37,0,.02,0,.03,0,.05Z"/>
        <path id="_패스_348" data-name="패스 348" class="cls-1" d="M34.24,39.7c-.02,.8-.69,1.44-1.49,1.42-.8-.02-1.44-.69-1.42-1.49,.02-.8,.67-1.43,1.47-1.42,.8,0,1.44,.65,1.44,1.44,0,.02,0,.03,0,.05Z"/>
        <path id="_패스_351" data-name="패스 351" class="cls-1" d="M40.66,33.26c-.01,.81-.67,1.45-1.48,1.44-.81-.01-1.45-.67-1.44-1.48,.01-.8,.66-1.44,1.46-1.44,.8,0,1.45,.63,1.46,1.43,0,.02,0,.03,0,.05Z"/>
        <path id="_패스_352" data-name="패스 352" class="cls-1" d="M149.88,26.85c-.02,.79-.68,1.42-1.48,1.4-.79-.02-1.42-.68-1.4-1.48s.68-1.42,1.48-1.4c0,0,.01,0,.02,0,.78,.04,1.39,.69,1.38,1.47Z"/>
        <path id="_패스_353" data-name="패스 353" class="cls-1" d="M72.77,13.99c-.02,.79-.67,1.42-1.47,1.41-.79-.02-1.42-.67-1.41-1.47,.02-.79,.67-1.42,1.47-1.41,0,0,.01,0,.02,0,.78,.04,1.39,.68,1.39,1.47Z"/>
        <path id="_패스_354" data-name="패스 354" class="cls-1" d="M122.71,15.4c-.79-.02-1.42-.68-1.4-1.47,.02-.79,.68-1.42,1.47-1.4s1.42,.68,1.4,1.47c0,0,0,.01,0,.02-.04,.78-.69,1.39-1.47,1.38Z"/>
        <path id="_패스_355" data-name="패스 355" class="cls-1" d="M47.07,26.79c.01,.79-.62,1.45-1.41,1.46s-1.45-.62-1.46-1.41c-.01-.79,.62-1.45,1.41-1.46,0,0,.01,0,.02,0,.78,.01,1.41,.63,1.44,1.41Z"/>
        <path id="_패스_356" data-name="패스 356" class="cls-1" d="M180.57,70.39c.78,0,1.41,.62,1.41,1.4,0,.78-.62,1.41-1.4,1.41-.78,0-1.41-.62-1.41-1.4,0-.01,0-.03,0-.04,.04-.75,.65-1.35,1.4-1.37Z"/>
        <path id="_패스_357" data-name="패스 357" class="cls-1" d="M167.69,44.69c.78-.02,1.42,.59,1.44,1.37,.02,.78-.59,1.42-1.37,1.44-.78,.02-1.42-.59-1.44-1.37,0-.01,0-.03,0-.04,.02-.75,.62-1.36,1.37-1.4Z"/>
        <path id="_패스_358" data-name="패스 358" class="cls-1" d="M27.76,46.09c0,.78-.62,1.41-1.4,1.41s-1.41-.62-1.41-1.4c0-.78,.62-1.41,1.4-1.41,.01,0,.03,0,.04,0,.75,.04,1.35,.65,1.37,1.4Z"/>
        <path id="_패스_359" data-name="패스 359" class="cls-1" d="M13.54,70.45c.74,.02,1.33,.64,1.31,1.38-.02,.74-.64,1.33-1.38,1.31-.74-.02-1.33-.64-1.31-1.38,0-.01,0-.03,0-.04,.03-.73,.65-1.3,1.38-1.27Z"/>
        <path id="_패스_366" data-name="패스 366" class="cls-1" d="M90.62,6.25c.71,0,1.28,.58,1.28,1.28,0,.71-.58,1.28-1.28,1.28-.71,0-1.28-.58-1.28-1.28,0,0,0-.01,0-.02,.02-.7,.59-1.26,1.28-1.26Z"/>
        <path id="_패스_367" data-name="패스 367" class="cls-1" d="M104.75,7.54c0,.71-.57,1.28-1.28,1.28-.71,0-1.28-.57-1.28-1.28s.57-1.28,1.28-1.28c0,0,.01,0,.02,0,.7,.01,1.26,.58,1.26,1.28Z"/>
        <path id="_패스_368" data-name="패스 368" class="cls-1" d="M143.33,20.43c-.02,.72-.62,1.29-1.34,1.27-.72-.02-1.29-.62-1.27-1.34,.02-.71,.61-1.28,1.32-1.27,.71,0,1.28,.56,1.29,1.27,0,.02,0,.05,0,.07Z"/>
        <path id="_패스_369" data-name="패스 369" class="cls-1" d="M52.07,21.69c-.72,0-1.31-.58-1.31-1.3,0-.72,.58-1.31,1.3-1.31,.71,0,1.29,.56,1.31,1.28,.03,.7-.51,1.3-1.22,1.33-.03,0-.06,0-.08,0Z"/>
        <path id="_패스_370" data-name="패스 370" class="cls-1" d="M21.21,52.55c-.02,.71-.6,1.27-1.31,1.25-.71-.02-1.27-.6-1.25-1.31,.02-.71,.6-1.27,1.31-1.25,0,0,.01,0,.02,0,.7,.03,1.24,.61,1.23,1.31Z"/>
        <path id="_패스_371" data-name="패스 371" class="cls-1" d="M175.43,52.51c0,.71-.56,1.28-1.27,1.29-.71,0-1.29-.56-1.29-1.27,0-.71,.56-1.28,1.27-1.29,0,0,.01,0,.02,0,.7,.01,1.26,.57,1.27,1.27Z"/>
        <path id="_패스_378" data-name="패스 378" class="cls-1" d="M186.96,92.26c-.65-.02-1.17-.57-1.15-1.22s.57-1.17,1.22-1.15c.65,.02,1.17,.57,1.15,1.22,0,.01,0,.03,0,.04-.03,.64-.58,1.14-1.22,1.11,0,0,0,0,0,0Z"/>
        <path id="_패스_380" data-name="패스 380" class="cls-1" d="M135.6,15.11c-.63,0-1.14-.5-1.15-1.13s.5-1.14,1.13-1.15c.63,0,1.14,.5,1.15,1.13,0,.01,0,.03,0,.04,0,.62-.51,1.11-1.13,1.11Z"/>
        <path id="_패스_381" data-name="패스 381" class="cls-1" d="M78.9,7.55c0,.63-.52,1.14-1.15,1.13s-1.14-.52-1.13-1.15c0-.63,.52-1.14,1.15-1.13,.01,0,.03,0,.04,0,.62,.02,1.11,.53,1.09,1.15Z"/>
        <path id="_패스_382" data-name="패스 382" class="cls-1" d="M116.32,8.68c-.63,0-1.14-.51-1.14-1.14,0-.63,.51-1.14,1.14-1.14,.63,0,1.14,.51,1.14,1.14,0,.01,0,.03,0,.04-.01,.62-.52,1.11-1.14,1.1Z"/>
        <path id="_패스_385" data-name="패스 385" class="cls-1" d="M7.08,89.93c.63,0,1.14,.51,1.14,1.14,0,.63-.51,1.14-1.14,1.14-.63,0-1.14-.51-1.14-1.14,0-.01,0-.03,0-.04,.01-.62,.52-1.11,1.14-1.1Z"/>
        <path id="_패스_386" data-name="패스 386" class="cls-1" d="M7.1,102.79c.63,.01,1.13,.53,1.12,1.16-.01,.63-.53,1.13-1.16,1.12-.63-.01-1.13-.53-1.12-1.16,0-.01,0-.02,0-.04,.02-.62,.54-1.1,1.16-1.08Z"/>
        <path id="_패스_387" data-name="패스 387" class="cls-1" d="M188.14,103.96c-.02,.63-.54,1.13-1.17,1.11-.63-.02-1.13-.54-1.11-1.17,.02-.63,.54-1.13,1.17-1.11,.01,0,.03,0,.04,0,.62,.03,1.1,.55,1.07,1.17Z"/>
        <path id="_패스_389" data-name="패스 389" class="cls-1" d="M58.42,15.1c-.63-.03-1.11-.57-1.08-1.2s.57-1.11,1.2-1.08c.63,.03,1.11,.57,1.08,1.2,0,.01,0,.03,0,.04-.05,.62-.58,1.08-1.2,1.04Z"/>
        <path id="_패스_390" data-name="패스 390" class="cls-1" d="M181.69,58.95c-.02,.62-.52,1.11-1.13,1.11-.62-.02-1.1-.53-1.08-1.15,0,0,0,0,0,0,0-.59,.49-1.07,1.08-1.07,0,0,0,0,0,0,.62,0,1.12,.48,1.13,1.1,0,0,0,0,0,0Z"/>
        <path id="_패스_391" data-name="패스 391" class="cls-1" d="M7.04,79.29c-.59-.03-1.05-.53-1.03-1.12,.04-.59,.54-1.04,1.13-1h.01c.57,.03,1.01,.51,.98,1.07,0,.59-.49,1.06-1.08,1.05,0,0-.01,0-.02,0Z"/>
        <path id="_패스_392" data-name="패스 392" class="cls-1" d="M13.48,60.01c-.59-.02-1.05-.52-1.04-1.11,.03-.59,.53-1.04,1.11-1.02,0,0,0,0,.01,0,.57,.02,1.02,.49,1,1.06,0,.59-.48,1.06-1.06,1.06,0,0-.01,0-.02,0Z"/>
        <path id="_패스_393" data-name="패스 393" class="cls-1" d="M188.07,78.26c-.03,.59-.53,1.05-1.12,1.03-.59-.04-1.04-.54-1-1.13,0,0,0,0,0,0,.02-.57,.5-1.01,1.07-.98,.59,0,1.06,.49,1.05,1.08v.02Z"/>
        <path id="_패스_396" data-name="패스 396" class="cls-1" d="M188,116.8c.02,.52-.39,.95-.91,.97-.04,0-.09,0-.13,0-.54-.01-.98-.46-.97-1,.01-.54,.46-.98,1-.97,.64,0,.95,.38,1,1.01Z"/>
        <path id="_패스_397" data-name="패스 397" class="cls-1" d="M7.04,115.78c.63,.04,1.02,.34,1.03,.98,0,.54-.43,.99-.98,1-.52,0-.96-.4-.99-.92-.06-.52,.31-.99,.83-1.05,.04,0,.08,0,.12,0Z"/>
        <path id="_패스_401" data-name="패스 401" class="cls-1" d="M65.12,6.51c.23,.36,.62,.7,.66,1.08,.06,.41-.22,.78-.63,.84-.1,.01-.2,0-.29-.02-.39-.14-.69-.46-.8-.87,0-.34,.43-.69,.68-1.04h.38Z"/>
        <path id="_패스_402" data-name="패스 402" class="cls-1" d="M128.94,8.57c-.23-.36-.61-.71-.64-1.09-.05-.41,.24-.78,.64-.83,.1-.01,.2,0,.29,.02,.39,.14,.69,.47,.79,.88,0,.34-.44,.69-.7,1.03l-.38-.02Z"/>
        <path id="_패스_406" data-name="패스 406" class="cls-1" d="M32.98,27.77c-.73-.17-1.11-.47-.99-.98,.13-.36,.42-.65,.79-.77,.35-.09,.71,.12,.8,.47,.03,.11,.03,.23,0,.35-.06,.33-.39,.62-.6,.93Z"/>
        <path id="_패스_407" data-name="패스 407" class="cls-1" d="M187.2,66.33c-.73-.17-1.11-.46-.99-.98,.13-.36,.42-.65,.79-.77,.35-.09,.71,.12,.8,.47,.03,.11,.03,.23,0,.35-.06,.33-.39,.62-.6,.93Z"/>
        <path id="_패스_408" data-name="패스 408" class="cls-1" d="M168.68,33.04c-.17,.73-.46,1.11-.98,.99-.36-.13-.65-.42-.77-.79-.09-.35,.12-.71,.47-.8,.11-.03,.23-.03,.35,0,.33,.06,.62,.39,.93,.6Z"/>
        <path id="_패스_409" data-name="패스 409" class="cls-1" d="M27.32,33.42c-.33,.22-.66,.61-.98,.59-.37-.11-.66-.39-.77-.76-.1-.35,.11-.71,.46-.81,.11-.03,.23-.03,.34,0,.34,.05,.63,.38,.94,.59v.39Z"/>
        <path id="_패스_410" data-name="패스 410" class="cls-1" d="M97.24,2.07c-.72-.17-1.11-.47-.98-.98,.13-.36,.42-.65,.79-.76,.35-.09,.71,.12,.8,.47,.03,.11,.03,.23,0,.35-.07,.33-.4,.62-.61,.93Z"/>
        <path id="_패스_411" data-name="패스 411" class="cls-1" d="M161.09,27.77c-.21-.31-.53-.6-.59-.94-.09-.53,.27-.84,.82-.84s.89,.35,.78,.87c-.07,.33-.41,.61-.63,.91h-.37Z"/>
        <path id="_패스_412" data-name="패스 412" class="cls-1" d="M39.21,19.28c.37,.51,.79,.84,.74,1.08-.06,.31-.5,.55-.77,.82-.25-.27-.67-.52-.7-.8s.36-.58,.73-1.09Z"/>
        <path id="_패스_413" data-name="패스 413" class="cls-1" d="M174.18,38.55c.35,.52,.76,.86,.7,1.1-.07,.31-.51,.53-.79,.8-.24-.28-.66-.54-.67-.83s.39-.57,.77-1.07Z"/>
        <path id="_패스_414" data-name="패스 414" class="cls-1" d="M109.93,0c.34,.52,.75,.87,.69,1.11-.07,.31-.52,.53-.8,.79-.24-.28-.65-.55-.67-.83s.39-.57,.78-1.06Z"/>
        <path id="_패스_415" data-name="패스 415" class="cls-1" d="M19.91,38.55c.37,.5,.8,.83,.75,1.07-.06,.31-.49,.55-.76,.83-.25-.26-.68-.51-.71-.8s.36-.58,.72-1.1Z"/>
        <path id="_패스_416" data-name="패스 416" class="cls-1" d="M7.13,66.48c-.39-.49-.82-.81-.78-1.05,.05-.31,.48-.57,.74-.84,.26,.26,.69,.49,.73,.78s-.34,.6-.69,1.12Z"/>
        <path id="_패스_417" data-name="패스 417" class="cls-1" d="M85.3,1.16c-.52,.34-.87,.74-1.11,.68-.31-.08-.53-.52-.78-.81,.28-.24,.55-.65,.84-.66s.57,.4,1.06,.78Z"/>
        <path id="_패스_418" data-name="패스 418" class="cls-1" d="M154.86,21.5c-.36-.51-.77-.85-.72-1.09,.07-.31,.51-.54,.78-.8,.24,.27,.66,.53,.68,.82s-.38,.57-.75,1.07Z"/>
        <path id="_패스_419" data-name="패스 419" class="cls-1" d="M.66,96.47c.33,.51,.68,.81,.64,1.05-.11,.31-.38,.55-.7,.63-.18,.03-.59-.4-.6-.63,0-.27,.32-.54,.66-1.05Z"/>
        <path id="_패스_422" data-name="패스 422" class="cls-1" d="M193.37,96.47c.36,.49,.73,.77,.7,1.01-.09,.32-.34,.57-.66,.67-.18,.04-.62-.36-.64-.59-.02-.27,.29-.57,.59-1.09Z"/>
        <path id="_패스_425" data-name="패스 425" class="cls-1" d="M148.48,12.93c.32,.52,.64,.8,.62,1.07-.01,.23-.44,.64-.62,.61-.32-.09-.57-.33-.68-.65-.03-.24,.33-.53,.68-1.03Z"/>
        <path id="_패스_427" data-name="패스 427" class="cls-1" d="M45.6,15c-.32-.52-.64-.81-.62-1.07,.02-.23,.44-.64,.62-.61,.32,.09,.57,.33,.67,.65,.03,.24-.33,.53-.67,1.03Z"/>
        <path id="_패스_431" data-name="패스 431" class="cls-1" d="M181.5,46.09c-.44,.3-.7,.6-.95,.59-.21,0-.6-.42-.56-.57,.1-.29,.33-.52,.62-.62,.19-.04,.46,.29,.89,.59Z"/>
        <path id="_패스_434" data-name="패스 434" class="cls-1" d="M1.57,110.38c-.45,.28-.72,.58-.96,.56-.21-.01-.59-.44-.55-.59,.11-.29,.35-.51,.65-.6,.19-.03,.45,.31,.86,.63Z"/>
        <path id="_패스_435" data-name="패스 435" class="cls-1" d="M14.43,46.09c-.44,.3-.7,.6-.94,.6-.21,0-.6-.42-.57-.56,.1-.29,.33-.52,.62-.62,.19-.04,.46,.28,.89,.59Z"/>
        <path id="_패스_436" data-name="패스 436" class="cls-1" d="M193.42,109.43c.3,.44,.61,.69,.6,.94,0,.21-.37,.41-.57,.61-.22-.22-.56-.41-.61-.66-.04-.19,.29-.46,.59-.9Z"/>
        <path id="_패스_437" data-name="패스 437" class="cls-1" d="M194.35,84.67c-.45,.29-.71,.58-.96,.57-.21-.01-.59-.44-.55-.58,.11-.29,.34-.51,.64-.6,.19-.03,.45,.3,.87,.61Z"/>
        <path id="_패스_438" data-name="패스 438" class="cls-1" d="M1.57,84.67c-.45,.29-.71,.58-.96,.57-.21-.01-.59-.44-.55-.58,.11-.29,.34-.51,.64-.6,.19-.03,.45,.3,.87,.61Z"/>
        <path id="_패스_443" data-name="패스 443" class="cls-1" d="M142.05,6.77c.23,.37,.47,.59,.47,.8,0,.17-.36,.49-.47,.46-.24-.09-.43-.28-.51-.53-.03-.16,.24-.37,.51-.73Z"/>
        <path id="_패스_445" data-name="패스 445" class="cls-1" d="M52.08,6.77c.23,.37,.48,.59,.47,.8,0,.17-.36,.5-.47,.46-.24-.09-.43-.28-.51-.53-.03-.16,.25-.37,.51-.74Z"/>
        <path id="_패스_446" data-name="패스 446" class="cls-1" d="M194.19,71.85c-.38,.22-.6,.46-.81,.44-.17-.01-.48-.38-.44-.49,.1-.24,.3-.42,.55-.49,.15-.03,.36,.26,.71,.54Z"/>
        <path id="_패스_447" data-name="패스 447" class="cls-1" d="M122.77,.34c.23,.37,.48,.59,.47,.8,0,.17-.36,.5-.47,.46-.24-.09-.43-.28-.51-.53-.03-.16,.24-.37,.51-.74Z"/>
        <path id="_패스_448" data-name="패스 448" class="cls-1" d="M71.29,1.83c-.22-.32-.49-.55-.45-.7,.05-.21,.34-.36,.52-.54,.16,.2,.43,.38,.46,.6,.02,.16-.28,.35-.53,.64Z"/>
      </g>
    </g>
  </g>
</svg>