<svg xmlns="http://www.w3.org/2000/svg" height="32" viewBox="0 0 170 48.716">
  <g transform="translate(-336.329 -131)">
    <g transform="translate(336.329 131)">
      <path 
        d="M228.594,209.427c-.217-6.976-13.767-7.69-13.767-7.69.217-5.054-2.76-5.953-6.015-5.953s-6.232.9-6.015,5.953c0,0-13.55.713-13.767,7.69s1.674,6.449,9.364,6.449H219.23C226.919,215.876,228.811,216.4,228.594,209.427Z"
        transform="translate(-189.013 -195.784)" fill="#fff"></path>
      <path 
        d="M230.244,321.275c-.045-4.31-5.227-3.907-5.227-3.907H196.782s-5.182-.4-5.227,3.907.228,15.643,7.832,19.906A25.414,25.414,0,0,0,210.9,344.5a25.413,25.413,0,0,0,11.512-3.323C230.016,336.919,230.289,325.585,230.244,321.275Z"
        transform="translate(-191.101 -295.788)" fill="#fff"></path>
      <g transform="translate(6.592 25.606)">
        <path 
          d="M238.524,340.763a1.636,1.636,0,0,0-1.491-.657,13.934,13.934,0,0,0-1.84.08,10.492,10.492,0,0,0-7.161,3.638,7.592,7.592,0,0,0-1.8,5.777c.661,4.387,6.209,6.064,9,6.161s3.258-.71,3.677-1.29S239.024,341.618,238.524,340.763Zm-3.29,10.934s-5.08.032-5.258-3.387,4.258-4.548,5.258-4.548Z"
          transform="translate(-226.167 -340.103)" fill="#fff"></path>
      </g>
      <g transform="translate(20.531 25.468)">
        <path 
          d="M313.395,340.156c-2.473-1.086-6.73-.8-6.73-.8-.4.019-1.581.344-1.825,1.2s0,5.752.04,7.677-.237,4.709.258,5.741a2.361,2.361,0,0,0,3.118.86c.957-.613.559-3.957.559-3.957a10.159,10.159,0,0,0,3.12-.151c2.324-.333,4.482-1.408,5.138-4.236S315.868,341.242,313.395,340.156Zm-.559,6.021c-.634.785-4.365.753-4.365.753v-4.043a10.334,10.334,0,0,1,3.7.968A1.455,1.455,0,0,1,312.836,346.177Z"
          transform="translate(-304.731 -339.326)" fill="#fff"></path>
      </g>
    </g>
    <g transform="translate(384.932 135.288)">
      <path 
        d="M259.962,420.271h-5.417a2.774,2.774,0,0,0-2.774,2.774v17.683a2.774,2.774,0,0,0,2.774,2.774h5.8a11.616,11.616,0,0,0,11.614-11.834A11.869,11.869,0,0,0,259.962,420.271Zm-.736,18.513h-1.9V424.99h2.194a6.9,6.9,0,0,1,6.893,7.109A7.088,7.088,0,0,1,259.226,438.784Z"
        transform="translate(-251.725 -419.716)" fill="#fff"></path>
      <path 
        d="M401,420.271H387.061a2.36,2.36,0,0,0,0,4.719h4.2v15.738a2.775,2.775,0,1,0,5.551,0V424.99H401a2.36,2.36,0,0,0,0-4.719Z"
        transform="translate(-337.241 -419.716)" fill="#fff"></path>
      <path 
        d="M530.932,427.143a7.371,7.371,0,0,0-7.452-6.872h-7.365a2.774,2.774,0,0,0-2.774,2.774v17.682a2.775,2.775,0,0,0,5.551,0v-6.067h3.748l2.937,7.237a2.572,2.572,0,1,0,4.766-1.934l-2.636-6.5A7.185,7.185,0,0,0,530.932,427.143Zm-8.3,3.079h-3.741v-5.511h3.585a2.861,2.861,0,0,1,2.907,2.607A2.755,2.755,0,0,1,522.633,430.222Z"
        transform="translate(-419.996 -419.716)" fill="#fff"></path>
      <path 
        d="M578.7,443.5a2.776,2.776,0,0,0,2.775-2.775V423.046a2.775,2.775,0,1,0-5.551,0v17.681A2.776,2.776,0,0,0,578.7,443.5Z"
        transform="translate(-460.257 -419.716)" fill="#fff"></path>
      <path 
        d="M328.332,418.715A12.171,12.171,0,1,0,340.5,430.886,12.171,12.171,0,0,0,328.332,418.715Zm0,18.791a6.62,6.62,0,1,1,6.62-6.62A6.62,6.62,0,0,1,328.332,437.506Z"
        transform="translate(-293.148 -418.715)" fill="#fff"></path>
      <path 
        d="M449.487,418.715a12.171,12.171,0,1,0,12.171,12.171A12.171,12.171,0,0,0,449.487,418.715Zm0,18.791a6.62,6.62,0,1,1,6.62-6.62A6.62,6.62,0,0,1,449.487,437.506Z"
        transform="translate(-371.088 -418.715)" fill="#fff"></path>
      <path 
        d="M254.885,503.89h-1.747c-.927,0-1.495.337-1.495,1.338v7.206a.944.944,0,0,0,1.857,0v-2.555h1.47a2.851,2.851,0,0,0,3.193-3.1C258.162,504.878,257.03,503.89,254.885,503.89Zm-.3,4.423H253.5V505.77c0-.24.06-.3.288-.3h.8c1.265,0,1.687.434,1.687,1.386C256.27,507.734,255.861,508.313,254.584,508.313Z"
        transform="translate(-251.643 -473.509)" fill="#fff"></path>
      <path 
        d="M318.929,503.518c-2.169,0-4.109,1.4-4.109,4.675,0,3.363,1.965,4.737,4.109,4.737s4.133-1.458,4.133-4.737C323.062,504.784,321.075,503.518,318.929,503.518Zm-.012,7.761c-1.2,0-2.158-.783-2.158-3.085,0-2.216.965-3,2.169-3,1.169,0,2.169.771,2.169,3C321.1,510.472,320.087,511.279,318.918,511.279Z"
        transform="translate(-292.285 -473.27)" fill="#fff"></path>
      <path 
        d="M386.413,507.422l-.976-.265c-.808-.229-1-.543-1-1.037,0-.518.543-.916,1.375-.916a3.391,3.391,0,0,1,1.639.458.84.84,0,0,0,.856-1.446,4.418,4.418,0,0,0-2.555-.662c-2.072,0-3.265,1.277-3.265,2.687a2.612,2.612,0,0,0,2.157,2.543l1.036.289c.929.266,1.241.591,1.241,1.193s-.434,1.049-1.506,1.049a3.371,3.371,0,0,1-1.771-.579.889.889,0,1,0-1,1.471,4.474,4.474,0,0,0,2.807.819c2.145,0,3.434-1.266,3.434-2.966C388.882,508.6,387.787,507.783,386.413,507.422Z"
        transform="translate(-335.665 -473.293)" fill="#fff"></path>
      <path 
        d="M451.641,503.89h-5.773a.758.758,0,0,0-.735.82.791.791,0,0,0,.747.855H447.8v6.87c0,.518.458.771.94.771a.843.843,0,0,0,.94-.771v-6.87h1.976a.757.757,0,0,0,.735-.819A.792.792,0,0,0,451.641,503.89Z"
        transform="translate(-376.117 -473.509)" fill="#fff"></path>
      <path 
        d="M515.866,511.374h-3.013c-.313,0-.409-.108-.409-.422v-1.88h3a.716.716,0,0,0,.7-.795.748.748,0,0,0-.7-.832h-3v-1.458c0-.313.157-.422.422-.422h2.892a.838.838,0,0,0,0-1.675h-3.663c-.952,0-1.519.337-1.519,1.374v6.291c0,1.061.41,1.483,1.495,1.483h3.808a.751.751,0,0,0,.735-.819A.788.788,0,0,0,515.866,511.374Z"
        transform="translate(-418.216 -473.509)" fill="#fff"></path>
      <path 
        d="M579.725,511.808l-1.591-2.615a2.654,2.654,0,0,0,1.458-2.519c0-1.831-1.314-2.784-3.29-2.784H574.64c-1,0-1.495.374-1.495,1.338v7.206a.836.836,0,0,0,.94.771.821.821,0,0,0,.917-.771v-2.88h1.349l1.8,3.229C578.689,513.76,580.351,512.82,579.725,511.808ZM576,507.987h-1V505.77c0-.24.06-.3.289-.3H576c1.145,0,1.687.337,1.687,1.253C577.688,507.577,577.134,507.987,576,507.987Z"
        transform="translate(-458.468 -473.509)" fill="#fff"></path>
    </g>
  </g>
</svg>