<svg xmlns="http://www.w3.org/2000/svg" width="178.342" height="178.63" viewBox="0 0 178.342 178.63">
  <g id="그룹_3637" data-name="그룹 3637" transform="translate(-1564.998 -626.455)" opacity="0.2">
    <path id="패스_8194" data-name="패스 8194" d="M1717.615,756.577c-1.362-2.394-3.424-2.743-5.7-1.776a11.657,11.657,0,0,0,.4-2.551,10.7,10.7,0,0,0-.671-2.392c1.988,1.153,4.016.931,5.363-.656a3.984,3.984,0,0,0-4.906-6.105,3.907,3.907,0,0,0-2.013,2.68,4.456,4.456,0,0,0,.669,3.314,3.66,3.66,0,0,1-5.109-5.129c2.339,1.16,4.343.839,5.6-.817a3.993,3.993,0,0,0-5.215-5.861,3.9,3.9,0,0,0-1.864,2.623,4.352,4.352,0,0,0,.732,3.3,4.609,4.609,0,0,0-5.013-.29c.865-2.538.539-4.2-1.032-5.45a4.023,4.023,0,0,0-4.688-.291c-2.156,1.424-2.475,3.408-1.442,5.779a4.6,4.6,0,0,0-4.986.189c1.17-2.319.846-4.344-.815-5.606a3.993,3.993,0,0,0-5.856,5.221,3.905,3.905,0,0,0,2.625,1.862,4.379,4.379,0,0,0,3.3-.733,4.694,4.694,0,0,0-.4,4.845,4.623,4.623,0,0,0-4.938.492c1.35-2.232,1.106-4.342-.528-5.684a3.972,3.972,0,0,0-5.787,5.338c1.275,1.816,3.292,2.142,5.828.874a4.529,4.529,0,0,0-.281,5.145c-2.56-.909-4.235-.6-5.467.937a4.082,4.082,0,0,0,2.392,6.566,4.7,4.7,0,0,0,3.292-.689c-1.07,1.751-1.195,3.418-.071,4.973,1.461,2.021,3.448,2.27,5.745,1.259-.138.329-.227.528-.305.73a4.207,4.207,0,0,0,3.871,5.719,5.621,5.621,0,0,0,2.877-.971l.407-.41a4.866,4.866,0,0,0,.91-3.389c-.064-.36-.154-.716-.254-1.178a4.895,4.895,0,0,0,4.085-.066,4.752,4.752,0,0,0,.579,4.643l.416.4c.149.077.306.143.447.233a4.2,4.2,0,0,0,6.2-5.2c-.058-.141-.094-.292-.155-.485,2.337.85,3.953.649,5.232-.726,1.552-1.668,1.569-3.526.425-5.507,2.238,1.075,4.014.9,5.369-.473A3.963,3.963,0,0,0,1717.615,756.577Zm-31.717,3.71a4.509,4.509,0,0,0-4.072.69,4.424,4.424,0,0,0,.154-4.935,4.731,4.731,0,0,0,3.918.526Zm4.134-9.411a11.834,11.834,0,0,0,1.664-.08c-.046.986-.092,1.99-.134,2.942l-2.82.186c-.06-1.063-.126-2.227-.19-3.36A9.778,9.778,0,0,0,1690.032,750.875Zm-1.95,15.758a4.632,4.632,0,0,0,.414-3.754l3.224.147c.07,1.01.148,2.128.226,3.242A4.629,4.629,0,0,0,1688.082,766.633Zm9.532-6.832h-2.648v-2.622h2.648Zm.378-11.908h-3.438a4.756,4.756,0,0,0-.574-3.69,4.478,4.478,0,0,0,4.537.014A5.193,5.193,0,0,0,1697.993,747.894Zm6.209,2.767a4.341,4.341,0,0,0-.158,3.281l-3.026-.205c-.04-.908-.084-1.929-.123-2.823Zm-3.567,15.614c.079-1.111.159-2.227.232-3.248l3.223-.147a4.51,4.51,0,0,0,.425,3.734A4.721,4.721,0,0,0,1700.635,766.274Zm6.047-5.98v-3.717a4.736,4.736,0,0,0,3.763-.407,2.868,2.868,0,1,1-3.763,4.124Z" transform="translate(-42.247 -42.473)" fill="#fff"/>
    <path id="패스_8195" data-name="패스 8195" d="M1710.1,795.311l.416.4c1.206,1.872,1.25,3.633.127,5.105a4.028,4.028,0,0,1-6.669-4.5c.124-.209.267-.408.4-.613l.407-.41C1706.771,794,1708.165,794.006,1710.1,795.311Z" transform="translate(-53.396 -64.758)" fill="#fff"/>
    <path id="패스_8196" data-name="패스 8196" d="M1740.232,788.824a3.94,3.94,0,1,1-3.96-3.921A3.978,3.978,0,0,1,1740.232,788.824Z" transform="translate(-64.557 -61.122)" fill="#fff"/>
    <path id="패스_8197" data-name="패스 8197" d="M1678.691,784.926a3.926,3.926,0,1,1-3.916,3.953A3.95,3.95,0,0,1,1678.691,784.926Z" transform="translate(-42.347 -61.131)" fill="#fff"/>
    <path id="패스_8198" data-name="패스 8198" d="M1730.619,798.481a3.906,3.906,0,1,1-3.852-3.923A3.9,3.9,0,0,1,1730.619,798.481Z" transform="translate(-60.875 -64.846)" fill="#fff"/>
    <path id="패스_8199" data-name="패스 8199" d="M1692.219,798.463a3.906,3.906,0,1,1-3.87-3.905A3.9,3.9,0,0,1,1692.219,798.463Z" transform="translate(-46.063 -64.846)" fill="#fff"/>
    <path id="패스_8200" data-name="패스 8200" d="M1694.063,731.218a3.872,3.872,0,1,1,3.8,3.939A3.837,3.837,0,0,1,1694.063,731.218Z" transform="translate(-49.787 -38.945)" fill="#fff"/>
    <path id="패스_8201" data-name="패스 8201" d="M1721.012,731.258a3.887,3.887,0,1,1-3.888-3.868A3.86,3.86,0,0,1,1721.012,731.258Z" transform="translate(-57.184 -38.936)" fill="#fff"/>
    <path id="패스_8202" data-name="패스 8202" d="M1749.8,760.081a3.843,3.843,0,1,1-3.848-3.821A3.825,3.825,0,0,1,1749.8,760.081Z" transform="translate(-68.321 -50.073)" fill="#fff"/>
    <path id="패스_8203" data-name="패스 8203" d="M1669.087,763.947a3.844,3.844,0,1,1,3.908-3.759A3.826,3.826,0,0,1,1669.087,763.947Z" transform="translate(-38.695 -50.073)" fill="#fff"/>
    <path id="패스_8204" data-name="패스 8204" d="M1672.991,779.326a3.831,3.831,0,1,1-3.836-3.845A3.839,3.839,0,0,1,1672.991,779.326Z" transform="translate(-38.703 -57.487)" fill="#fff"/>
    <path id="패스_8205" data-name="패스 8205" d="M1745.951,775.481a3.831,3.831,0,1,1-3.821,3.859A3.839,3.839,0,0,1,1745.951,775.481Z" transform="translate(-68.329 -57.487)" fill="#fff"/>
    <path id="패스_8206" data-name="패스 8206" d="M1717.2,804.321a3.806,3.806,0,1,1-3.825,3.787A3.846,3.846,0,0,1,1717.2,804.321Z" transform="translate(-57.235 -68.612)" fill="#fff"/>
    <path id="패스_8207" data-name="패스 8207" d="M1697.942,811.933a3.806,3.806,0,1,1,3.841-3.772A3.845,3.845,0,0,1,1697.942,811.933Z" transform="translate(-49.829 -68.612)" fill="#fff"/>
    <path id="패스_8208" data-name="패스 8208" d="M1707.61,718.1a3.695,3.695,0,1,1-3.658,3.731A3.675,3.675,0,0,1,1707.61,718.1Z" transform="translate(-53.602 -35.353)" fill="#fff"/>
    <path id="패스_8209" data-name="패스 8209" d="M1736.417,735.089a3.688,3.688,0,1,1,3.721-3.673A3.681,3.681,0,0,1,1736.417,735.089Z" transform="translate(-64.715 -39.061)" fill="#fff"/>
    <path id="패스_8210" data-name="패스 8210" d="M1682.538,731.439a3.688,3.688,0,1,1-3.669-3.725A3.681,3.681,0,0,1,1682.538,731.439Z" transform="translate(-42.496 -39.061)" fill="#fff"/>
    <path id="패스_8211" data-name="패스 8211" d="M1749.736,740.979a3.682,3.682,0,1,1-3.671-3.655A3.691,3.691,0,0,1,1749.736,740.979Z" transform="translate(-68.423 -42.768)" fill="#fff"/>
    <path id="패스_8212" data-name="패스 8212" d="M1672.936,741.023a3.682,3.682,0,1,1-3.627-3.7A3.693,3.693,0,0,1,1672.936,741.023Z" transform="translate(-38.797 -42.768)" fill="#fff"/>
    <path id="패스_8213" data-name="패스 8213" d="M1663.326,769.884a3.655,3.655,0,1,1-3.611-3.716A3.695,3.695,0,0,1,1663.326,769.884Z" transform="translate(-35.11 -53.894)" fill="#fff"/>
    <path id="패스_8214" data-name="패스 8214" d="M1759.326,769.809a3.655,3.655,0,1,1-3.686-3.641A3.695,3.695,0,0,1,1759.326,769.809Z" transform="translate(-72.143 -53.895)" fill="#fff"/>
    <path id="패스_8215" data-name="패스 8215" d="M1746.125,802.266a3.624,3.624,0,1,1,3.589-3.639A3.643,3.643,0,0,1,1746.125,802.266Z" transform="translate(-68.459 -65.024)" fill="#fff"/>
    <path id="패스_8216" data-name="패스 8216" d="M1672.906,798.651a3.6,3.6,0,1,1-3.607-3.595A3.585,3.585,0,0,1,1672.906,798.651Z" transform="translate(-38.848 -65.038)" fill="#fff"/>
    <path id="패스_8217" data-name="패스 8217" d="M1740.106,808.281a3.6,3.6,0,1,1-3.576-3.625A3.586,3.586,0,0,1,1740.106,808.281Z" transform="translate(-64.77 -68.741)" fill="#fff"/>
    <path id="패스_8218" data-name="패스 8218" d="M1730.505,721.887a3.6,3.6,0,1,1-3.569-3.631A3.587,3.587,0,0,1,1730.505,721.887Z" transform="translate(-61.067 -35.412)" fill="#fff"/>
    <path id="패스_8219" data-name="패스 8219" d="M1692.106,721.846a3.6,3.6,0,1,1-3.611-3.59A3.585,3.585,0,0,1,1692.106,721.846Z" transform="translate(-46.254 -35.412)" fill="#fff"/>
    <path id="패스_8220" data-name="패스 8220" d="M1682.5,808.279a3.583,3.583,0,1,1-3.59-3.594A3.552,3.552,0,0,1,1682.5,808.279Z" transform="translate(-42.562 -68.752)" fill="#fff"/>
    <path id="패스_8221" data-name="패스 8221" d="M1707.739,821.45a3.583,3.583,0,1,1,3.56-3.625A3.552,3.552,0,0,1,1707.739,821.45Z" transform="translate(-53.672 -72.456)" fill="#fff"/>
    <path id="패스_8222" data-name="패스 8222" d="M1755.7,747.106a3.569,3.569,0,1,1-3.55,3.553A3.534,3.534,0,0,1,1755.7,747.106Z" transform="translate(-72.196 -46.541)" fill="#fff"/>
    <path id="패스_8223" data-name="패스 8223" d="M1663.29,750.668a3.558,3.558,0,1,1-3.554-3.544A3.525,3.525,0,0,1,1663.29,750.668Z" transform="translate(-35.171 -46.548)" fill="#fff"/>
    <path id="패스_8224" data-name="패스 8224" d="M1755.738,785.56a3.537,3.537,0,1,1-3.529,3.507A3.549,3.549,0,0,1,1755.738,785.56Z" transform="translate(-72.217 -61.375)" fill="#fff"/>
    <path id="패스_8225" data-name="패스 8225" d="M1659.738,785.56a3.537,3.537,0,1,1-3.529,3.507A3.549,3.549,0,0,1,1659.738,785.56Z" transform="translate(-35.185 -61.375)" fill="#fff"/>
    <path id="패스_8226" data-name="패스 8226" d="M1688.567,814.387a3.52,3.52,0,1,1-3.531,3.509A3.554,3.554,0,0,1,1688.567,814.387Z" transform="translate(-46.305 -72.495)" fill="#fff"/>
    <path id="패스_8227" data-name="패스 8227" d="M1726.989,814.387a3.52,3.52,0,1,1-3.553,3.486A3.554,3.554,0,0,1,1726.989,814.387Z" transform="translate(-61.118 -72.495)" fill="#fff"/>
    <path id="패스_8228" data-name="패스 8228" d="M1720.843,712.463a3.435,3.435,0,1,1-3.295-3.534A3.4,3.4,0,0,1,1720.843,712.463Z" transform="translate(-57.469 -31.814)" fill="#fff"/>
    <path id="패스_8229" data-name="패스 8229" d="M1698.3,708.927a3.435,3.435,0,1,1-3.527,3.3A3.4,3.4,0,0,1,1698.3,708.927Z" transform="translate(-50.062 -31.813)" fill="#fff"/>
    <path id="패스_8230" data-name="패스 8230" d="M1765.388,763.783a3.4,3.4,0,1,1,3.443-3.377A3.382,3.382,0,0,1,1765.388,763.783Z" transform="translate(-76.005 -50.351)" fill="#fff"/>
    <path id="패스_8231" data-name="패스 8231" d="M1653.631,760.428a3.4,3.4,0,1,1-3.373-3.447A3.381,3.381,0,0,1,1653.631,760.428Z" transform="translate(-31.567 -50.351)" fill="#fff"/>
    <path id="패스_8232" data-name="패스 8232" d="M1768.828,779.607a3.393,3.393,0,1,1-3.336-3.414A3.387,3.387,0,0,1,1768.828,779.607Z" transform="translate(-76.01 -57.762)" fill="#fff"/>
    <path id="패스_8233" data-name="패스 8233" d="M1650.173,782.977a3.387,3.387,0,1,1,3.453-3.3A3.4,3.4,0,0,1,1650.173,782.977Z" transform="translate(-31.576 -57.766)" fill="#fff"/>
    <path id="패스_8234" data-name="패스 8234" d="M1663.22,731.592a3.369,3.369,0,1,1-3.4-3.359A3.407,3.407,0,0,1,1663.22,731.592Z" transform="translate(-35.29 -39.261)" fill="#fff"/>
    <path id="패스_8235" data-name="패스 8235" d="M1755.87,734.971a3.369,3.369,0,1,1,3.35-3.406A3.407,3.407,0,0,1,1755.87,734.971Z" transform="translate(-72.322 -39.261)" fill="#fff"/>
    <path id="패스_8236" data-name="패스 8236" d="M1749.623,721.965a3.378,3.378,0,1,1-3.409-3.348A3.4,3.4,0,0,1,1749.623,721.965Z" transform="translate(-68.613 -35.552)" fill="#fff"/>
    <path id="패스_8237" data-name="패스 8237" d="M1669.437,725.37A3.369,3.369,0,1,1,1672.82,722,3.406,3.406,0,0,1,1669.437,725.37Z" transform="translate(-38.993 -35.558)" fill="#fff"/>
    <path id="패스_8238" data-name="패스 8238" d="M1701.615,827.594a3.356,3.356,0,1,1-3.335-3.34A3.394,3.394,0,0,1,1701.615,827.594Z" transform="translate(-50.111 -76.301)" fill="#fff"/>
    <path id="패스_8239" data-name="패스 8239" d="M1717.438,830.966a3.356,3.356,0,1,1,3.376-3.3A3.4,3.4,0,0,1,1717.438,830.966Z" transform="translate(-57.517 -76.301)" fill="#fff"/>
    <path id="패스_8240" data-name="패스 8240" d="M1736.716,715.744a3.3,3.3,0,1,1,3.276-3.279A3.272,3.272,0,0,1,1736.716,715.744Z" transform="translate(-64.961 -31.901)" fill="#fff"/>
    <path id="패스_8241" data-name="패스 8241" d="M1755.929,811.737a3.279,3.279,0,1,1,3.257-3.283A3.245,3.245,0,0,1,1755.929,811.737Z" transform="translate(-72.379 -68.943)" fill="#fff"/>
    <path id="패스_8242" data-name="패스 8242" d="M1679.129,709.179a3.279,3.279,0,1,1-3.3,3.238A3.244,3.244,0,0,1,1679.129,709.179Z" transform="translate(-42.753 -31.911)" fill="#fff"/>
    <path id="패스_8243" data-name="패스 8243" d="M1659.963,811.733a3.267,3.267,0,1,1,3.218-3.315A3.232,3.232,0,0,1,1659.963,811.733Z" transform="translate(-35.354 -68.951)" fill="#fff"/>
    <path id="패스_8244" data-name="패스 8244" d="M1749.581,818.073a3.267,3.267,0,1,1-3.26-3.273A3.232,3.232,0,0,1,1749.581,818.073Z" transform="translate(-68.683 -72.655)" fill="#fff"/>
    <path id="패스_8245" data-name="패스 8245" d="M1669.563,814.8a3.267,3.267,0,1,1-3.315,3.217A3.233,3.233,0,0,1,1669.563,814.8Z" transform="translate(-39.058 -72.654)" fill="#fff"/>
    <path id="패스_8246" data-name="패스 8246" d="M1765.546,738a3.266,3.266,0,1,1-3.3,3.235A3.232,3.232,0,0,1,1765.546,738Z" transform="translate(-76.09 -43.029)" fill="#fff"/>
    <path id="패스_8247" data-name="패스 8247" d="M1650.3,738.016a3.256,3.256,0,1,1-3.234,3.3A3.229,3.229,0,0,1,1650.3,738.016Z" transform="translate(-31.658 -43.035)" fill="#fff"/>
    <path id="패스_8248" data-name="패스 8248" d="M1711.172,702.915a3.242,3.242,0,1,1-3.189-3.275A3.251,3.251,0,0,1,1711.172,702.915Z" transform="translate(-53.886 -28.231)" fill="#fff"/>
    <path id="패스_8249" data-name="패스 8249" d="M1653.569,798.878a3.233,3.233,0,1,1-3.243-3.224A3.258,3.258,0,0,1,1653.569,798.878Z" transform="translate(-31.673 -65.269)" fill="#fff"/>
    <path id="패스_8250" data-name="패스 8250" d="M1765.51,795.654a3.233,3.233,0,1,1-3.206,3.26A3.258,3.258,0,0,1,1765.51,795.654Z" transform="translate(-76.111 -65.269)" fill="#fff"/>
    <path id="패스_8251" data-name="패스 8251" d="M1679.183,824.491a3.21,3.21,0,1,1-3.243,3.158A3.251,3.251,0,0,1,1679.183,824.491Z" transform="translate(-42.796 -76.393)" fill="#fff"/>
    <path id="패스_8252" data-name="패스 8252" d="M1739.961,827.667a3.21,3.21,0,1,1-3.227-3.176A3.252,3.252,0,0,1,1739.961,827.667Z" transform="translate(-65.016 -76.393)" fill="#fff"/>
    <path id="패스_8253" data-name="패스 8253" d="M1775.165,766.918a3.193,3.193,0,1,1-3.2,3.19A3.221,3.221,0,0,1,1775.165,766.918Z" transform="translate(-79.839 -54.184)" fill="#fff"/>
    <path id="패스_8254" data-name="패스 8254" d="M1727.188,699.754a3.172,3.172,0,1,1-3.184,3.177A3.173,3.173,0,0,1,1727.188,699.754Z" transform="translate(-61.337 -28.275)" fill="#fff"/>
    <path id="패스_8255" data-name="패스 8255" d="M1688.773,699.754a3.172,3.172,0,1,1-3.17,3.192A3.173,3.173,0,0,1,1688.773,699.754Z" transform="translate(-46.524 -28.275)" fill="#fff"/>
    <path id="패스_8256" data-name="패스 8256" d="M1640.755,766.954a3.172,3.172,0,1,1-3.152,3.209A3.173,3.173,0,0,1,1640.755,766.954Z" transform="translate(-28.008 -54.198)" fill="#fff"/>
    <path id="패스_8257" data-name="패스 8257" d="M1643.926,750.924a3.118,3.118,0,1,1-3.171-3.082A3.087,3.087,0,0,1,1643.926,750.924Z" transform="translate(-28.042 -46.825)" fill="#fff"/>
    <path id="패스_8258" data-name="패스 8258" d="M1778.326,750.951a3.118,3.118,0,1,1-3.144-3.109A3.086,3.086,0,0,1,1778.326,750.951Z" transform="translate(-79.887 -46.825)" fill="#fff"/>
    <path id="패스_8259" data-name="패스 8259" d="M1778.318,789.389a3.1,3.1,0,1,1-3.063-3.117A3.092,3.092,0,0,1,1778.318,789.389Z" transform="translate(-79.898 -61.65)" fill="#fff"/>
    <path id="패스_8260" data-name="패스 8260" d="M1711.123,837.354a3.107,3.107,0,1,1-3.082-3.1A3.086,3.086,0,0,1,1711.123,837.354Z" transform="translate(-53.971 -80.161)" fill="#fff"/>
    <path id="패스_8261" data-name="패스 8261" d="M1643.916,789.409a3.092,3.092,0,1,1-3.057-3.125A3.1,3.1,0,0,1,1643.916,789.409Z" transform="translate(-28.058 -61.654)" fill="#fff"/>
    <path id="패스_8262" data-name="패스 8262" d="M1691.908,837.422a3.071,3.071,0,1,1-3-3.1A3.112,3.112,0,0,1,1691.908,837.422Z" transform="translate(-46.587 -80.183)" fill="#fff"/>
    <path id="패스_8263" data-name="패스 8263" d="M1727.207,834.317a3.072,3.072,0,1,1-3.041,3.065A3.11,3.11,0,0,1,1727.207,834.317Z" transform="translate(-61.4 -80.183)" fill="#fff"/>
    <path id="패스_8264" data-name="패스 8264" d="M1756.167,709.577a3.035,3.035,0,1,1-3.143,2.943A3.053,3.053,0,0,1,1756.167,709.577Z" transform="translate(-72.531 -32.063)" fill="#fff"/>
    <path id="패스_8265" data-name="패스 8265" d="M1660.083,709.616a3.011,3.011,0,1,1-3.018,2.966A3,3,0,0,1,1660.083,709.616Z" transform="translate(-35.515 -32.08)" fill="#fff"/>
    <path id="패스_8266" data-name="패스 8266" d="M1768.686,722.236a3.01,3.01,0,1,1-2.964-3.02A3,3,0,0,1,1768.686,722.236Z" transform="translate(-76.251 -35.783)" fill="#fff"/>
    <path id="패스_8267" data-name="패스 8267" d="M1650.44,725.237a3.011,3.011,0,1,1,3.046-2.939A3,3,0,0,1,1650.44,725.237Z" transform="translate(-31.812 -35.783)" fill="#fff"/>
    <path id="패스_8268" data-name="패스 8268" d="M1698.54,690.493a2.964,2.964,0,1,1-3,2.891A2.937,2.937,0,0,1,1698.54,690.493Z" transform="translate(-50.358 -24.703)" fill="#fff"/>
    <path id="패스_8269" data-name="패스 8269" d="M1749.469,703.055a2.964,2.964,0,1,1-2.928-2.962A2.936,2.936,0,0,1,1749.469,703.055Z" transform="translate(-68.874 -28.406)" fill="#fff"/>
    <path id="패스_8270" data-name="패스 8270" d="M1720.669,693.432a2.963,2.963,0,1,1-2.951-2.939A2.936,2.936,0,0,1,1720.669,693.432Z" transform="translate(-57.765 -24.703)" fill="#fff"/>
    <path id="패스_8271" data-name="패스 8271" d="M1669.7,706.016a2.954,2.954,0,1,1,2.964-2.925A2.939,2.939,0,0,1,1669.7,706.016Z" transform="translate(-39.254 -28.412)" fill="#fff"/>
    <path id="패스_8272" data-name="패스 8272" d="M1778.262,731.842a2.947,2.947,0,1,1-2.971-2.922A2.954,2.954,0,0,1,1778.262,731.842Z" transform="translate(-79.994 -39.526)" fill="#fff"/>
    <path id="패스_8273" data-name="패스 8273" d="M1768.662,818.3a2.947,2.947,0,1,1-2.913-2.98A2.955,2.955,0,0,1,1768.662,818.3Z" transform="translate(-76.291 -72.855)" fill="#fff"/>
    <path id="패스_8274" data-name="패스 8274" d="M1643.862,731.863a2.947,2.947,0,1,1-2.951-2.943A2.954,2.954,0,0,1,1643.862,731.863Z" transform="translate(-28.149 -39.526)" fill="#fff"/>
    <path id="패스_8275" data-name="패스 8275" d="M1653.462,818.256a2.947,2.947,0,1,1-2.958-2.936A2.954,2.954,0,0,1,1653.462,818.256Z" transform="translate(-31.852 -72.855)" fill="#fff"/>
    <path id="패스_8276" data-name="패스 8276" d="M1787.859,760.672a2.937,2.937,0,1,1-2.957-2.937A2.962,2.962,0,0,1,1787.859,760.672Z" transform="translate(-83.703 -50.642)" fill="#fff"/>
    <path id="패스_8277" data-name="패스 8277" d="M1663.059,827.887a2.938,2.938,0,1,1-2.941-2.952A2.963,2.963,0,0,1,1663.059,827.887Z" transform="translate(-35.561 -76.564)" fill="#fff"/>
    <path id="패스_8278" data-name="패스 8278" d="M1756.159,824.935a2.938,2.938,0,1,1-2.975,2.918A2.965,2.965,0,0,1,1756.159,824.935Z" transform="translate(-72.593 -76.564)" fill="#fff"/>
    <path id="패스_8279" data-name="패스 8279" d="M1787.855,779.863a2.926,2.926,0,1,1-2.925-2.909A2.966,2.966,0,0,1,1787.855,779.863Z" transform="translate(-83.71 -58.055)" fill="#fff"/>
    <path id="패스_8280" data-name="패스 8280" d="M1634.255,760.65a2.926,2.926,0,1,1-2.938-2.9A2.966,2.966,0,0,1,1634.255,760.65Z" transform="translate(-24.459 -50.649)" fill="#fff"/>
    <path id="패스_8281" data-name="패스 8281" d="M1631.372,782.8a2.911,2.911,0,1,1,2.877-2.945A2.948,2.948,0,0,1,1631.372,782.8Z" transform="translate(-24.468 -58.064)" fill="#fff"/>
    <path id="패스_8282" data-name="패스 8282" d="M1775.331,811.592a2.891,2.891,0,1,1,2.91-2.889A2.912,2.912,0,0,1,1775.331,811.592Z" transform="translate(-80.029 -69.187)" fill="#fff"/>
    <path id="패스_8283" data-name="패스 8283" d="M1640.957,811.593a2.89,2.89,0,1,1,2.885-2.915A2.911,2.911,0,0,1,1640.957,811.593Z" transform="translate(-28.184 -69.187)" fill="#fff"/>
    <path id="패스_8284" data-name="패스 8284" d="M1749.431,837.53a2.863,2.863,0,1,1-2.834-2.874A2.847,2.847,0,0,1,1749.431,837.53Z" transform="translate(-68.937 -80.314)" fill="#fff"/>
    <path id="패스_8285" data-name="패스 8285" d="M1698.556,844.291a2.842,2.842,0,1,1-2.817,2.867A2.808,2.808,0,0,1,1698.556,844.291Z" transform="translate(-50.434 -84.031)" fill="#fff"/>
    <path id="패스_8286" data-name="패스 8286" d="M1720.623,847.107a2.842,2.842,0,1,1-2.868-2.816A2.808,2.808,0,0,1,1720.623,847.107Z" transform="translate(-57.84 -84.031)" fill="#fff"/>
    <path id="패스_8287" data-name="패스 8287" d="M1672.623,837.552a2.842,2.842,0,1,1-2.823-2.861A2.808,2.808,0,0,1,1672.623,837.552Z" transform="translate(-39.324 -80.327)" fill="#fff"/>
    <path id="패스_8288" data-name="패스 8288" d="M1739.823,693.538a2.842,2.842,0,1,1-2.837-2.847A2.807,2.807,0,0,1,1739.823,693.538Z" transform="translate(-65.247 -24.779)" fill="#fff"/>
    <path id="패스_8289" data-name="패스 8289" d="M1682.223,693.511a2.842,2.842,0,1,1-2.864-2.82A2.807,2.807,0,0,1,1682.223,693.511Z" transform="translate(-43.027 -24.779)" fill="#fff"/>
    <path id="패스_8290" data-name="패스 8290" d="M1785.068,738.752a2.805,2.805,0,1,1-2.868,2.741A2.8,2.8,0,0,1,1785.068,738.752Z" transform="translate(-83.786 -43.319)" fill="#fff"/>
    <path id="패스_8291" data-name="패스 8291" d="M1631.43,738.752a2.8,2.8,0,1,1-2.83,2.779A2.8,2.8,0,0,1,1631.43,738.752Z" transform="translate(-24.535 -43.319)" fill="#fff"/>
    <path id="패스_8292" data-name="패스 8292" d="M1784.981,801.954a2.787,2.787,0,1,1,2.821-2.715A2.818,2.818,0,0,1,1784.981,801.954Z" transform="translate(-83.797 -65.549)" fill="#fff"/>
    <path id="패스_8293" data-name="패스 8293" d="M1634.2,799.182a2.773,2.773,0,1,1-2.767-2.78A2.81,2.81,0,0,1,1634.2,799.182Z" transform="translate(-24.555 -65.558)" fill="#fff"/>
    <path id="패스_8294" data-name="패스 8294" d="M1676.726,847.094a2.728,2.728,0,1,1,2.6,2.834A2.725,2.725,0,0,1,1676.726,847.094Z" transform="translate(-43.098 -84.101)" fill="#fff"/>
    <path id="패스_8295" data-name="패스 8295" d="M1734.322,847.225a2.73,2.73,0,1,1,2.734,2.708A2.732,2.732,0,0,1,1734.322,847.225Z" transform="translate(-65.317 -84.101)" fill="#fff"/>
    <path id="패스_8296" data-name="패스 8296" d="M1708.143,686.73a2.728,2.728,0,1,1,2.834-2.6A2.725,2.725,0,0,1,1708.143,686.73Z" transform="translate(-54.208 -21.147)" fill="#fff"/>
    <path id="패스_8297" data-name="패스 8297" d="M1730.16,684.04a2.671,2.671,0,1,1-2.653-2.67A2.64,2.64,0,0,1,1730.16,684.04Z" transform="translate(-61.651 -21.184)" fill="#fff"/>
    <path id="패스_8298" data-name="패스 8298" d="M1650.678,700.587a2.66,2.66,0,1,1-2.643,2.677A2.645,2.645,0,0,1,1650.678,700.587Z" transform="translate(-32.032 -28.597)" fill="#fff"/>
    <path id="패스_8299" data-name="패스 8299" d="M1689.116,681.387a2.66,2.66,0,1,1-2.68,2.639A2.645,2.645,0,0,1,1689.116,681.387Z" transform="translate(-46.845 -21.19)" fill="#fff"/>
    <path id="패스_8300" data-name="패스 8300" d="M1797.356,770.429a2.66,2.66,0,1,1-2.677-2.642A2.645,2.645,0,0,1,1797.356,770.429Z" transform="translate(-87.581 -54.519)" fill="#fff"/>
    <path id="패스_8301" data-name="패스 8301" d="M1624.555,770.471a2.66,2.66,0,1,1-2.636-2.684A2.645,2.645,0,0,1,1624.555,770.471Z" transform="translate(-20.923 -54.519)" fill="#fff"/>
    <path id="패스_8302" data-name="패스 8302" d="M1768.555,703.265a2.66,2.66,0,1,1-2.642-2.677A2.645,2.645,0,0,1,1768.555,703.265Z" transform="translate(-76.471 -28.597)" fill="#fff"/>
    <path id="패스_8303" data-name="패스 8303" d="M1643.752,712.87a2.652,2.652,0,1,1-2.652-2.67A2.658,2.658,0,0,1,1643.752,712.87Z" transform="translate(-28.334 -32.305)" fill="#fff"/>
    <path id="패스_8304" data-name="패스 8304" d="M1775.49,715.5a2.652,2.652,0,1,1,2.662-2.66A2.657,2.657,0,0,1,1775.49,715.5Z" transform="translate(-80.179 -32.305)" fill="#fff"/>
    <path id="패스_8305" data-name="패스 8305" d="M1797.346,751.368a2.642,2.642,0,1,1-2.511-2.748A2.67,2.67,0,0,1,1797.346,751.368Z" transform="translate(-87.591 -47.124)" fill="#fff"/>
    <path id="패스_8306" data-name="패스 8306" d="M1756.34,691.039a2.628,2.628,0,1,1-2.652,2.6A2.667,2.667,0,0,1,1756.34,691.039Z" transform="translate(-72.788 -24.913)" fill="#fff"/>
    <path id="패스_8307" data-name="패스 8307" d="M1624.543,751.238a2.628,2.628,0,1,1-2.656-2.6A2.666,2.666,0,0,1,1624.543,751.238Z" transform="translate(-20.942 -47.133)" fill="#fff"/>
    <path id="패스_8308" data-name="패스 8308" d="M1710.944,856.848a2.628,2.628,0,1,1-2.647-2.609A2.667,2.667,0,0,1,1710.944,856.848Z" transform="translate(-54.272 -87.868)" fill="#fff"/>
    <path id="패스_8309" data-name="패스 8309" d="M1785.131,725.088a2.61,2.61,0,1,1,2.605-2.577A2.644,2.644,0,0,1,1785.131,725.088Z" transform="translate(-83.909 -36.035)" fill="#fff"/>
    <path id="패스_8310" data-name="패스 8310" d="M1657.717,693.62a2.61,2.61,0,1,1,2.514,2.666A2.642,2.642,0,0,1,1657.717,693.62Z" transform="translate(-35.766 -24.925)" fill="#fff"/>
    <path id="패스_8311" data-name="패스 8311" d="M1621.893,787.069a2.61,2.61,0,1,1-2.575,2.607A2.644,2.644,0,0,1,1621.893,787.069Z" transform="translate(-20.954 -61.957)" fill="#fff"/>
    <path id="패스_8312" data-name="패스 8312" d="M1797.336,789.737a2.61,2.61,0,1,1-2.514-2.666A2.642,2.642,0,0,1,1797.336,789.737Z" transform="translate(-87.612 -61.957)" fill="#fff"/>
    <path id="패스_8313" data-name="패스 8313" d="M1634.127,722.462a2.584,2.584,0,1,1-2.6-2.55A2.592,2.592,0,0,1,1634.127,722.462Z" transform="translate(-24.674 -36.051)" fill="#fff"/>
    <path id="패스_8314" data-name="패스 8314" d="M1775.5,830.668a2.555,2.555,0,1,1,2.62-2.509A2.528,2.528,0,0,1,1775.5,830.668Z" transform="translate(-80.24 -76.805)" fill="#fff"/>
    <path id="패스_8315" data-name="패스 8315" d="M1650.776,840.268a2.555,2.555,0,1,1,2.541-2.587A2.526,2.526,0,0,1,1650.776,840.268Z" transform="translate(-32.098 -80.508)" fill="#fff"/>
    <path id="패스_8316" data-name="패스 8316" d="M1643.717,828.1a2.555,2.555,0,1,1-2.582-2.547A2.526,2.526,0,0,1,1643.717,828.1Z" transform="translate(-28.395 -76.804)" fill="#fff"/>
    <path id="패스_8317" data-name="패스 8317" d="M1768.517,837.74a2.555,2.555,0,1,1-2.547-2.582A2.528,2.528,0,0,1,1768.517,837.74Z" transform="translate(-76.537 -80.508)" fill="#fff"/>
    <path id="패스_8318" data-name="패스 8318" d="M1730.11,856.948a2.536,2.536,0,1,1-2.477-2.559A2.5,2.5,0,0,1,1730.11,856.948Z" transform="translate(-61.736 -87.926)" fill="#fff"/>
    <path id="패스_8319" data-name="패스 8319" d="M1691.71,856.9a2.536,2.536,0,1,1-2.53-2.506A2.5,2.5,0,0,1,1691.71,856.9Z" transform="translate(-46.923 -87.926)" fill="#fff"/>
    <path id="패스_8320" data-name="패스 8320" d="M1785.2,821.055a2.521,2.521,0,1,1,2.5-2.541A2.492,2.492,0,0,1,1785.2,821.055Z" transform="translate(-83.964 -73.123)" fill="#fff"/>
    <path id="패스_8321" data-name="패스 8321" d="M1634.1,818.517a2.511,2.511,0,1,1-2.553-2.486A2.5,2.5,0,0,1,1634.1,818.517Z" transform="translate(-24.719 -73.129)" fill="#fff"/>
    <path id="패스_8322" data-name="패스 8322" d="M1749.3,684.164a2.5,2.5,0,1,1-2.447-2.52A2.517,2.517,0,0,1,1749.3,684.164Z" transform="translate(-69.164 -21.289)" fill="#fff"/>
    <path id="패스_8323" data-name="패스 8323" d="M1660.391,849.848a2.5,2.5,0,1,1,2.506-2.461A2.516,2.516,0,0,1,1660.391,849.848Z" transform="translate(-35.835 -84.244)" fill="#fff"/>
    <path id="패스_8324" data-name="패스 8324" d="M1670.056,681.645a2.5,2.5,0,1,1-2.561,2.4A2.519,2.519,0,0,1,1670.056,681.645Z" transform="translate(-39.538 -21.289)" fill="#fff"/>
    <path id="패스_8325" data-name="패스 8325" d="M1756.362,849.848a2.5,2.5,0,1,1,2.534-2.432A2.518,2.518,0,0,1,1756.362,849.848Z" transform="translate(-72.867 -84.244)" fill="#fff"/>
    <path id="패스_8326" data-name="패스 8326" d="M1797.293,732.142a2.49,2.49,0,1,1-2.5-2.478A2.524,2.524,0,0,1,1797.293,732.142Z" transform="translate(-87.688 -39.813)" fill="#fff"/>
    <path id="패스_8327" data-name="패스 8327" d="M1622.008,729.69a2.474,2.474,0,1,1-2.469,2.5A2.514,2.514,0,0,1,1622.008,729.69Z" transform="translate(-21.039 -39.823)" fill="#fff"/>
    <path id="패스_8328" data-name="패스 8328" d="M1720.478,674.549a2.452,2.452,0,1,1-2.462-2.424A2.475,2.475,0,0,1,1720.478,674.549Z" transform="translate(-58.085 -17.617)" fill="#fff"/>
    <path id="패스_8329" data-name="패스 8329" d="M1698.846,677.03a2.452,2.452,0,1,1,2.432-2.453A2.476,2.476,0,0,1,1698.846,677.03Z" transform="translate(-50.678 -17.617)" fill="#fff"/>
    <path id="패스_8330" data-name="패스 8330" d="M1794.758,811.417a2.42,2.42,0,1,1,2.509-2.348A2.4,2.4,0,0,1,1794.758,811.417Z" transform="translate(-87.731 -69.483)" fill="#fff"/>
    <path id="패스_8331" data-name="패스 8331" d="M1622.093,811.409a2.4,2.4,0,1,1,2.365-2.391A2.364,2.364,0,0,1,1622.093,811.409Z" transform="translate(-21.088 -69.498)" fill="#fff"/>
    <path id="패스_8332" data-name="패스 8332" d="M1749.251,857.043a2.379,2.379,0,1,1-2.359-2.4A2.35,2.35,0,0,1,1749.251,857.043Z" transform="translate(-69.241 -88.024)" fill="#fff"/>
    <path id="패스_8333" data-name="패스 8333" d="M1804.453,758.644a2.379,2.379,0,1,1-2.36,2.4A2.349,2.349,0,0,1,1804.453,758.644Z" transform="translate(-91.46 -50.992)" fill="#fff"/>
    <path id="패스_8334" data-name="패스 8334" d="M1614.851,761.06a2.379,2.379,0,1,1-2.343-2.416A2.35,2.35,0,0,1,1614.851,761.06Z" transform="translate(-17.395 -50.992)" fill="#fff"/>
    <path id="패스_8335" data-name="패스 8335" d="M1804.455,777.844a2.379,2.379,0,1,1-2.362,2.4A2.349,2.349,0,0,1,1804.455,777.844Z" transform="translate(-91.46 -58.399)" fill="#fff"/>
    <path id="패스_8336" data-name="패스 8336" d="M1614.846,780.235a2.366,2.366,0,1,1-2.381-2.37A2.352,2.352,0,0,1,1614.846,780.235Z" transform="translate(-17.404 -58.407)" fill="#fff"/>
    <path id="패스_8337" data-name="패스 8337" d="M1672.446,857.057a2.367,2.367,0,1,1-2.358-2.393A2.354,2.354,0,0,1,1672.446,857.057Z" transform="translate(-39.623 -88.032)" fill="#fff"/>
    <path id="패스_8338" data-name="패스 8338" d="M1679.7,676.989a2.345,2.345,0,1,1,2.339-2.35A2.374,2.374,0,0,1,1679.7,676.989Z" transform="translate(-43.34 -17.685)" fill="#fff"/>
    <path id="패스_8339" data-name="패스 8339" d="M1701.232,866.651a2.329,2.329,0,1,1-2.3-2.325A2.371,2.371,0,0,1,1701.232,866.651Z" transform="translate(-50.756 -91.759)" fill="#fff"/>
    <path id="패스_8340" data-name="패스 8340" d="M1720.432,866.653a2.329,2.329,0,1,1-2.293-2.327A2.371,2.371,0,0,1,1720.432,866.653Z" transform="translate(-58.163 -91.759)" fill="#fff"/>
    <path id="패스_8341" data-name="패스 8341" d="M1739.638,674.641a2.345,2.345,0,1,1-2.349-2.341A2.375,2.375,0,0,1,1739.638,674.641Z" transform="translate(-65.559 -17.685)" fill="#fff"/>
    <path id="패스_8342" data-name="패스 8342" d="M1612.506,744.175a2.306,2.306,0,1,1,2.318-2.275A2.333,2.333,0,0,1,1612.506,744.175Z" transform="translate(-17.442 -43.632)" fill="#fff"/>
    <path id="패스_8343" data-name="패스 8343" d="M1804.531,739.564a2.306,2.306,0,1,1-2.318,2.274A2.333,2.333,0,0,1,1804.531,739.564Z" transform="translate(-91.506 -43.632)" fill="#fff"/>
    <path id="패스_8344" data-name="패스 8344" d="M1778.011,693.914a2.272,2.272,0,1,1-2.267-2.295A2.257,2.257,0,0,1,1778.011,693.914Z" transform="translate(-80.418 -25.137)" fill="#fff"/>
    <path id="패스_8345" data-name="패스 8345" d="M1641.35,691.619a2.272,2.272,0,1,1-2.282,2.279A2.257,2.257,0,0,1,1641.35,691.619Z" transform="translate(-28.573 -25.137)" fill="#fff"/>
    <path id="패스_8346" data-name="패스 8346" d="M1785.378,705.754a2.247,2.247,0,1,1,2.225-2.251A2.214,2.214,0,0,1,1785.378,705.754Z" transform="translate(-84.137 -28.856)" fill="#fff"/>
    <path id="패스_8347" data-name="패스 8347" d="M1804.576,801.753a2.247,2.247,0,1,1,2.226-2.25A2.215,2.215,0,0,1,1804.576,801.753Z" transform="translate(-91.543 -65.888)" fill="#fff"/>
    <path id="패스_8348" data-name="패스 8348" d="M1612.554,801.753a2.247,2.247,0,1,1,2.249-2.228A2.213,2.213,0,0,1,1612.554,801.753Z" transform="translate(-17.479 -65.888)" fill="#fff"/>
    <path id="패스_8349" data-name="패스 8349" d="M1631.747,701.259a2.247,2.247,0,1,1-2.239,2.237A2.214,2.214,0,0,1,1631.747,701.259Z" transform="translate(-24.885 -28.856)" fill="#fff"/>
    <path id="패스_8350" data-name="패스 8350" d="M1768.391,684.289a2.217,2.217,0,1,1-2.217-2.18A2.2,2.2,0,0,1,1768.391,684.289Z" transform="translate(-76.749 -21.469)" fill="#fff"/>
    <path id="패스_8351" data-name="패스 8351" d="M1650.937,686.542a2.217,2.217,0,1,1,2.253-2.142A2.2,2.2,0,0,1,1650.937,686.542Z" transform="translate(-32.31 -21.469)" fill="#fff"/>
    <path id="패스_8352" data-name="패스 8352" d="M1737.338,868.942a2.217,2.217,0,1,1,2.253-2.143A2.2,2.2,0,0,1,1737.338,868.942Z" transform="translate(-65.639 -91.83)" fill="#fff"/>
    <path id="패스_8353" data-name="패스 8353" d="M1622.162,715.338a2.206,2.206,0,1,1,2.225-2.187A2.22,2.22,0,0,1,1622.162,715.338Z" transform="translate(-21.208 -32.585)" fill="#fff"/>
    <path id="패스_8354" data-name="패스 8354" d="M1795,710.926a2.206,2.206,0,1,1-2.224,2.189A2.22,2.22,0,0,1,1795,710.926Z" transform="translate(-87.866 -32.585)" fill="#fff"/>
    <path id="패스_8355" data-name="패스 8355" d="M1681.987,866.745a2.206,2.206,0,1,1-2.193-2.219A2.221,2.221,0,0,1,1681.987,866.745Z" transform="translate(-43.427 -91.836)" fill="#fff"/>
    <path id="패스_8356" data-name="패스 8356" d="M1633.982,837.914a2.193,2.193,0,1,1-2.237-2.167A2.229,2.229,0,0,1,1633.982,837.914Z" transform="translate(-24.919 -80.735)" fill="#fff"/>
    <path id="패스_8357" data-name="패스 8357" d="M1708.62,667.333a2.193,2.193,0,1,1,2.162-2.242A2.229,2.229,0,0,1,1708.62,667.333Z" transform="translate(-54.545 -14.077)" fill="#fff"/>
    <path id="패스_8358" data-name="패스 8358" d="M1777.982,847.509a2.193,2.193,0,1,1-2.242-2.161A2.23,2.23,0,0,1,1777.982,847.509Z" transform="translate(-80.468 -84.438)" fill="#fff"/>
    <path id="패스_8359" data-name="패스 8359" d="M1785.33,840.133a2.193,2.193,0,1,1,2.252-2.152A2.23,2.23,0,0,1,1785.33,840.133Z" transform="translate(-84.17 -80.735)" fill="#fff"/>
    <path id="패스_8360" data-name="패스 8360" d="M1641.41,845.38a2.173,2.173,0,1,1-2.182,2.146A2.21,2.21,0,0,1,1641.41,845.38Z" transform="translate(-28.634 -84.451)" fill="#fff"/>
    <path id="패스_8361" data-name="패스 8361" d="M1689.446,663.082a2.11,2.11,0,1,1-2.115,2.087A2.078,2.078,0,0,1,1689.446,663.082Z" transform="translate(-47.19 -14.129)" fill="#fff"/>
    <path id="패스_8362" data-name="패스 8362" d="M1727.824,663.082a2.11,2.11,0,1,1-2.093,2.109A2.078,2.078,0,0,1,1727.824,663.082Z" transform="translate(-62.003 -14.129)" fill="#fff"/>
    <path id="패스_8363" data-name="패스 8363" d="M1660.65,672.682a2.11,2.11,0,1,1-2.119,2.082A2.078,2.078,0,0,1,1660.65,672.682Z" transform="translate(-36.081 -17.832)" fill="#fff"/>
    <path id="패스_8364" data-name="패스 8364" d="M1816.351,770.776a2.11,2.11,0,1,1-2.108-2.094A2.079,2.079,0,0,1,1816.351,770.776Z" transform="translate(-95.332 -54.864)" fill="#fff"/>
    <path id="패스_8365" data-name="패스 8365" d="M1795.008,830.5a2.111,2.111,0,1,1,2.143-2.059A2.079,2.079,0,0,1,1795.008,830.5Z" transform="translate(-87.926 -77.084)" fill="#fff"/>
    <path id="패스_8366" data-name="패스 8366" d="M1622.227,830.5a2.111,2.111,0,1,1,2.124-2.079A2.079,2.079,0,0,1,1622.227,830.5Z" transform="translate(-21.268 -77.083)" fill="#fff"/>
    <path id="패스_8367" data-name="패스 8367" d="M1758.751,674.8a2.11,2.11,0,1,1-2.082-2.12A2.079,2.079,0,0,1,1758.751,674.8Z" transform="translate(-73.113 -17.832)" fill="#fff"/>
    <path id="패스_8368" data-name="패스 8368" d="M1768.343,857.2a2.088,2.088,0,1,1-2.1-2.08A2.055,2.055,0,0,1,1768.343,857.2Z" transform="translate(-76.83 -88.207)" fill="#fff"/>
    <path id="패스_8369" data-name="패스 8369" d="M1806.743,722.813a2.088,2.088,0,1,1-2.082-2.1A2.056,2.056,0,0,1,1806.743,722.813Z" transform="translate(-91.643 -36.362)" fill="#fff"/>
    <path id="패스_8370" data-name="패스 8370" d="M1605.143,770.823a2.089,2.089,0,1,1-2.071-2.106A2.056,2.056,0,0,1,1605.143,770.823Z" transform="translate(-13.875 -54.878)" fill="#fff"/>
    <path id="패스_8371" data-name="패스 8371" d="M1651.022,859.294a2.089,2.089,0,1,1,2.12-2.057A2.057,2.057,0,0,1,1651.022,859.294Z" transform="translate(-32.391 -88.207)" fill="#fff"/>
    <path id="패스_8372" data-name="패스 8372" d="M1612.671,724.888a2.073,2.073,0,1,1,2.066-2.043A2.059,2.059,0,0,1,1612.671,724.888Z" transform="translate(-17.588 -36.371)" fill="#fff"/>
    <path id="패스_8373" data-name="패스 8373" d="M1814.374,749.545a2.074,2.074,0,1,1-2.179,1.924A2.062,2.062,0,0,1,1814.374,749.545Z" transform="translate(-95.356 -47.481)" fill="#fff"/>
    <path id="패스_8374" data-name="패스 8374" d="M1605.134,751.643a2.062,2.062,0,1,1-2.042-2.082A2.074,2.074,0,0,1,1605.134,751.643Z" transform="translate(-13.892 -47.488)" fill="#fff"/>
    <path id="패스_8375" data-name="패스 8375" d="M1816.334,790.04a2.062,2.062,0,1,1-2.044-2.079A2.074,2.074,0,0,1,1816.334,790.04Z" transform="translate(-95.363 -62.301)" fill="#fff"/>
    <path id="패스_8376" data-name="패스 8376" d="M1804.683,816.784a2.048,2.048,0,1,1-2.05,2.063A2.074,2.074,0,0,1,1804.683,816.784Z" transform="translate(-91.668 -73.42)" fill="#fff"/>
    <path id="패스_8377" data-name="패스 8377" d="M1603.055,792.079a2.048,2.048,0,1,1,2.072-2.041A2.077,2.077,0,0,1,1603.055,792.079Z" transform="translate(-13.901 -62.309)" fill="#fff"/>
    <path id="패스_8378" data-name="패스 8378" d="M1710.728,876.4a2.047,2.047,0,1,1-2.1-2.017A2.075,2.075,0,0,1,1710.728,876.4Z" transform="translate(-54.636 -95.639)" fill="#fff"/>
    <path id="패스_8379" data-name="패스 8379" d="M1612.7,820.871a2.027,2.027,0,1,1,2.025-2.011A2.066,2.066,0,0,1,1612.7,820.871Z" transform="translate(-17.617 -73.432)" fill="#fff"/>
    <path id="패스_8380" data-name="패스 8380" d="M1727.884,874.466a2,2,0,1,1-1.969,2.044A2.006,2.006,0,0,1,1727.884,874.466Z" transform="translate(-62.074 -95.671)" fill="#fff"/>
    <path id="패스_8381" data-name="패스 8381" d="M1756.732,868.86a2,2,0,1,1,1.977-2.035A2.007,2.007,0,0,1,1756.732,868.86Z" transform="translate(-73.184 -91.968)" fill="#fff"/>
    <path id="패스_8382" data-name="패스 8382" d="M1691.509,876.439a2,2,0,1,1-2.039-1.974A2.006,2.006,0,0,1,1691.509,876.439Z" transform="translate(-47.261 -95.671)" fill="#fff"/>
    <path id="패스_8383" data-name="패스 8383" d="M1660.685,868.86a2,2,0,1,1,2.024-1.988A2.006,2.006,0,0,1,1660.685,868.86Z" transform="translate(-36.151 -91.967)" fill="#fff"/>
    <path id="패스_8384" data-name="패스 8384" d="M1747.121,667.247a1.961,1.961,0,1,1,1.975-1.929A1.933,1.933,0,0,1,1747.121,667.247Z" transform="translate(-69.503 -14.223)" fill="#fff"/>
    <path id="패스_8385" data-name="패스 8385" d="M1670.321,663.325a1.961,1.961,0,1,1-1.947,1.956A1.934,1.934,0,0,1,1670.321,663.325Z" transform="translate(-39.878 -14.223)" fill="#fff"/>
    <path id="패스_8386" data-name="패스 8386" d="M1816.282,732.481a1.923,1.923,0,1,1-1.934-1.894A1.91,1.91,0,0,1,1816.282,732.481Z" transform="translate(-95.45 -40.169)" fill="#fff"/>
    <path id="패스_8387" data-name="패스 8387" d="M1605.081,732.494a1.923,1.923,0,1,1-1.921-1.907A1.908,1.908,0,0,1,1605.081,732.494Z" transform="translate(-13.979 -40.169)" fill="#fff"/>
    <path id="패스_8388" data-name="패스 8388" d="M1816.271,809.342a1.894,1.894,0,1,1-1.862-1.908A1.934,1.934,0,0,1,1816.271,809.342Z" transform="translate(-95.467 -69.813)" fill="#fff"/>
    <path id="패스_8389" data-name="패스 8389" d="M1605.062,809.315a1.868,1.868,0,1,1-1.915-1.84A1.9,1.9,0,0,1,1605.062,809.315Z" transform="translate(-14.013 -69.829)" fill="#fff"/>
    <path id="패스_8390" data-name="패스 8390" d="M1718.42,653.876a1.869,1.869,0,1,1-1.9,1.86A1.9,1.9,0,0,1,1718.42,653.876Z" transform="translate(-58.452 -10.578)" fill="#fff"/>
    <path id="패스_8391" data-name="패스 8391" d="M1785.6,682.676a1.869,1.869,0,1,1-1.875,1.879A1.9,1.9,0,0,1,1785.6,682.676Z" transform="translate(-84.375 -21.687)" fill="#fff"/>
    <path id="패스_8392" data-name="패스 8392" d="M1699.189,653.876a1.868,1.868,0,1,1-1.864,1.891A1.9,1.9,0,0,1,1699.189,653.876Z" transform="translate(-51.046 -10.578)" fill="#fff"/>
    <path id="패스_8393" data-name="패스 8393" d="M1624.246,694.19a1.829,1.829,0,1,1-1.789-1.85A1.811,1.811,0,0,1,1624.246,694.19Z" transform="translate(-21.444 -25.415)" fill="#fff"/>
    <path id="패스_8394" data-name="패스 8394" d="M1797.046,694.16a1.829,1.829,0,1,1-1.819-1.82A1.812,1.812,0,0,1,1797.046,694.16Z" transform="translate(-88.103 -25.415)" fill="#fff"/>
    <path id="패스_8395" data-name="패스 8395" d="M1633.846,684.56a1.829,1.829,0,1,1-1.819-1.82A1.812,1.812,0,0,1,1633.846,684.56Z" transform="translate(-25.148 -21.712)" fill="#fff"/>
    <path id="패스_8396" data-name="패스 8396" d="M1749.046,876.6a1.829,1.829,0,1,1-1.777-1.861A1.813,1.813,0,0,1,1749.046,876.6Z" transform="translate(-69.586 -95.776)" fill="#fff"/>
    <path id="패스_8397" data-name="패스 8397" d="M1776.046,676.779a1.78,1.78,0,1,1,1.782-1.759A1.76,1.76,0,0,1,1776.046,676.779Z" transform="translate(-80.727 -18.04)" fill="#fff"/>
    <path id="패스_8398" data-name="패스 8398" d="M1643.428,674.995a1.78,1.78,0,1,1-1.767-1.775A1.759,1.759,0,0,1,1643.428,674.995Z" transform="translate(-28.881 -18.04)" fill="#fff"/>
    <path id="패스_8399" data-name="패스 8399" d="M1806.628,703.79a1.78,1.78,0,1,1-1.772-1.77A1.76,1.76,0,0,1,1806.628,703.79Z" transform="translate(-91.836 -29.149)" fill="#fff"/>
    <path id="패스_8400" data-name="패스 8400" d="M1595.428,780.609a1.78,1.78,0,1,1-1.753-1.789A1.759,1.759,0,0,1,1595.428,780.609Z" transform="translate(-10.365 -58.775)" fill="#fff"/>
    <path id="패스_8401" data-name="패스 8401" d="M1824.055,763.18a1.78,1.78,0,1,1,1.773-1.768A1.76,1.76,0,0,1,1824.055,763.18Z" transform="translate(-99.243 -51.369)" fill="#fff"/>
    <path id="패스_8402" data-name="패스 8402" d="M1593.644,759.62a1.78,1.78,0,1,1-1.775,1.767A1.76,1.76,0,0,1,1593.644,759.62Z" transform="translate(-10.365 -51.369)" fill="#fff"/>
    <path id="패스_8403" data-name="패스 8403" d="M1824.024,778.82a1.78,1.78,0,1,1-1.755,1.786A1.759,1.759,0,0,1,1824.024,778.82Z" transform="translate(-99.243 -58.775)" fill="#fff"/>
    <path id="패스_8404" data-name="패스 8404" d="M1672.235,876.611a1.8,1.8,0,1,1-1.795-1.822A1.766,1.766,0,0,1,1672.235,876.611Z" transform="translate(-39.979 -95.795)" fill="#fff"/>
    <path id="패스_8405" data-name="패스 8405" d="M1614.623,703.867a1.767,1.767,0,1,1-1.726-1.826A1.783,1.783,0,0,1,1614.623,703.867Z" transform="translate(-17.78 -29.157)" fill="#fff"/>
    <path id="패스_8406" data-name="패스 8406" d="M1737.645,654.041a1.767,1.767,0,1,1-1.755,1.8A1.781,1.781,0,0,1,1737.645,654.041Z" transform="translate(-65.922 -10.641)" fill="#fff"/>
    <path id="패스_8407" data-name="패스 8407" d="M1681.823,655.778a1.767,1.767,0,1,1-1.815-1.737A1.78,1.78,0,0,1,1681.823,655.778Z" transform="translate(-43.703 -10.641)" fill="#fff"/>
    <path id="패스_8408" data-name="패스 8408" d="M1632.047,859.167a1.75,1.75,0,1,1,1.77-1.71A1.783,1.783,0,0,1,1632.047,859.167Z" transform="translate(-25.197 -88.419)" fill="#fff"/>
    <path id="패스_8409" data-name="패스 8409" d="M1787.417,857.4a1.749,1.749,0,1,1-1.747-1.733A1.786,1.786,0,0,1,1787.417,857.4Z" transform="translate(-84.449 -88.42)" fill="#fff"/>
    <path id="패스_8410" data-name="패스 8410" d="M1797.017,847.816a1.749,1.749,0,1,1-1.733-1.748A1.783,1.783,0,0,1,1797.017,847.816Z" transform="translate(-88.152 -84.716)" fill="#fff"/>
    <path id="패스_8411" data-name="패스 8411" d="M1624.216,847.831a1.75,1.75,0,1,1-1.719-1.762A1.783,1.783,0,0,1,1624.216,847.831Z" transform="translate(-21.494 -84.716)" fill="#fff"/>
    <path id="패스_8412" data-name="패스 8412" d="M1824.082,743.958a1.723,1.723,0,1,1,1.726-1.74A1.755,1.755,0,0,1,1824.082,743.958Z" transform="translate(-99.278 -43.997)" fill="#fff"/>
    <path id="패스_8413" data-name="패스 8413" d="M1701.007,886.231a1.724,1.724,0,1,1-1.746-1.719A1.753,1.753,0,0,1,1701.007,886.231Z" transform="translate(-51.136 -99.546)" fill="#fff"/>
    <path id="패스_8414" data-name="패스 8414" d="M1720.207,886.222a1.724,1.724,0,1,1-1.755-1.71A1.752,1.752,0,0,1,1720.207,886.222Z" transform="translate(-58.543 -99.546)" fill="#fff"/>
    <path id="패스_8415" data-name="패스 8415" d="M1651.3,667.143a1.68,1.68,0,1,1,1.7-1.665A1.66,1.66,0,0,1,1651.3,667.143Z" transform="translate(-32.648 -14.399)" fill="#fff"/>
    <path id="패스_8416" data-name="패스 8416" d="M1768.191,665.435a1.68,1.68,0,1,1-1.707-1.653A1.661,1.661,0,0,1,1768.191,665.435Z" transform="translate(-77.086 -14.399)" fill="#fff"/>
    <path id="패스_8417" data-name="패스 8417" d="M1593.727,743.943a1.68,1.68,0,1,1,1.665-1.7A1.66,1.66,0,0,1,1593.727,743.943Z" transform="translate(-10.428 -44.025)" fill="#fff"/>
    <path id="패스_8418" data-name="패스 8418" d="M1806.592,838.271a1.68,1.68,0,1,1-1.671-1.689A1.66,1.66,0,0,1,1806.592,838.271Z" transform="translate(-91.899 -81.057)" fill="#fff"/>
    <path id="패스_8419" data-name="패스 8419" d="M1614.591,838.278a1.68,1.68,0,1,1-1.665-1.7A1.66,1.66,0,0,1,1614.591,838.278Z" transform="translate(-17.834 -81.057)" fill="#fff"/>
    <path id="패스_8420" data-name="패스 8420" d="M1641.76,868.731a1.65,1.65,0,1,1,1.62-1.642A1.619,1.619,0,0,1,1641.76,868.731Z" transform="translate(-28.964 -92.186)" fill="#fff"/>
    <path id="패스_8421" data-name="패스 8421" d="M1776.165,865.432a1.65,1.65,0,1,1-1.683,1.578A1.623,1.623,0,0,1,1776.165,865.432Z" transform="translate(-80.808 -92.186)" fill="#fff"/>
    <path id="패스_8422" data-name="패스 8422" d="M1595.38,799.884a1.65,1.65,0,1,1-1.611-1.652A1.62,1.62,0,0,1,1595.38,799.884Z" transform="translate(-10.447 -66.263)" fill="#fff"/>
    <path id="패스_8423" data-name="패스 8423" d="M1814.537,715.131a1.65,1.65,0,1,1,1.643-1.62A1.619,1.619,0,0,1,1814.537,715.131Z" transform="translate(-95.622 -32.934)" fill="#fff"/>
    <path id="패스_8424" data-name="패스 8424" d="M1604.98,713.474a1.65,1.65,0,1,1-1.62-1.642A1.619,1.619,0,0,1,1604.98,713.474Z" transform="translate(-14.151 -32.934)" fill="#fff"/>
    <path id="패스_8425" data-name="패스 8425" d="M1825.78,799.879a1.65,1.65,0,1,1-1.615-1.647A1.62,1.62,0,0,1,1825.78,799.879Z" transform="translate(-99.325 -66.263)" fill="#fff"/>
    <path id="패스_8426" data-name="패스 8426" d="M1680.125,887.918a1.615,1.615,0,1,1,1.641-1.552A1.63,1.63,0,0,1,1680.125,887.918Z" transform="translate(-43.798 -99.614)" fill="#fff"/>
    <path id="패스_8427" data-name="패스 8427" d="M1737.753,884.689a1.615,1.615,0,1,1-1.615,1.576A1.629,1.629,0,0,1,1737.753,884.689Z" transform="translate(-66.018 -99.614)" fill="#fff"/>
    <path id="패스_8428" data-name="패스 8428" d="M1603.34,830.31a1.594,1.594,0,1,1,1.619-1.569A1.636,1.636,0,0,1,1603.34,830.31Z" transform="translate(-14.185 -77.408)" fill="#fff"/>
    <path id="패스_8429" data-name="패스 8429" d="M1814.543,827.122a1.594,1.594,0,1,1-1.573,1.616A1.637,1.637,0,0,1,1814.543,827.122Z" transform="translate(-95.656 -77.408)" fill="#fff"/>
    <path id="패스_8430" data-name="패스 8430" d="M1757.016,654.381a1.558,1.558,0,1,1-1.586,1.512A1.575,1.575,0,0,1,1757.016,654.381Z" transform="translate(-73.459 -10.772)" fill="#fff"/>
    <path id="패스_8431" data-name="패스 8431" d="M1768.145,876.751a1.558,1.558,0,1,1-1.527-1.57A1.576,1.576,0,0,1,1768.145,876.751Z" transform="translate(-77.163 -95.946)" fill="#fff"/>
    <path id="패스_8432" data-name="패스 8432" d="M1651.411,878.3a1.558,1.558,0,1,1,1.534-1.563A1.577,1.577,0,0,1,1651.411,878.3Z" transform="translate(-32.724 -95.947)" fill="#fff"/>
    <path id="패스_8433" data-name="패스 8433" d="M1710.545,646.362a1.558,1.558,0,1,1-1.516-1.581A1.575,1.575,0,0,1,1710.545,646.362Z" transform="translate(-54.943 -7.069)" fill="#fff"/>
    <path id="패스_8434" data-name="패스 8434" d="M1595.319,723.157a1.488,1.488,0,1,1-1.514-1.463A1.462,1.462,0,0,1,1595.319,723.157Z" transform="translate(-10.549 -36.739)" fill="#fff"/>
    <path id="패스_8435" data-name="패스 8435" d="M1661.049,654.454a1.514,1.514,0,1,1-1.546,1.442A1.486,1.486,0,0,1,1661.049,654.454Z" transform="translate(-36.455 -10.8)" fill="#fff"/>
    <path id="패스_8436" data-name="패스 8436" d="M1689.839,644.9a1.488,1.488,0,1,1-1.495,1.481A1.461,1.461,0,0,1,1689.839,644.9Z" transform="translate(-47.581 -7.113)" fill="#fff"/>
    <path id="패스_8437" data-name="패스 8437" d="M1729.719,646.359a1.488,1.488,0,1,1-1.512-1.464A1.461,1.461,0,0,1,1729.719,646.359Z" transform="translate(-62.394 -7.113)" fill="#fff"/>
    <path id="패스_8438" data-name="패스 8438" d="M1825.719,723.159a1.488,1.488,0,1,1-1.512-1.464A1.461,1.461,0,0,1,1825.719,723.159Z" transform="translate(-99.426 -36.739)" fill="#fff"/>
    <path id="패스_8439" data-name="패스 8439" d="M1833.848,772.665a1.471,1.471,0,1,1,1.466-1.44A1.482,1.482,0,0,1,1833.848,772.665Z" transform="translate(-103.14 -55.266)" fill="#fff"/>
    <path id="패스_8440" data-name="패스 8440" d="M1584.267,769.722a1.472,1.472,0,1,1-1.5,1.41A1.486,1.486,0,0,1,1584.267,769.722Z" transform="translate(-6.855 -55.266)" fill="#fff"/>
    <path id="패스_8441" data-name="패스 8441" d="M1593.842,817.757a1.45,1.45,0,1,1-1.436,1.482A1.489,1.489,0,0,1,1593.842,817.757Z" transform="translate(-10.573 -73.795)" fill="#fff"/>
    <path id="패스_8442" data-name="패스 8442" d="M1825.7,819.227a1.45,1.45,0,1,1-1.448-1.469A1.487,1.487,0,0,1,1825.7,819.227Z" transform="translate(-99.449 -73.796)" fill="#fff"/>
    <path id="패스_8443" data-name="패스 8443" d="M1832.406,751.95a1.45,1.45,0,1,1,1.411,1.506A1.49,1.49,0,0,1,1832.406,751.95Z" transform="translate(-103.153 -47.872)" fill="#fff"/>
    <path id="패스_8444" data-name="패스 8444" d="M1833.9,791.843a1.412,1.412,0,1,1,1.389-1.417A1.424,1.424,0,0,1,1833.9,791.843Z" transform="translate(-103.177 -62.709)" fill="#fff"/>
    <path id="패스_8445" data-name="패스 8445" d="M1585.691,752.037a1.412,1.412,0,1,1-1.387-1.418A1.425,1.425,0,0,1,1585.691,752.037Z" transform="translate(-6.893 -47.896)" fill="#fff"/>
    <path id="패스_8446" data-name="패스 8446" d="M1584.276,791.825a1.365,1.365,0,1,1,1.4-1.3A1.338,1.338,0,0,1,1584.276,791.825Z" transform="translate(-6.923 -62.739)" fill="#fff"/>
    <path id="패스_8447" data-name="패스 8447" d="M1758.474,886.458a1.365,1.365,0,1,1-1.33-1.362A1.337,1.337,0,0,1,1758.474,886.458Z" transform="translate(-73.581 -99.771)" fill="#fff"/>
    <path id="패스_8448" data-name="패스 8448" d="M1661.122,885.1a1.365,1.365,0,1,1-1.378,1.314A1.337,1.337,0,0,1,1661.122,885.1Z" transform="translate(-36.549 -99.771)" fill="#fff"/>
    <path id="패스_8449" data-name="패스 8449" d="M1710.474,896.036a1.365,1.365,0,1,1-1.353-1.34A1.335,1.335,0,0,1,1710.474,896.036Z" transform="translate(-55.065 -103.474)" fill="#fff"/>
    <path id="패스_8450" data-name="패스 8450" d="M1795.5,673.9a1.365,1.365,0,1,1-1.351,1.342A1.335,1.335,0,0,1,1795.5,673.9Z" transform="translate(-88.394 -18.3)" fill="#fff"/>
    <path id="패스_8451" data-name="패스 8451" d="M1806.464,684.841a1.337,1.337,0,1,1-1.392-1.3A1.324,1.324,0,0,1,1806.464,684.841Z" transform="translate(-92.115 -22.02)" fill="#fff"/>
    <path id="패스_8452" data-name="패스 8452" d="M1614.463,684.91a1.338,1.338,0,1,1-1.324-1.369A1.325,1.325,0,0,1,1614.463,684.91Z" transform="translate(-18.05 -22.021)" fill="#fff"/>
    <path id="패스_8453" data-name="패스 8453" d="M1728.308,897.407a1.319,1.319,0,1,1,1.348-1.27A1.337,1.337,0,0,1,1728.308,897.407Z" transform="translate(-62.501 -103.503)" fill="#fff"/>
    <path id="패스_8454" data-name="패스 8454" d="M1691.256,896.106a1.319,1.319,0,1,1-1.283-1.335A1.336,1.336,0,0,1,1691.256,896.106Z" transform="translate(-47.687 -103.503)" fill="#fff"/>
    <path id="패스_8455" data-name="패스 8455" d="M1624.063,675.3a1.338,1.338,0,1,1-1.337-1.356A1.324,1.324,0,0,1,1624.063,675.3Z" transform="translate(-21.753 -18.318)" fill="#fff"/>
    <path id="패스_8456" data-name="패스 8456" d="M1787.256,665.723a1.319,1.319,0,1,1-1.265-1.353A1.337,1.337,0,0,1,1787.256,665.723Z" transform="translate(-84.719 -14.625)" fill="#fff"/>
    <path id="패스_8457" data-name="패스 8457" d="M1672.056,646.515a1.319,1.319,0,1,1-1.275-1.344A1.338,1.338,0,0,1,1672.056,646.515Z" transform="translate(-40.281 -7.219)" fill="#fff"/>
    <path id="패스_8458" data-name="패스 8458" d="M1747.508,647.807a1.319,1.319,0,1,1,1.348-1.27A1.337,1.337,0,0,1,1747.508,647.807Z" transform="translate(-69.907 -7.219)" fill="#fff"/>
    <path id="패스_8459" data-name="패스 8459" d="M1633.656,665.67a1.318,1.318,0,1,1-1.32-1.3A1.339,1.339,0,0,1,1633.656,665.67Z" transform="translate(-25.468 -14.626)" fill="#fff"/>
    <path id="패스_8460" data-name="패스 8460" d="M1833.952,731.618a1.29,1.29,0,1,1-1.286,1.257A1.327,1.327,0,0,1,1833.952,731.618Z" transform="translate(-103.253 -40.567)" fill="#fff"/>
    <path id="패스_8461" data-name="패스 8461" d="M1814.724,693.218a1.29,1.29,0,1,1-1.258,1.285A1.327,1.327,0,0,1,1814.724,693.218Z" transform="translate(-95.847 -25.754)" fill="#fff"/>
    <path id="패스_8462" data-name="패스 8462" d="M1604.846,694.5a1.29,1.29,0,1,1-1.257-1.286A1.327,1.327,0,0,1,1604.846,694.5Z" transform="translate(-14.376 -25.754)" fill="#fff"/>
    <path id="패스_8463" data-name="패스 8463" d="M1584.421,731.706a1.236,1.236,0,1,1-1.266,1.167A1.225,1.225,0,0,1,1584.421,731.706Z" transform="translate(-7.004 -40.601)" fill="#fff"/>
    <path id="패스_8464" data-name="패스 8464" d="M1806.426,857.777a1.236,1.236,0,1,1-1.163-1.27A1.224,1.224,0,0,1,1806.426,857.777Z" transform="translate(-92.178 -88.742)" fill="#fff"/>
    <path id="패스_8465" data-name="패스 8465" d="M1796.826,867.356a1.236,1.236,0,1,1-1.184-1.251A1.223,1.223,0,0,1,1796.826,867.356Z" transform="translate(-88.475 -92.445)" fill="#fff"/>
    <path id="패스_8466" data-name="패스 8466" d="M1614.426,857.736a1.236,1.236,0,1,1-1.2-1.23A1.224,1.224,0,0,1,1614.426,857.736Z" transform="translate(-18.114 -88.743)" fill="#fff"/>
    <path id="패스_8467" data-name="패스 8467" d="M1604.8,848.18a1.176,1.176,0,1,1-1.157-1.176A1.184,1.184,0,0,1,1604.8,848.18Z" transform="translate(-14.448 -85.077)" fill="#fff"/>
    <path id="패스_8468" data-name="패스 8468" d="M1814.8,849.354a1.176,1.176,0,1,1,1.208-1.125A1.185,1.185,0,0,1,1814.8,849.354Z" transform="translate(-95.919 -85.076)" fill="#fff"/>
    <path id="패스_8469" data-name="패스 8469" d="M1787.2,876.96a1.176,1.176,0,1,1-1.176-1.156A1.185,1.185,0,0,1,1787.2,876.96Z" transform="translate(-84.81 -96.187)" fill="#fff"/>
    <path id="패스_8470" data-name="패스 8470" d="M1699.63,635.8a1.176,1.176,0,1,1-1.178,1.155A1.185,1.185,0,0,1,1699.63,635.8Z" transform="translate(-51.48 -3.606)" fill="#fff"/>
    <path id="패스_8471" data-name="패스 8471" d="M1720,636.977a1.176,1.176,0,1,1-1.16-1.173A1.184,1.184,0,0,1,1720,636.977Z" transform="translate(-58.887 -3.606)" fill="#fff"/>
    <path id="패스_8472" data-name="패스 8472" d="M1777.611,656.2a1.2,1.2,0,1,1-1.183-1.231A1.174,1.174,0,0,1,1777.611,656.2Z" transform="translate(-81.092 -10.999)" fill="#fff"/>
    <path id="패스_8473" data-name="패스 8473" d="M1642.022,657.363a1.2,1.2,0,1,1,1.189-1.224A1.171,1.171,0,0,1,1642.022,657.363Z" transform="translate(-29.247 -10.999)" fill="#fff"/>
    <path id="패스_8474" data-name="패스 8474" d="M1595.2,704.207a1.176,1.176,0,1,1-1.129-1.2A1.185,1.185,0,0,1,1595.2,704.207Z" transform="translate(-10.744 -29.528)" fill="#fff"/>
    <path id="패스_8475" data-name="패스 8475" d="M1825.6,704.171a1.176,1.176,0,1,1-1.165-1.167A1.184,1.184,0,0,1,1825.6,704.171Z" transform="translate(-99.622 -29.529)" fill="#fff"/>
    <path id="패스_8476" data-name="패스 8476" d="M1624.011,867.373a1.2,1.2,0,1,1-1.208-1.205A1.171,1.171,0,0,1,1624.011,867.373Z" transform="translate(-21.84 -92.47)" fill="#fff"/>
    <path id="패스_8477" data-name="패스 8477" d="M1633.6,876.953a1.176,1.176,0,1,1-1.184-1.148A1.186,1.186,0,0,1,1633.6,876.953Z" transform="translate(-25.558 -96.187)" fill="#fff"/>
    <path id="패스_8478" data-name="패스 8478" d="M1834.039,810.963a1.2,1.2,0,1,1,1.173-1.241A1.171,1.171,0,0,1,1834.039,810.963Z" transform="translate(-103.312 -70.25)" fill="#fff"/>
    <path id="패스_8479" data-name="패스 8479" d="M1584.414,808.568a1.2,1.2,0,1,1-1.2,1.216A1.171,1.171,0,0,1,1584.414,808.568Z" transform="translate(-7.028 -70.25)" fill="#fff"/>
    <path id="패스_8480" data-name="패스 8480" d="M1748.792,896.223a1.146,1.146,0,1,1-1.1-1.172A1.187,1.187,0,0,1,1748.792,896.223Z" transform="translate(-70.015 -103.611)" fill="#fff"/>
    <path id="패스_8481" data-name="패스 8481" d="M1671.992,896.174a1.146,1.146,0,1,1-1.152-1.122A1.189,1.189,0,0,1,1671.992,896.174Z" transform="translate(-40.39 -103.612)" fill="#fff"/>
    <path id="패스_8482" data-name="패스 8482" d="M1843.648,762.921a1.087,1.087,0,1,1,1.12-1.014A1.068,1.068,0,0,1,1843.648,762.921Z" transform="translate(-107.084 -51.803)" fill="#fff"/>
    <path id="패스_8483" data-name="패스 8483" d="M1824.477,839.721a1.087,1.087,0,1,1,1.093-1.043A1.067,1.067,0,0,1,1824.477,839.721Z" transform="translate(-99.678 -81.43)" fill="#fff"/>
    <path id="패스_8484" data-name="패스 8484" d="M1766.916,647.707a1.046,1.046,0,1,1,1.04-1.017A1.03,1.03,0,0,1,1766.916,647.707Z" transform="translate(-77.484 -7.391)" fill="#fff"/>
    <path id="패스_8485" data-name="패스 8485" d="M1681.555,637.067a1.047,1.047,0,1,1-1-1.053A1.029,1.029,0,0,1,1681.555,637.067Z" transform="translate(-44.155 -3.687)" fill="#fff"/>
    <path id="패스_8486" data-name="패스 8486" d="M1738.108,638.107a1.046,1.046,0,1,1,1.047-1.009A1.03,1.03,0,0,1,1738.108,638.107Z" transform="translate(-66.374 -3.687)" fill="#fff"/>
    <path id="패스_8487" data-name="패스 8487" d="M1776.481,885.614a1.047,1.047,0,1,1-1.018,1.037A1.029,1.029,0,0,1,1776.481,885.614Z" transform="translate(-81.187 -99.971)" fill="#fff"/>
    <path id="패스_8488" data-name="패스 8488" d="M1642.1,885.614a1.046,1.046,0,1,1-1.034,1.022A1.029,1.029,0,0,1,1642.1,885.614Z" transform="translate(-29.342 -99.971)" fill="#fff"/>
    <path id="패스_8489" data-name="패스 8489" d="M1574.909,760.814a1.046,1.046,0,1,1-1.047,1.01A1.03,1.03,0,0,1,1574.909,760.814Z" transform="translate(-3.419 -51.829)" fill="#fff"/>
    <path id="패스_8490" data-name="패스 8490" d="M1574.928,780.014a1.047,1.047,0,1,1-1.067.99A1.031,1.031,0,0,1,1574.928,780.014Z" transform="translate(-3.419 -59.236)" fill="#fff"/>
    <path id="패스_8491" data-name="패스 8491" d="M1844.755,781.088a1.047,1.047,0,1,1-.981-1.074A1.031,1.031,0,0,1,1844.755,781.088Z" transform="translate(-107.109 -59.235)" fill="#fff"/>
    <path id="패스_8492" data-name="패스 8492" d="M1595.154,838.719a1.048,1.048,0,1,1-.952-1.1A1.03,1.03,0,0,1,1595.154,838.719Z" transform="translate(-10.825 -81.455)" fill="#fff"/>
    <path id="패스_8493" data-name="패스 8493" d="M1651.65,647.706a1.048,1.048,0,1,1,1.1-.952A1.03,1.03,0,0,1,1651.65,647.706Z" transform="translate(-33.045 -7.39)" fill="#fff"/>
    <path id="패스_8494" data-name="패스 8494" d="M1835.148,713.88a1.045,1.045,0,0,1-1.04,1.02,1.025,1.025,0,0,1-1-1.058.986.986,0,0,1,1-.978A1.024,1.024,0,0,1,1835.148,713.88Z" transform="translate(-103.424 -33.332)" fill="#fff"/>
    <path id="패스_8495" data-name="패스 8495" d="M1574.917,743.682a1,1,0,0,1-.942-1.031.98.98,0,0,1,1.048-.915.944.944,0,0,1,.9.986A.976.976,0,0,1,1574.917,743.682Z" transform="translate(-3.463 -44.467)" fill="#fff"/>
    <path id="패스_8496" data-name="패스 8496" d="M1584.531,714.882a1,1,0,0,1-.956-1.017.978.978,0,0,1,1.034-.931.946.946,0,0,1,.914.974A.976.976,0,0,1,1584.531,714.882Z" transform="translate(-7.166 -33.357)" fill="#fff"/>
    <path id="패스_8497" data-name="패스 8497" d="M1844.73,742.739a1,1,0,0,1-1.027.945.98.98,0,0,1-.919-1.045.945.945,0,0,1,.983-.9A.975.975,0,0,1,1844.73,742.739Z" transform="translate(-107.154 -44.47)" fill="#fff"/>
    <path id="패스_8498" data-name="패스 8498" d="M1699.763,904.927a1,1,0,0,1,.969,1,.977.977,0,0,1-1.021.945.946.946,0,0,1-.927-.961A.975.975,0,0,1,1699.763,904.927Z" transform="translate(-51.608 -107.421)" fill="#fff"/>
    <path id="패스_8499" data-name="패스 8499" d="M1718.963,904.927a1,1,0,0,1,.969,1,.977.977,0,0,1-1.021.945.946.946,0,0,1-.927-.961A.975.975,0,0,1,1718.963,904.927Z" transform="translate(-59.014 -107.421)" fill="#fff"/>
    <path id="패스_8500" data-name="패스 8500" d="M1844.718,800.37a.863.863,0,0,1-.955.883.9.9,0,0,1,.035-1.808C1844.386,799.447,1844.672,799.795,1844.718,800.37Z" transform="translate(-107.199 -66.731)" fill="#fff"/>
    <path id="패스_8501" data-name="패스 8501" d="M1574.959,799.421c.577.036.935.315.942.9a.9.9,0,0,1-1.808.066A.867.867,0,0,1,1574.959,799.421Z" transform="translate(-3.508 -66.722)" fill="#fff"/>
    <path id="패스_8502" data-name="패스 8502" d="M1834.156,828.221c.577.034.937.312.945.9a.9.9,0,0,1-1.808.071A.867.867,0,0,1,1834.156,828.221Z" transform="translate(-103.495 -77.832)" fill="#fff"/>
    <path id="패스_8503" data-name="패스 8503" d="M1767.008,895.47c.536.064.888.34.881.894a.869.869,0,0,1-1.738.026C1766.133,895.836,1766.473,895.55,1767.008,895.47Z" transform="translate(-77.595 -103.773)" fill="#fff"/>
    <path id="패스_8504" data-name="패스 8504" d="M1584.647,828.271c.531.088.873.379.841.932a.87.87,0,0,1-1.738-.05C1583.759,828.6,1584.108,828.326,1584.647,828.271Z" transform="translate(-7.234 -77.851)" fill="#fff"/>
    <path id="패스_8505" data-name="패스 8505" d="M1661.67,636.17c.213.328.567.64.6.987a.68.68,0,0,1-.843.756,1.147,1.147,0,0,1-.735-.795c-.007-.313.4-.636.624-.955Z" transform="translate(-36.917 -3.744)" fill="#fff"/>
    <path id="패스_8506" data-name="패스 8506" d="M1757.255,638.148c-.208-.331-.558-.649-.59-1a.679.679,0,0,1,.856-.74,1.146,1.146,0,0,1,.721.805c0,.314-.408.63-.639.945Z" transform="translate(-73.935 -3.831)" fill="#fff"/>
    <path id="패스_8507" data-name="패스 8507" d="M1652.021,895.359c.229.316.6.61.654.955a.677.677,0,0,1-.8.8,1.145,1.145,0,0,1-.776-.753c-.023-.313.366-.656.576-.987Z" transform="translate(-33.213 -103.73)" fill="#fff"/>
    <path id="패스_8508" data-name="패스 8508" d="M1680.818,904.958c.23.315.6.608.658.952a.678.678,0,0,1-.8.8,1.145,1.145,0,0,1-.779-.751c-.024-.312.364-.657.573-.988Z" transform="translate(-44.322 -107.433)" fill="#fff"/>
    <path id="패스_8509" data-name="패스 8509" d="M1739.216,906.173c-.316.229-.61.6-.954.654a.678.678,0,0,1-.8-.8,1.145,1.145,0,0,1,.754-.776c.313-.023.656.365.986.576C1739.208,905.941,1739.212,906.057,1739.216,906.173Z" transform="translate(-66.524 -107.545)" fill="#fff"/>
    <path id="패스_8510" data-name="패스 8510" d="M1613.679,666.93c-.666-.152-1.02-.426-.905-.9a1.139,1.139,0,0,1,.724-.7.6.6,0,0,1,.732.749C1614.175,666.384,1613.871,666.647,1613.679,666.93Z" transform="translate(-18.422 -14.989)" fill="#fff"/>
    <path id="패스_8511" data-name="패스 8511" d="M1844.079,724.53c-.666-.152-1.02-.426-.906-.9a1.139,1.139,0,0,1,.724-.7.6.6,0,0,1,.732.749C1844.576,723.984,1844.271,724.247,1844.079,724.53Z" transform="translate(-107.299 -37.208)" fill="#fff"/>
    <path id="패스_8512" data-name="패스 8512" d="M1815.979,675.468c-.152.666-.426,1.021-.9.906a1.139,1.139,0,0,1-.7-.724.6.6,0,0,1,.75-.732C1815.433,674.972,1815.7,675.276,1815.979,675.468Z" transform="translate(-96.192 -18.69)" fill="#fff"/>
    <path id="패스_8513" data-name="패스 8513" d="M1604.781,675.817c-.3.2-.609.56-.9.542a1.056,1.056,0,0,1-.708-.7.6.6,0,0,1,.739-.742c.308.05.575.351.861.539Z" transform="translate(-14.72 -18.691)" fill="#fff"/>
    <path id="패스_8514" data-name="패스 8514" d="M1709.677,628.531c-.666-.154-1.019-.429-.9-.9a1.141,1.141,0,0,1,.726-.7.605.605,0,0,1,.73.751C1710.175,627.986,1709.87,628.248,1709.677,628.531Z" transform="translate(-55.454 -0.176)" fill="#fff"/>
    <path id="패스_8515" data-name="패스 8515" d="M1805.306,666.921c-.189-.286-.488-.553-.539-.861-.079-.483.251-.776.75-.766s.812.326.714.8c-.062.305-.378.558-.581.834Z" transform="translate(-92.487 -14.982)" fill="#fff"/>
    <path id="패스_8516" data-name="패스 8516" d="M1623.137,655.253c.338.465.722.771.678.991-.057.286-.455.5-.706.752-.228-.245-.617-.476-.641-.739S1622.8,655.722,1623.137,655.253Z" transform="translate(-22.169 -11.109)" fill="#fff"/>
    <path id="패스_8517" data-name="패스 8517" d="M1824.771,684.054c.322.475.7.792.646,1.011-.066.284-.47.491-.728.731-.222-.253-.6-.5-.619-.76S1824.424,684.511,1824.771,684.054Z" transform="translate(-99.937 -22.219)" fill="#fff"/>
    <path id="패스_8518" data-name="패스 8518" d="M1728.782,626.455c.316.478.687.8.634,1.018-.069.283-.475.485-.736.722-.219-.254-.6-.5-.611-.765S1728.429,626.909,1728.782,626.455Z" transform="translate(-62.905 0)" fill="#fff"/>
    <path id="패스_8519" data-name="패스 8519" d="M1594.324,684.053c.343.461.731.762.69.983-.053.286-.449.509-.7.759-.232-.243-.623-.469-.649-.731S1594,684.525,1594.324,684.053Z" transform="translate(-11.059 -22.219)" fill="#fff"/>
    <path id="패스_8520" data-name="패스 8520" d="M1575.186,724.686c-.355-.453-.752-.744-.716-.966.047-.287.437-.519.68-.775.237.237.635.454.666.715S1575.5,724.209,1575.186,724.686Z" transform="translate(-3.653 -37.221)" fill="#fff"/>
    <path id="패스_8521" data-name="패스 8521" d="M1691.336,627.74c-.479.313-.8.682-1.02.628-.283-.07-.483-.478-.718-.74.256-.217.505-.6.769-.606S1690.885,627.385,1691.336,627.74Z" transform="translate(-48.065 -0.218)" fill="#fff"/>
    <path id="패스_8522" data-name="패스 8522" d="M1795.926,657.488c-.327-.472-.706-.785-.657-1,.063-.285.464-.5.72-.738.224.25.608.488.627.752S1796.268,657.026,1795.926,657.488Z" transform="translate(-88.826 -11.299)" fill="#fff"/>
    <path id="패스_8523" data-name="패스 8523" d="M1565.6,770.572c.3.471.622.747.587.965a.913.913,0,0,1-.64.576c-.162.025-.541-.366-.547-.578C1564.991,771.291,1565.289,771.039,1565.6,770.572Z" transform="translate(0 -55.593)" fill="#fff"/>
    <path id="패스_8524" data-name="패스 8524" d="M1613.59,876.172c.308.467.628.741.6.959a.912.912,0,0,1-.635.581c-.163.026-.545-.36-.554-.572C1612.988,876.9,1613.283,876.642,1613.59,876.172Z" transform="translate(-18.516 -96.329)" fill="#fff"/>
    <path id="패스_8525" data-name="패스 8525" d="M1805.614,878.293c-.317-.461-.642-.727-.613-.947a.908.908,0,0,1,.623-.593c.163-.029.553.349.565.561C1806.2,877.558,1805.911,877.818,1805.614,878.293Z" transform="translate(-92.581 -96.553)" fill="#fff"/>
    <path id="패스_8526" data-name="패스 8526" d="M1853.54,770.578c.332.448.666.7.644.924a.907.907,0,0,1-.6.614c-.163.034-.567-.33-.585-.541C1852.976,771.331,1853.259,771.061,1853.54,770.578Z" transform="translate(-111.096 -55.596)" fill="#fff"/>
    <path id="패스_8527" data-name="패스 8527" d="M1844.031,818.575c.289.48.575.746.557.989-.016.211-.413.582-.576.55a.907.907,0,0,1-.611-.6C1843.376,819.29,1843.707,819.03,1844.031,818.575Z" transform="translate(-107.394 -74.111)" fill="#fff"/>
    <path id="패스_8528" data-name="패스 8528" d="M1575.213,820.693c-.317-.461-.642-.727-.613-.947a.908.908,0,0,1,.623-.593c.163-.029.552.349.564.561C1575.8,819.958,1575.511,820.219,1575.213,820.693Z" transform="translate(-3.704 -74.334)" fill="#fff"/>
    <path id="패스_8529" data-name="패스 8529" d="M1786.419,645.774c.294.477.583.739.568.982-.013.211-.405.588-.568.558a.912.912,0,0,1-.619-.6C1785.773,646.5,1786.1,646.233,1786.419,645.774Z" transform="translate(-85.175 -7.452)" fill="#fff"/>
    <path id="패스_8530" data-name="패스 8530" d="M1815.165,868.693c-.294-.477-.583-.74-.568-.983.014-.211.406-.587.569-.557a.909.909,0,0,1,.618.6C1815.813,867.971,1815.485,868.235,1815.165,868.693Z" transform="translate(-96.284 -92.849)" fill="#fff"/>
    <path id="패스_8531" data-name="패스 8531" d="M1632.765,647.893c-.294-.477-.583-.74-.568-.983.014-.211.406-.587.569-.557a.91.91,0,0,1,.619.6C1633.413,647.171,1633.085,647.435,1632.765,647.893Z" transform="translate(-25.922 -7.675)" fill="#fff"/>
    <path id="패스_8532" data-name="패스 8532" d="M1604.94,867.782c-.48.289-.746.576-.989.557-.211-.016-.582-.413-.55-.576a.907.907,0,0,1,.6-.611C1604.227,867.128,1604.487,867.458,1604.94,867.782Z" transform="translate(-14.814 -92.849)" fill="#fff"/>
    <path id="패스_8533" data-name="패스 8533" d="M1825.669,858.195c-.413.262-.654.535-.88.523-.191-.01-.542-.4-.5-.535a.9.9,0,0,1,.586-.552C1825.046,857.6,1825.282,857.906,1825.669,858.195Z" transform="translate(-100.019 -89.176)" fill="#fff"/>
    <path id="패스_8534" data-name="패스 8534" d="M1595.266,858.226c-.422.247-.673.512-.9.492-.19-.017-.526-.42-.485-.554a.9.9,0,0,1,.608-.531C1594.667,857.608,1594.892,857.925,1595.266,858.226Z" transform="translate(-11.141 -89.177)" fill="#fff"/>
    <path id="패스_8535" data-name="패스 8535" d="M1835.27,694.975c-.407.272-.642.549-.869.543-.191-.006-.552-.386-.518-.522a.9.9,0,0,1,.573-.566C1834.632,694.394,1834.876,694.7,1835.27,694.975Z" transform="translate(-103.723 -26.22)" fill="#fff"/>
    <path id="패스_8536" data-name="패스 8536" d="M1623.24,887.8c-.279-.4-.561-.632-.558-.859,0-.192.334-.38.519-.569.2.2.516.37.568.6C1623.809,887.147,1623.512,887.4,1623.24,887.8Z" transform="translate(-22.252 -100.263)" fill="#fff"/>
    <path id="패스_8537" data-name="패스 8537" d="M1796.868,886.988c-.41.265-.65.539-.876.529-.19-.009-.545-.4-.509-.531a.9.9,0,0,1,.583-.557C1796.241,886.4,1796.48,886.7,1796.868,886.988Z" transform="translate(-88.909 -100.285)" fill="#fff"/>
    <path id="패스_8538" data-name="패스 8538" d="M1566.468,791c-.415.259-.658.53-.885.516-.19-.012-.538-.4-.5-.54a.9.9,0,0,1,.593-.547C1565.851,790.4,1566.085,790.711,1566.468,791Z" transform="translate(-0.032 -63.253)" fill="#fff"/>
    <path id="패스_8539" data-name="패스 8539" d="M1585.671,694.968c-.4.275-.638.554-.865.549-.191,0-.554-.382-.522-.517a.894.894,0,0,1,.569-.57C1585.029,694.393,1585.275,694.693,1585.671,694.968Z" transform="translate(-7.439 -26.22)" fill="#fff"/>
    <path id="패스_8540" data-name="패스 8540" d="M1853.613,789.94c.276.4.557.636.553.862,0,.191-.337.377-.524.565-.2-.2-.513-.373-.564-.606C1853.04,790.587,1853.338,790.339,1853.613,789.94Z" transform="translate(-111.126 -63.065)" fill="#fff"/>
    <path id="패스_8541" data-name="패스 8541" d="M1854.469,752.595c-.413.262-.654.535-.88.523-.19-.01-.542-.4-.5-.534a.9.9,0,0,1,.587-.553C1853.846,752,1854.082,752.307,1854.469,752.595Z" transform="translate(-111.129 -48.44)" fill="#fff"/>
    <path id="패스_8542" data-name="패스 8542" d="M1566.469,752.595c-.413.262-.654.535-.88.523-.19-.01-.542-.4-.5-.534a.9.9,0,0,1,.587-.553C1565.846,752,1566.082,752.307,1566.469,752.595Z" transform="translate(-0.032 -48.44)" fill="#fff"/>
    <path id="패스_8543" data-name="패스 8543" d="M1662.471,906.168c-.4.274-.638.554-.865.549-.191,0-.555-.382-.522-.517a.9.9,0,0,1,.569-.57C1661.829,905.593,1662.075,905.893,1662.471,906.168Z" transform="translate(-37.065 -107.691)" fill="#fff"/>
    <path id="패스_8544" data-name="패스 8544" d="M1756.589,906.186c.4-.276.635-.557.862-.553.192,0,.377.337.565.524-.2.2-.374.512-.606.563C1757.236,906.758,1756.988,906.46,1756.589,906.186Z" transform="translate(-73.907 -107.694)" fill="#fff"/>
    <path id="패스_8545" data-name="패스 8545" d="M1708.589,915.786c.4-.276.635-.557.862-.553.192,0,.377.337.565.524-.2.2-.374.512-.606.563C1709.236,916.358,1708.988,916.061,1708.589,915.786Z" transform="translate(-55.391 -111.397)" fill="#fff"/>
    <path id="패스_8546" data-name="패스 8546" d="M1835.17,848.628c-.334.227-.525.456-.716.455-.158,0-.315-.272-.472-.424.164-.169.305-.429.5-.478C1834.62,848.146,1834.829,848.394,1835.17,848.628Z" transform="translate(-103.762 -85.53)" fill="#fff"/>
    <path id="패스_8547" data-name="패스 8547" d="M1776.9,636.57c.214.341.436.541.428.732-.006.157-.329.453-.432.423a.773.773,0,0,1-.468-.484C1776.4,637.1,1776.658,636.9,1776.9,636.57Z" transform="translate(-81.56 -3.902)" fill="#fff"/>
    <path id="패스_8548" data-name="패스 8548" d="M1584.9,847.77c.214.342.436.541.429.732-.007.157-.33.453-.433.423a.774.774,0,0,1-.468-.484C1584.4,848.3,1584.658,848.1,1584.9,847.77Z" transform="translate(-7.496 -85.373)" fill="#fff"/>
    <path id="패스_8549" data-name="패스 8549" d="M1642.5,636.57c.215.341.437.54.431.73-.006.157-.328.455-.431.424a.776.776,0,0,1-.471-.482C1642,637.1,1642.256,636.9,1642.5,636.57Z" transform="translate(-29.714 -3.902)" fill="#fff"/>
    <path id="패스_8550" data-name="패스 8550" d="M1854.384,733.481c-.348.2-.555.418-.745.4-.157-.012-.442-.345-.407-.448a.772.772,0,0,1,.5-.453C1853.872,732.958,1854.063,733.223,1854.384,733.481Z" transform="translate(-111.186 -41.093)" fill="#fff"/>
    <path id="패스_8551" data-name="패스 8551" d="M1748.1,626.97c.215.341.437.54.43.73-.006.157-.328.455-.431.424a.776.776,0,0,1-.47-.482C1747.6,627.5,1747.856,627.3,1748.1,626.97Z" transform="translate(-70.45 -0.199)" fill="#fff"/>
    <path id="패스_8552" data-name="패스 8552" d="M1671.241,628.472c-.2-.292-.446-.5-.411-.641.05-.194.309-.334.479-.5.151.182.394.351.421.55C1671.75,628.025,1671.476,628.205,1671.241,628.472Z" transform="translate(-40.824 -0.339)" fill="#fff"/>
    <path id="패스_8553" data-name="패스 8553" d="M1690.556,914.983c.189.352.4.567.377.756-.017.157-.361.429-.464.391a.771.771,0,0,1-.435-.517C1690.014,915.473,1690.287,915.291,1690.556,914.983Z" transform="translate(-48.233 -111.3)" fill="#fff"/>
    <path id="패스_8554" data-name="패스 8554" d="M1728.864,916.539c-.216-.341-.438-.54-.431-.731.006-.157.328-.455.431-.424a.774.774,0,0,1,.471.483C1729.364,916.006,1729.109,916.207,1728.864,916.539Z" transform="translate(-63.045 -111.454)" fill="#fff"/>
  </g>
</svg>
