<?xml version="1.0" encoding="utf-8"?>
<!-- Generator: Adobe Illustrator 27.7.0, SVG Export Plug-In . SVG Version: 6.00 Build 0)  -->
<svg version="1.1" id="레이어_1" xmlns="http://www.w3.org/2000/svg" xmlns:xlink="http://www.w3.org/1999/xlink" x="0px"
	 y="0px" viewBox="0 0 49 16" style="enable-background:new 0 0 49 16;" xml:space="preserve">
<style type="text/css">
	.st0{fill:#1A1825;}
	.st1{fill:#FFFFFF;}
</style>
<g>
	<path class="st0" d="M49,8c0,4.4-3.6,8-8,8H8c-4.4,0-8-3.6-8-8l0,0c0-4.4,3.6-8,8-8h33C45.4,0,49,3.6,49,8L49,8z"/>
	<g>
		<path class="st1" d="M14.7,7.9c0.5,0.5,0.8,1.2,0.8,1.9v0c0,0.7-0.3,1.4-0.8,1.9c-0.5,0.5-1.2,0.8-1.9,0.8H8.8
			c-0.2,0-0.4-0.1-0.6-0.2C8.1,12.1,8,11.9,8,11.7V4.1c0-0.2,0.1-0.4,0.2-0.6c0.2-0.2,0.3-0.2,0.6-0.2h4.1c0.7,0,1.4,0.3,1.9,0.8
			c0.5,0.5,0.8,1.1,0.8,1.9C15.5,6.7,15.3,7.4,14.7,7.9z M12.9,7.2c0.3,0,0.6-0.1,0.8-0.4S14,6.3,14,6c0-0.3-0.1-0.6-0.3-0.8
			c-0.2-0.2-0.5-0.3-0.8-0.3H9.5v2.3H12.9L12.9,7.2z M12.9,11L12.9,11c0.3,0,0.6-0.1,0.8-0.3S14,10.1,14,9.8c0-0.3-0.1-0.6-0.3-0.8
			c-0.2-0.2-0.5-0.3-0.8-0.3h0H9.5V11H12.9z"/>
		<path class="st1" d="M23.4,11h-3.9V8.6h3.6c0.2,0,0.4-0.1,0.5-0.2c0.1-0.1,0.2-0.3,0.2-0.5c0-0.2-0.1-0.4-0.2-0.5
			c-0.2-0.1-0.3-0.2-0.5-0.2h-3.6V4.8h3.9c0.2,0,0.4-0.1,0.5-0.2c0.1-0.1,0.2-0.3,0.2-0.5c0-0.2-0.1-0.4-0.2-0.5
			c-0.1-0.1-0.3-0.2-0.5-0.2h-4.6c-0.2,0-0.4,0.1-0.5,0.2C18.1,3.7,18,3.9,18,4.1v7.6c0,0,0,0,0,0c0,0,0,0,0,0
			c0,0.2,0.1,0.4,0.2,0.5c0.1,0.1,0.3,0.2,0.5,0.2h4.6c0.2,0,0.4-0.1,0.5-0.2c0.1-0.1,0.2-0.3,0.2-0.5s-0.1-0.4-0.2-0.5
			C23.8,11,23.6,11,23.4,11z"/>
		<path class="st1" d="M32.1,3.3c0.2,0,0.3,0.1,0.5,0.2s0.2,0.3,0.2,0.5v0c0,0.2-0.1,0.3-0.2,0.5c-0.1,0.1-0.3,0.2-0.5,0.2H30v7
			c0,0.2-0.1,0.4-0.2,0.5c-0.1,0.1-0.3,0.2-0.5,0.2s-0.4-0.1-0.5-0.2c-0.1-0.1-0.2-0.3-0.2-0.5v-7h-2.1c-0.2,0-0.4-0.1-0.5-0.2
			S25.7,4.2,25.7,4v0c0-0.2,0.1-0.3,0.2-0.5s0.3-0.2,0.5-0.2H32.1z"/>
		<path class="st1" d="M41.7,11.4c0.1,0.1,0.1,0.2,0.1,0.3c0,0.2-0.1,0.4-0.2,0.5c-0.2,0.1-0.3,0.2-0.5,0.2c-0.3,0-0.5-0.1-0.7-0.4
			l-1.1-2.2h-4l-1.1,2.2c-0.1,0.3-0.4,0.4-0.7,0.4c-0.2,0-0.4-0.1-0.5-0.2c-0.1-0.1-0.2-0.3-0.2-0.5c0-0.1,0-0.2,0.1-0.3l3.8-7.6
			c0.1-0.3,0.4-0.4,0.7-0.4c0.3,0,0.5,0.1,0.7,0.4L41.7,11.4z M35.9,8.3h2.5l-1.3-2.6L35.9,8.3z"/>
	</g>
</g>
</svg>
