<svg xmlns="http://www.w3.org/2000/svg" xmlns:xlink="http://www.w3.org/1999/xlink" width="154" height="154" viewBox="0 0 154 154">
  <defs>
    <clipPath id="clip-맞춤형_크기_1">
      <rect width="154" height="154"/>
    </clipPath>
  </defs>
  <g id="맞춤형_크기_1" data-name="맞춤형 크기 – 1" clip-path="url(#clip-맞춤형_크기_1)">
    <g id="그룹_1" data-name="그룹 1" transform="matrix(0.485, -0.875, 0.875, 0.485, 191.222, 633.281)">
      <path id="패스_2915" data-name="패스 2915" d="M431.1-393a23.634,23.634,0,0,1,23.607,23.608A23.634,23.634,0,0,1,431.1-345.78a23.634,23.634,0,0,1-23.608-23.608A23.634,23.634,0,0,1,431.1-393m0-33.143a56.751,56.751,0,0,0-56.752,56.751A56.751,56.751,0,0,0,431.1-312.637a56.751,56.751,0,0,0,56.751-56.751A56.751,56.751,0,0,0,431.1-426.139Z"/>
      <path id="DOTORI_POSTER" data-name="DOTORI POSTER" d="M35.747,90.081c-2.68-.595-4.06-2.371-3.607-4.479l2.826.627c-.1.74.3,1.285,1.3,1.5.964.222,1.495-.053,1.614-.553.148-.556-.309-.98-1.3-1.422l-.88-.415c-2.292-1.027-3.114-2.4-2.758-4.071.488-2.124,2.437-2.941,5.265-2.321,2.887.649,4.493,2.279,3.922,4.958l-2.811-.624c.178-1.022-.421-1.712-1.587-1.971-1.012-.225-1.641.052-1.777.627-.109.526.286.935,1.471,1.474l1.075.49c1.876.857,2.871,2.068,2.49,3.744-.355,1.657-1.837,2.6-3.774,2.6A6.789,6.789,0,0,1,35.747,90.081Zm15.912-4.624c-1.029-3.552.759-6.164,3.729-7.023,3-.869,5.89.411,6.92,3.938,1.021,3.555-.744,6.159-3.745,7.028a6.385,6.385,0,0,1-1.776.261C54.5,89.661,52.479,88.292,51.659,85.457ZM56.1,80.88c-1.5.443-2.035,1.756-1.46,3.714s1.715,2.794,3.218,2.359c1.519-.441,2.046-1.751,1.476-3.719-.469-1.621-1.333-2.467-2.478-2.466A2.766,2.766,0,0,0,56.1,80.88Zm-43.432-3.73,1.522-1.809,2.639,2.222,5.634-6.695,2.275,1.917L19.1,79.479,21.738,81.7,20.217,83.51Zm59.211,1.213c-1.676-1.689-1.509-3.967.347-5.8l1.256-1.248-2.358-2.376,2.131-2.117,7.831,7.891-3.454,3.432a4.39,4.39,0,0,1-3.066,1.412A3.759,3.759,0,0,1,71.875,78.362Zm2.374-4.61a1.568,1.568,0,0,0-.142,2.392A1.549,1.549,0,0,0,76.478,76l.829-.825-2.228-2.245ZM2.207,59.421,4.382,58.5,6.4,63.263l1.85-.785L6.4,58.106l2.174-.922,1.848,4.372,1.85-.785-2.008-4.75,2.175-.923,3.178,7.519L5.392,66.953ZM80.094,49.81l.251-3,11.065.932-.251,3ZM0,46.736.331,41.87c.174-2.559,1.7-4.138,4.039-3.979a3.282,3.282,0,0,1,3.044,2.174l4.316-2.056-.223,3.27L7.681,43.059,7.6,44.236l3.69.25-.2,3Zm2.611-4.013-.079,1.169,2.787.189.08-1.169c.077-1.13-.276-1.82-1.242-1.878-.052,0-.1-.006-.151-.006C3.128,41.029,2.691,41.654,2.611,42.723ZM79.17,36.249l2.871-3.092-.37-1.12L78.163,33.2l-.943-2.856,10.543-3.486,1.529,4.63c.8,2.435-.01,4.471-2.238,5.208a3.278,3.278,0,0,1-3.637-.865L80.2,39.361Zm4.671-4.929.367,1.113c.355,1.075.942,1.581,1.857,1.27.935-.3,1.142-1.069.794-2.146l-.368-1.112ZM11.107,15.357l3.16-2.943c2.581-2.4,5.607-2.38,7.974.166s2.175,5.568-.383,7.95L18.675,23.5Zm4.738-1.014L15,15.129l4.181,4.5.9-.841c1.291-1.2,1.53-2.421-.064-4.134a3.19,3.19,0,0,0-2.233-1.271A2.937,2.937,0,0,0,15.845,14.342ZM69.26,20.252c-2.284-2.133-2.667-5.273-.165-7.967,2.529-2.7,5.67-2.52,7.954-.388,2.261,2.111,2.677,5.251.154,7.957a5.677,5.677,0,0,1-4.157,2.006A5.57,5.57,0,0,1,69.26,20.252Zm2.1-5.851c-1.393,1.493-1.516,2.9-.364,3.987,1.15,1.063,2.551.849,3.938-.651,1.4-1.494,1.52-2.907.376-3.976a2.253,2.253,0,0,0-1.553-.674A3.438,3.438,0,0,0,71.362,14.4ZM53.21,11.62l2.226-8.457L52.1,2.285,52.7,0,62.25,2.512l-.6,2.286L58.312,3.92l-2.226,8.457ZM31.133,7.673c-.849-3.6,1.037-6.115,4.074-6.84,3.006-.717,5.847.671,6.7,4.268s-1.053,6.119-4.059,6.836a6.524,6.524,0,0,1-1.514.184C33.918,12.121,31.847,10.641,31.133,7.673ZM35.8,3.31c-1.538.367-2.125,1.651-1.651,3.644s1.577,2.865,3.116,2.505c1.52-.37,2.116-1.656,1.635-3.64-.4-1.7-1.265-2.59-2.455-2.589A2.784,2.784,0,0,0,35.8,3.31Z" transform="translate(475.852 -415.139) rotate(90)" fill="#fff"/>
    </g>
  </g>
</svg>
